NotoSansDevanagari-SemiBold.ufo
<glyph name="numbersign.deva" format="2">
  <advance width="666"/>
  <unicode hex="0023"/>
  <outline>
    <contour>
      <point x="148" y="161" type="line"/>
      <point x="119" y="0" type="line"/>
      <point x="224" y="0" type="line"/>
      <point x="254" y="161" type="line"/>
      <point x="349" y="161" type="line"/>
      <point x="318" y="0" type="line"/>
      <point x="425" y="0" type="line"/>
      <point x="456" y="161" type="line"/>
      <point x="594" y="161" type="line"/>
      <point x="594" y="261" type="line"/>
      <point x="475" y="261" type="line"/>
      <point x="498" y="375" type="line"/>
      <point x="627" y="375" type="line"/>
      <point x="627" y="477" type="line"/>
      <point x="517" y="477" type="line"/>
      <point x="546" y="632" type="line"/>
      <point x="441" y="632" type="line"/>
      <point x="412" y="477" type="line"/>
      <point x="315" y="477" type="line"/>
      <point x="344" y="632" type="line"/>
      <point x="237" y="632" type="line"/>
      <point x="208" y="477" type="line"/>
      <point x="74" y="477" type="line"/>
      <point x="74" y="375" type="line"/>
      <point x="190" y="375" type="line"/>
      <point x="167" y="261" type="line"/>
      <point x="39" y="261" type="line"/>
      <point x="39" y="161" type="line"/>
    </contour>
    <contour>
      <point x="369" y="261" type="line"/>
      <point x="273" y="261" type="line"/>
      <point x="296" y="375" type="line"/>
      <point x="392" y="375" type="line"/>
    </contour>
  </outline>
</glyph>
<glyph name="percent.deva" format="2">
  <advance width="899"/>
  <unicode hex="0025"/>
  <outline>
    <contour>
      <point x="588" y="622" type="line"/>
      <point x="197" y="0" type="line"/>
      <point x="309" y="0" type="line"/>
      <point x="700" y="622" type="line"/>
    </contour>
    <contour>
      <point x="208" y="271" type="curve" smooth="yes"/>
      <point x="327" y="271"/>
      <point x="379" y="338"/>
      <point x="379" y="452" type="curve" smooth="yes"/>
      <point x="379" y="566"/>
      <point x="320" y="632"/>
      <point x="208" y="632" type="curve" smooth="yes"/>
      <point x="91" y="632"/>
      <point x="40" y="566"/>
      <point x="40" y="452" type="curve" smooth="yes"/>
      <point x="40" y="338"/>
      <point x="98" y="271"/>
    </contour>
    <contour>
      <point x="209" y="372" type="curve" smooth="yes"/>
      <point x="174" y="372"/>
      <point x="158" y="398"/>
      <point x="158" y="451" type="curve" smooth="yes"/>
      <point x="158" y="504"/>
      <point x="174" y="530"/>
      <point x="209" y="530" type="curve" smooth="yes"/>
      <point x="244" y="530"/>
      <point x="261" y="504"/>
      <point x="261" y="451" type="curve" smooth="yes"/>
      <point x="261" y="397"/>
      <point x="244" y="372"/>
    </contour>
    <contour>
      <point x="689" y="-9" type="curve" smooth="yes"/>
      <point x="808" y="-9"/>
      <point x="860" y="59"/>
      <point x="860" y="172" type="curve" smooth="yes"/>
      <point x="860" y="286"/>
      <point x="801" y="353"/>
      <point x="689" y="353" type="curve" smooth="yes"/>
      <point x="572" y="353"/>
      <point x="521" y="286"/>
      <point x="521" y="172" type="curve" smooth="yes"/>
      <point x="521" y="59"/>
      <point x="579" y="-9"/>
    </contour>
    <contour>
      <point x="689" y="92" type="curve" smooth="yes"/>
      <point x="654" y="92"/>
      <point x="638" y="118"/>
      <point x="638" y="171" type="curve" smooth="yes"/>
      <point x="638" y="225"/>
      <point x="654" y="250"/>
      <point x="689" y="250" type="curve" smooth="yes"/>
      <point x="724" y="250"/>
      <point x="741" y="224"/>
      <point x="741" y="171" type="curve" smooth="yes"/>
      <point x="741" y="117"/>
      <point x="724" y="92"/>
    </contour>
  </outline>
</glyph>
<glyph name="quotesingle.deva" format="2">
  <advance width="340"/>
  <unicode hex="0027"/>
  <outline>
    <contour>
      <point x="129" y="471" type="line"/>
      <point x="225" y="471" type="line"/>
      <point x="245" y="729" type="line"/>
      <point x="109" y="729" type="line"/>
    </contour>
  </outline>
</glyph>
<glyph name="parenleft.deva" format="2">
  <advance width="386"/>
  <unicode hex="0028"/>
  <outline>
    <contour>
      <point x="213" y="-165" type="curve"/>
      <point x="334" y="-165" type="line"/>
      <point x="244" y="-25"/>
      <point x="196" y="153"/>
      <point x="196" y="330" type="curve" smooth="yes"/>
      <point x="196" y="507"/>
      <point x="242" y="687"/>
      <point x="335" y="832" type="curve"/>
      <point x="213" y="832" type="line"/>
      <point x="112" y="694"/>
      <point x="66" y="515"/>
      <point x="66" y="329" type="curve" smooth="yes"/>
      <point x="66" y="145"/>
      <point x="112" y="-32"/>
    </contour>
  </outline>
</glyph>
<glyph name="parenright.deva" format="2">
  <advance width="386"/>
  <unicode hex="0029"/>
  <outline>
    <contour>
      <point x="51" y="-165" type="curve"/>
      <point x="173" y="-165" type="line"/>
      <point x="274" y="-27"/>
      <point x="320" y="152"/>
      <point x="320" y="338" type="curve" smooth="yes"/>
      <point x="320" y="522"/>
      <point x="274" y="698"/>
      <point x="173" y="832" type="curve"/>
      <point x="52" y="832" type="line"/>
      <point x="142" y="691"/>
      <point x="190" y="513"/>
      <point x="190" y="336" type="curve" smooth="yes"/>
      <point x="190" y="159"/>
      <point x="144" y="-20"/>
    </contour>
  </outline>
</glyph>
<glyph name="plus.deva" format="2">
  <advance width="570"/>
  <unicode hex="002B"/>
  <outline>
    <contour>
      <point x="232" y="270" type="line"/>
      <point x="232" y="92" type="line"/>
      <point x="339" y="92" type="line"/>
      <point x="339" y="270" type="line"/>
      <point x="518" y="270" type="line"/>
      <point x="518" y="376" type="line"/>
      <point x="339" y="376" type="line"/>
      <point x="339" y="557" type="line"/>
      <point x="232" y="557" type="line"/>
      <point x="232" y="376" type="line"/>
      <point x="53" y="376" type="line"/>
      <point x="53" y="270" type="line"/>
    </contour>
  </outline>
</glyph>
<glyph name="comma.deva" format="2">
  <advance width="290"/>
  <unicode hex="002C"/>
  <outline>
    <contour>
      <point x="34" y="-119" type="curve"/>
      <point x="141" y="-119" type="line"/>
      <point x="174" y="-42"/>
      <point x="209" y="53"/>
      <point x="227" y="129" type="curve"/>
      <point x="220" y="141" type="line"/>
      <point x="83" y="141" type="line"/>
      <point x="74" y="67"/>
      <point x="54" y="-35"/>
    </contour>
  </outline>
</glyph>
<glyph name="hyphen.deva" format="2">
  <advance width="366"/>
  <unicode hex="002D"/>
  <outline>
    <contour>
      <point x="52" y="358" type="line"/>
      <point x="52" y="236" type="line"/>
      <point x="314" y="236" type="line"/>
      <point x="314" y="358" type="line"/>
    </contour>
  </outline>
</glyph>
<glyph name="two.deva" format="2">
  <advance width="551"/>
  <unicode hex="0032"/>
  <outline>
    <contour>
      <point x="40" y="105" type="line"/>
      <point x="40" y="0" type="line"/>
      <point x="519" y="0" type="line"/>
      <point x="519" y="127" type="line"/>
      <point x="228" y="127" type="line"/>
      <point x="228" y="134" type="line"/>
      <point x="314" y="220" type="line" smooth="yes"/>
      <point x="414" y="321"/>
      <point x="499" y="412"/>
      <point x="499" y="523" type="curve" smooth="yes"/>
      <point x="499" y="646"/>
      <point x="414" y="724"/>
      <point x="278" y="724" type="curve" smooth="yes"/>
      <point x="163" y="724"/>
      <point x="96" y="675"/>
      <point x="38" y="622" type="curve"/>
      <point x="120" y="525" type="line"/>
      <point x="172" y="572"/>
      <point x="218" y="598"/>
      <point x="269" y="598" type="curve" smooth="yes"/>
      <point x="318" y="598"/>
      <point x="349" y="570"/>
      <point x="349" y="522" type="curve" smooth="yes"/>
      <point x="349" y="435"/>
      <point x="292" y="377"/>
      <point x="208" y="286" type="curve" smooth="yes"/>
    </contour>
  </outline>
</glyph>
<glyph name="three.deva" format="2">
  <advance width="551"/>
  <unicode hex="0033"/>
  <outline>
    <contour>
      <point x="231" y="-10" type="curve" smooth="yes"/>
      <point x="423" y="-10"/>
      <point x="512" y="83"/>
      <point x="512" y="208" type="curve" smooth="yes"/>
      <point x="512" y="302"/>
      <point x="452" y="359"/>
      <point x="337" y="373" type="curve"/>
      <point x="337" y="376" type="line"/>
      <point x="424" y="396"/>
      <point x="491" y="456"/>
      <point x="491" y="554" type="curve" smooth="yes"/>
      <point x="491" y="662"/>
      <point x="398" y="724"/>
      <point x="257" y="724" type="curve" smooth="yes"/>
      <point x="158" y="724"/>
      <point x="83" y="694"/>
      <point x="29" y="654" type="curve"/>
      <point x="105" y="553" type="line"/>
      <point x="136" y="575"/>
      <point x="182" y="602"/>
      <point x="244" y="602" type="curve" smooth="yes"/>
      <point x="313" y="602"/>
      <point x="343" y="572"/>
      <point x="343" y="521" type="curve" smooth="yes"/>
      <point x="343" y="465"/>
      <point x="308" y="419"/>
      <point x="188" y="419" type="curve" smooth="yes"/>
      <point x="138" y="419" type="line"/>
      <point x="138" y="313" type="line"/>
      <point x="189" y="313" type="line" smooth="yes"/>
      <point x="316" y="313"/>
      <point x="361" y="275"/>
      <point x="361" y="217" type="curve" smooth="yes"/>
      <point x="361" y="154"/>
      <point x="327" y="110"/>
      <point x="216" y="110" type="curve" smooth="yes"/>
      <point x="160" y="110"/>
      <point x="87" y="126"/>
      <point x="28" y="157" type="curve"/>
      <point x="28" y="29" type="line"/>
      <point x="87" y="3"/>
      <point x="154" y="-10"/>
    </contour>
  </outline>
</glyph>
<glyph name="four.deva" format="2">
  <advance width="551"/>
  <unicode hex="0034"/>
  <outline>
    <contour>
      <point x="297" y="148" type="line"/>
      <point x="297" y="0" type="line"/>
      <point x="444" y="0" type="line"/>
      <point x="444" y="148" type="line"/>
      <point x="530" y="148" type="line"/>
      <point x="530" y="265" type="line"/>
      <point x="444" y="265" type="line"/>
      <point x="444" y="714" type="line"/>
      <point x="305" y="714" type="line"/>
      <point x="2" y="253" type="line"/>
      <point x="2" y="148" type="line"/>
    </contour>
    <contour>
      <point x="297" y="265" type="line"/>
      <point x="135" y="265" type="line"/>
      <point x="254" y="446" type="line" smooth="yes"/>
      <point x="273" y="477"/>
      <point x="287" y="508"/>
      <point x="299" y="535" type="curve"/>
      <point x="303" y="535" type="line"/>
      <point x="302" y="516"/>
      <point x="297" y="411"/>
      <point x="297" y="386" type="curve" smooth="yes"/>
    </contour>
  </outline>
</glyph>
<glyph name="semicolon.deva" format="2">
  <advance width="324"/>
  <unicode hex="003B"/>
  <outline>
    <contour>
      <point x="236" y="141" type="line"/>
      <point x="99" y="141" type="line"/>
      <point x="89" y="67"/>
      <point x="70" y="-35"/>
      <point x="50" y="-119" type="curve"/>
      <point x="157" y="-119" type="line"/>
      <point x="190" y="-42"/>
      <point x="225" y="53"/>
      <point x="243" y="129" type="curve"/>
    </contour>
    <contour>
      <point x="162" y="390" type="curve" smooth="yes"/>
      <point x="207" y="390"/>
      <point x="247" y="414"/>
      <point x="247" y="473" type="curve" smooth="yes"/>
      <point x="247" y="534"/>
      <point x="207" y="556"/>
      <point x="162" y="556" type="curve" smooth="yes"/>
      <point x="114" y="556"/>
      <point x="76" y="534"/>
      <point x="76" y="473" type="curve" smooth="yes"/>
      <point x="76" y="414"/>
      <point x="114" y="390"/>
    </contour>
  </outline>
</glyph>
<glyph name="greater.deva" format="2">
  <advance width="570"/>
  <unicode hex="003E"/>
  <outline>
    <contour>
      <point x="53" y="187" type="line"/>
      <point x="53" y="70" type="line"/>
      <point x="518" y="284" type="line"/>
      <point x="518" y="354" type="line"/>
      <point x="53" y="596" type="line"/>
      <point x="53" y="479" type="line"/>
      <point x="367" y="324" type="line"/>
    </contour>
  </outline>
</glyph>
<glyph name="bracketleft.deva" format="2">
  <advance width="390"/>
  <unicode hex="005B"/>
  <outline>
    <contour>
      <point x="104" y="832" type="line"/>
      <point x="104" y="-166" type="line"/>
      <point x="341" y="-166" type="line"/>
      <point x="341" y="-63" type="line"/>
      <point x="231" y="-63" type="line"/>
      <point x="231" y="729" type="line"/>
      <point x="341" y="729" type="line"/>
      <point x="341" y="832" type="line"/>
    </contour>
  </outline>
</glyph>
<glyph name="backslash.deva" format="2">
  <advance width="472"/>
  <unicode hex="005C"/>
  <outline>
    <contour>
      <point x="35" y="833" type="line"/>
      <point x="309" y="-166" type="line"/>
      <point x="437" y="-166" type="line"/>
      <point x="163" y="833" type="line"/>
    </contour>
  </outline>
</glyph>
<glyph name="braceleft.deva" format="2">
  <advance width="426"/>
  <unicode hex="007B"/>
  <outline>
    <contour>
      <point x="38" y="391" type="curve"/>
      <point x="38" y="274" type="line"/>
      <point x="120" y="274"/>
      <point x="163" y="246"/>
      <point x="163" y="172" type="curve" smooth="yes"/>
      <point x="163" y="-7" type="line" smooth="yes"/>
      <point x="163" y="-119"/>
      <point x="206" y="-166"/>
      <point x="377" y="-166" type="curve"/>
      <point x="377" y="-55" type="line"/>
      <point x="324" y="-54"/>
      <point x="290" y="-39"/>
      <point x="290" y="27" type="curve" smooth="yes"/>
      <point x="290" y="201" type="line" smooth="yes"/>
      <point x="290" y="274"/>
      <point x="252" y="317"/>
      <point x="178" y="330" type="curve"/>
      <point x="178" y="336" type="line"/>
      <point x="252" y="350"/>
      <point x="290" y="393"/>
      <point x="290" y="465" type="curve" smooth="yes"/>
      <point x="290" y="640" type="line" smooth="yes"/>
      <point x="290" y="706"/>
      <point x="324" y="720"/>
      <point x="377" y="722" type="curve"/>
      <point x="377" y="832" type="line"/>
      <point x="206" y="832"/>
      <point x="163" y="785"/>
      <point x="163" y="673" type="curve" smooth="yes"/>
      <point x="163" y="492" type="line"/>
      <point x="163" y="419"/>
      <point x="119" y="391"/>
    </contour>
  </outline>
</glyph>
<glyph name="bar.deva" format="2">
  <advance width="540"/>
  <unicode hex="007C"/>
  <outline>
    <contour>
      <point x="216" y="832" type="line"/>
      <point x="216" y="-166" type="line"/>
      <point x="323" y="-166" type="line"/>
      <point x="323" y="832" type="line"/>
    </contour>
  </outline>
</glyph>
<glyph name="multiply.deva" format="2">
  <advance width="570"/>
  <unicode hex="00D7"/>
  <outline>
    <contour>
      <point x="284" y="249" type="line"/>
      <point x="433" y="102" type="line"/>
      <point x="506" y="176" type="line"/>
      <point x="359" y="324" type="line"/>
      <point x="508" y="473" type="line"/>
      <point x="433" y="546" type="line"/>
      <point x="284" y="400" type="line"/>
      <point x="137" y="546" type="line"/>
      <point x="63" y="471" type="line"/>
      <point x="209" y="324" type="line"/>
      <point x="64" y="177" type="line"/>
      <point x="137" y="103" type="line"/>
    </contour>
  </outline>
</glyph>
<glyph name="binducandradeva" format="2">
  <unicode hex="0900"/>
  <outline>
    <contour>
      <point x="-418" y="692" type="curve"/>
      <point x="-308" y="656" type="line"/>
      <point x="-289" y="752"/>
      <point x="-255" y="800"/>
      <point x="-181" y="800" type="curve" smooth="yes"/>
      <point x="-112" y="800"/>
      <point x="-66" y="757"/>
      <point x="-35" y="656" type="curve"/>
      <point x="68" y="694" type="line"/>
      <point x="16" y="836"/>
      <point x="-71" y="896"/>
      <point x="-178" y="896" type="curve" smooth="yes"/>
      <point x="-296" y="896"/>
      <point x="-382" y="841"/>
    </contour>
    <contour>
      <point x="-119" y="714" type="curve" smooth="yes"/>
      <point x="-119" y="747"/>
      <point x="-146" y="773"/>
      <point x="-177" y="773" type="curve" smooth="yes"/>
      <point x="-209" y="773"/>
      <point x="-236" y="747"/>
      <point x="-236" y="714" type="curve" smooth="yes"/>
      <point x="-236" y="682"/>
      <point x="-209" y="656"/>
      <point x="-177" y="656" type="curve" smooth="yes"/>
      <point x="-146" y="656"/>
      <point x="-119" y="682"/>
    </contour>
  </outline>
</glyph>
<glyph name="candrabindudeva" format="2">
  <unicode hex="0901"/>
  <outline>
    <contour>
      <point x="-231" y="838" type="curve" smooth="yes"/>
      <point x="-231" y="806"/>
      <point x="-205" y="779"/>
      <point x="-173" y="779" type="curve" smooth="yes"/>
      <point x="-141" y="779"/>
      <point x="-114" y="806"/>
      <point x="-114" y="838" type="curve" smooth="yes"/>
      <point x="-114" y="871"/>
      <point x="-141" y="896"/>
      <point x="-173" y="896" type="curve" smooth="yes"/>
      <point x="-205" y="896"/>
      <point x="-231" y="871"/>
    </contour>
    <contour>
      <point x="68" y="860" type="curve"/>
      <point x="-42" y="896" type="line"/>
      <point x="-62" y="800"/>
      <point x="-95" y="752"/>
      <point x="-169" y="752" type="curve" smooth="yes"/>
      <point x="-238" y="752"/>
      <point x="-284" y="795"/>
      <point x="-315" y="896" type="curve"/>
      <point x="-418" y="858" type="line"/>
      <point x="-366" y="716"/>
      <point x="-279" y="656"/>
      <point x="-172" y="656" type="curve" smooth="yes"/>
      <point x="-54" y="656"/>
      <point x="32" y="711"/>
    </contour>
  </outline>
</glyph>
<glyph name="anusvaradeva" format="2">
  <unicode hex="0902"/>
  <outline>
    <contour>
      <point x="-221" y="773" type="curve" smooth="yes"/>
      <point x="-221" y="730"/>
      <point x="-189" y="698"/>
      <point x="-147" y="698" type="curve" smooth="yes"/>
      <point x="-105" y="698"/>
      <point x="-74" y="730"/>
      <point x="-74" y="773" type="curve" smooth="yes"/>
      <point x="-74" y="815"/>
      <point x="-105" y="848"/>
      <point x="-147" y="848" type="curve" smooth="yes"/>
      <point x="-189" y="848"/>
      <point x="-221" y="815"/>
    </contour>
  </outline>
</glyph>
<glyph name="visargadeva" format="2">
  <advance width="287"/>
  <unicode hex="0903"/>
  <outline>
    <contour>
      <point x="76" y="118" type="curve" smooth="yes"/>
      <point x="76" y="76"/>
      <point x="107" y="43"/>
      <point x="149" y="43" type="curve" smooth="yes"/>
      <point x="191" y="43"/>
      <point x="222" y="76"/>
      <point x="222" y="118" type="curve" smooth="yes"/>
      <point x="222" y="161"/>
      <point x="191" y="193"/>
      <point x="149" y="193" type="curve" smooth="yes"/>
      <point x="107" y="193"/>
      <point x="76" y="161"/>
    </contour>
    <contour>
      <point x="76" y="436" type="curve" smooth="yes"/>
      <point x="76" y="394"/>
      <point x="107" y="361"/>
      <point x="149" y="361" type="curve" smooth="yes"/>
      <point x="191" y="361"/>
      <point x="222" y="394"/>
      <point x="222" y="436" type="curve" smooth="yes"/>
      <point x="222" y="479"/>
      <point x="191" y="511"/>
      <point x="149" y="511" type="curve" smooth="yes"/>
      <point x="107" y="511"/>
      <point x="76" y="479"/>
    </contour>
  </outline>
</glyph>
<glyph name="adeva" format="2">
  <advance width="845"/>
  <unicode hex="0905"/>
  <outline>
    <contour>
      <point x="765" y="512" type="line"/>
      <point x="859" y="512" type="line"/>
      <point x="859" y="622" type="line"/>
      <point x="567" y="622" type="line"/>
      <point x="567" y="512" type="line"/>
      <point x="631" y="512" type="line"/>
      <point x="631" y="0" type="line"/>
      <point x="765" y="0" type="line"/>
    </contour>
    <contour>
      <point x="333" y="632" type="curve" smooth="yes"/>
      <point x="261" y="632"/>
      <point x="198" y="610"/>
      <point x="159" y="590" type="curve"/>
      <point x="196" y="490" type="line"/>
      <point x="232" y="508"/>
      <point x="270" y="522"/>
      <point x="311" y="522" type="curve" smooth="yes"/>
      <point x="344" y="522"/>
      <point x="376" y="512"/>
      <point x="376" y="474" type="curve" smooth="yes"/>
      <point x="376" y="435"/>
      <point x="353" y="414"/>
      <point x="275" y="410" type="curve"/>
      <point x="281" y="304" type="line"/>
      <point x="429" y="308"/>
      <point x="509" y="378"/>
      <point x="509" y="477" type="curve" smooth="yes"/>
      <point x="509" y="566"/>
      <point x="447" y="632"/>
    </contour>
    <contour>
      <point x="521" y="211" type="curve" smooth="yes"/>
      <point x="521" y="239"/>
      <point x="514" y="267"/>
      <point x="502" y="292" type="curve"/>
      <point x="491" y="313" type="line"/>
      <point x="477" y="335"/>
      <point x="458" y="358"/>
      <point x="438" y="374" type="curve"/>
      <point x="376" y="383" type="line"/>
      <point x="297" y="359" type="line"/>
      <point x="359" y="322"/>
      <point x="388" y="284"/>
      <point x="388" y="230" type="curve" smooth="yes"/>
      <point x="388" y="193"/>
      <point x="369" y="173"/>
      <point x="330" y="173" type="curve" smooth="yes"/>
      <point x="250" y="173"/>
      <point x="190" y="249"/>
      <point x="135" y="392" type="curve"/>
      <point x="20" y="348" type="line"/>
      <point x="117" y="120"/>
      <point x="213" y="60"/>
      <point x="340" y="60" type="curve" smooth="yes"/>
      <point x="458" y="60"/>
      <point x="521" y="117"/>
    </contour>
    <contour>
      <point x="525" y="346" type="curve" smooth="yes"/>
      <point x="485" y="346"/>
      <point x="459" y="350"/>
      <point x="434" y="355" type="curve"/>
      <point x="419" y="342" type="line"/>
      <point x="431" y="249" type="line"/>
      <point x="459" y="244"/>
      <point x="499" y="238"/>
      <point x="542" y="238" type="curve" smooth="yes"/>
      <point x="587" y="238"/>
      <point x="629" y="244"/>
      <point x="669" y="269" type="curve"/>
      <point x="669" y="379" type="line"/>
      <point x="624" y="354"/>
      <point x="581" y="346"/>
    </contour>
  </outline>
</glyph>
<glyph name="udeva" format="2">
  <advance width="584"/>
  <unicode hex="0909"/>
  <outline>
    <contour>
      <point x="0" y="622" type="line"/>
      <point x="0" y="512" type="line"/>
      <point x="599" y="512" type="line"/>
      <point x="599" y="622" type="line"/>
    </contour>
    <contour>
      <point x="320" y="618" type="curve" smooth="yes"/>
      <point x="301" y="544" type="line"/>
      <point x="345" y="529"/>
      <point x="392" y="500"/>
      <point x="392" y="455" type="curve" smooth="yes"/>
      <point x="392" y="398"/>
      <point x="345" y="384"/>
      <point x="269" y="381" type="curve"/>
      <point x="274" y="275" type="line"/>
      <point x="431" y="283"/>
      <point x="526" y="346"/>
      <point x="526" y="446" type="curve" smooth="yes"/>
      <point x="526" y="547"/>
      <point x="414" y="609"/>
    </contour>
    <contour>
      <point x="439" y="336" type="curve"/>
      <point x="315" y="299" type="line"/>
      <point x="376" y="261"/>
      <point x="408" y="227"/>
      <point x="408" y="174" type="curve" smooth="yes"/>
      <point x="408" y="134"/>
      <point x="384" y="113"/>
      <point x="339" y="113" type="curve" smooth="yes"/>
      <point x="260" y="113"/>
      <point x="202" y="192"/>
      <point x="135" y="355" type="curve"/>
      <point x="20" y="312" type="line"/>
      <point x="121" y="76"/>
      <point x="214" y="0"/>
      <point x="350" y="0" type="curve" smooth="yes"/>
      <point x="471" y="0"/>
      <point x="541" y="54"/>
      <point x="541" y="155" type="curve" smooth="yes"/>
      <point x="541" y="231"/>
      <point x="489" y="294"/>
    </contour>
  </outline>
</glyph>
<glyph name="uudeva" format="2">
  <advance width="828"/>
  <unicode hex="090A"/>
  <outline>
    <contour>
      <point x="0" y="622" type="line"/>
      <point x="0" y="512" type="line"/>
      <point x="842" y="512" type="line"/>
      <point x="842" y="622" type="line"/>
    </contour>
    <contour>
      <point x="320" y="618" type="curve"/>
      <point x="301" y="544" type="line"/>
      <point x="345" y="529"/>
      <point x="392" y="500"/>
      <point x="392" y="455" type="curve" smooth="yes"/>
      <point x="392" y="398"/>
      <point x="345" y="384"/>
      <point x="269" y="381" type="curve"/>
      <point x="274" y="275" type="line"/>
      <point x="431" y="283"/>
      <point x="526" y="346"/>
      <point x="526" y="446" type="curve" smooth="yes"/>
      <point x="526" y="547"/>
      <point x="414" y="609"/>
    </contour>
    <contour>
      <point x="439" y="336" type="curve"/>
      <point x="315" y="299" type="line"/>
      <point x="376" y="261"/>
      <point x="408" y="227"/>
      <point x="408" y="174" type="curve" smooth="yes"/>
      <point x="408" y="134"/>
      <point x="384" y="113"/>
      <point x="339" y="113" type="curve" smooth="yes"/>
      <point x="260" y="113"/>
      <point x="202" y="192"/>
      <point x="135" y="355" type="curve"/>
      <point x="20" y="312" type="line"/>
      <point x="121" y="76"/>
      <point x="214" y="0"/>
      <point x="350" y="0" type="curve" smooth="yes"/>
      <point x="471" y="0"/>
      <point x="541" y="54"/>
      <point x="541" y="155" type="curve" smooth="yes"/>
      <point x="541" y="219"/>
      <point x="503" y="284"/>
    </contour>
    <contour>
      <point x="459" y="290" type="curve"/>
      <point x="507" y="180" type="line"/>
      <point x="534" y="209"/>
      <point x="568" y="237"/>
      <point x="604" y="237" type="curve" smooth="yes"/>
      <point x="637" y="237"/>
      <point x="658" y="222"/>
      <point x="658" y="177" type="curve" smooth="yes"/>
      <point x="658" y="143"/>
      <point x="642" y="98"/>
      <point x="616" y="64" type="curve"/>
      <point x="732" y="0" type="line"/>
      <point x="777" y="68"/>
      <point x="792" y="132"/>
      <point x="792" y="189" type="curve" smooth="yes"/>
      <point x="792" y="295"/>
      <point x="725" y="347"/>
      <point x="625" y="347" type="curve" smooth="yes"/>
      <point x="564" y="347"/>
      <point x="511" y="327"/>
    </contour>
  </outline>
</glyph>
<glyph name="rvocalicdeva" format="2">
  <advance width="918"/>
  <unicode hex="090B"/>
  <outline>
    <contour>
      <point x="521" y="512" type="line"/>
      <point x="932" y="512" type="line"/>
      <point x="932" y="622" type="line"/>
      <point x="0" y="622" type="line"/>
      <point x="0" y="512" type="line"/>
      <point x="387" y="512" type="line"/>
      <point x="387" y="0" type="line"/>
      <point x="521" y="0" type="line"/>
    </contour>
    <contour>
      <point x="26" y="399" type="curve"/>
      <point x="69" y="292" type="line"/>
      <point x="125" y="319"/>
      <point x="158" y="329"/>
      <point x="196" y="329" type="curve" smooth="yes"/>
      <point x="244" y="329"/>
      <point x="272" y="307"/>
      <point x="327" y="246" type="curve"/>
      <point x="378" y="264" type="line"/>
      <point x="411" y="302" type="line"/>
      <point x="324" y="411"/>
      <point x="280" y="443"/>
      <point x="194" y="443" type="curve" smooth="yes"/>
      <point x="135" y="443"/>
      <point x="83" y="426"/>
    </contour>
    <contour>
      <point x="130" y="42" type="line"/>
      <point x="443" y="231" type="line"/>
      <point x="378" y="313" type="line"/>
      <point x="62" y="136" type="line"/>
    </contour>
    <contour>
      <point x="497" y="327" type="curve"/>
      <point x="501" y="224" type="line"/>
      <point x="561" y="227"/>
      <point x="625" y="236"/>
      <point x="669" y="250" type="curve"/>
      <point x="681" y="225"/>
      <point x="704" y="184"/>
      <point x="722" y="155" type="curve"/>
      <point x="808" y="150" type="line"/>
      <point x="832" y="187" type="line"/>
      <point x="805" y="224"/>
      <point x="784" y="250"/>
      <point x="764" y="283" type="curve"/>
      <point x="786" y="295"/>
      <point x="803" y="320"/>
      <point x="803" y="354" type="curve" smooth="yes"/>
      <point x="803" y="399"/>
      <point x="774" y="441"/>
      <point x="709" y="441" type="curve" smooth="yes"/>
      <point x="664" y="441"/>
      <point x="623" y="416"/>
      <point x="623" y="365" type="curve" smooth="yes"/>
      <point x="623" y="349"/>
      <point x="627" y="334"/>
      <point x="633" y="322" type="curve"/>
      <point x="645" y="348" type="line"/>
      <point x="610" y="337"/>
      <point x="544" y="330"/>
    </contour>
    <contour>
      <point x="924" y="-20" type="curve"/>
      <point x="885" y="78" type="line"/>
      <point x="839" y="54"/>
      <point x="811" y="46"/>
      <point x="780" y="46" type="curve" smooth="yes"/>
      <point x="740" y="46"/>
      <point x="719" y="63"/>
      <point x="719" y="93" type="curve" smooth="yes"/>
      <point x="719" y="122"/>
      <point x="739" y="147"/>
      <point x="808" y="150" type="curve"/>
      <point x="702" y="228" type="line"/>
      <point x="634" y="199"/>
      <point x="601" y="155"/>
      <point x="601" y="91" type="curve" smooth="yes"/>
      <point x="601" y="4"/>
      <point x="674" y="-54"/>
      <point x="774" y="-54" type="curve" smooth="yes"/>
      <point x="842" y="-54"/>
      <point x="889" y="-37"/>
    </contour>
  </outline>
</glyph>
<glyph name="lvocalicdeva" format="2">
  <advance width="757"/>
  <unicode hex="090C"/>
  <outline>
    <contour>
      <point x="771" y="512" type="line"/>
      <point x="771" y="622" type="line"/>
      <point x="0" y="622" type="line"/>
      <point x="0" y="512" type="line"/>
      <point x="476" y="512" type="line"/>
      <point x="476" y="407" type="line"/>
      <point x="609" y="394" type="line"/>
      <point x="609" y="512" type="line"/>
    </contour>
    <contour>
      <point x="208" y="426" type="curve" smooth="yes"/>
      <point x="130" y="426"/>
      <point x="37" y="385"/>
      <point x="37" y="265" type="curve" smooth="yes"/>
      <point x="37" y="171"/>
      <point x="99" y="95"/>
      <point x="239" y="-17" type="curve"/>
      <point x="326" y="72" type="line"/>
      <point x="211" y="161"/>
      <point x="171" y="202"/>
      <point x="171" y="255" type="curve" smooth="yes"/>
      <point x="171" y="289"/>
      <point x="195" y="313"/>
      <point x="236" y="313" type="curve" smooth="yes"/>
      <point x="288" y="313"/>
      <point x="319" y="274"/>
      <point x="357" y="236" type="curve"/>
      <point x="392" y="360" type="line"/>
      <point x="333" y="406"/>
      <point x="284" y="426"/>
    </contour>
    <contour>
      <point x="463" y="30" type="curve" smooth="yes"/>
      <point x="463" y="-57"/>
      <point x="536" y="-115"/>
      <point x="636" y="-115" type="curve" smooth="yes"/>
      <point x="704" y="-115"/>
      <point x="750" y="-98"/>
      <point x="786" y="-81" type="curve"/>
      <point x="747" y="17" type="line"/>
      <point x="701" y="-7"/>
      <point x="672" y="-15"/>
      <point x="642" y="-15" type="curve" smooth="yes"/>
      <point x="602" y="-15"/>
      <point x="581" y="1"/>
      <point x="581" y="32" type="curve" smooth="yes"/>
      <point x="581" y="61"/>
      <point x="602" y="85"/>
      <point x="669" y="89" type="curve"/>
      <point x="658" y="185" type="line"/>
      <point x="533" y="177"/>
      <point x="463" y="121"/>
    </contour>
    <contour>
      <point x="531" y="426" type="curve" smooth="yes"/>
      <point x="400" y="426"/>
      <point x="319" y="358"/>
      <point x="284" y="225" type="curve"/>
      <point x="409" y="187" type="line"/>
      <point x="437" y="292"/>
      <point x="490" y="314"/>
      <point x="522" y="314" type="curve" smooth="yes"/>
      <point x="558" y="314"/>
      <point x="582" y="292"/>
      <point x="582" y="242" type="curve" smooth="yes"/>
      <point x="582" y="208"/>
      <point x="568" y="173"/>
      <point x="542" y="133" type="curve"/>
      <point x="669" y="90" type="line"/>
      <point x="698" y="140"/>
      <point x="716" y="191"/>
      <point x="716" y="250" type="curve" smooth="yes"/>
      <point x="716" y="362"/>
      <point x="638" y="426"/>
    </contour>
  </outline>
</glyph>
<glyph name="edeva" format="2">
  <advance width="608"/>
  <unicode hex="090F"/>
  <outline>
    <contour>
      <point x="622" y="512" type="line"/>
      <point x="622" y="622" type="line"/>
      <point x="0" y="622" type="line"/>
      <point x="0" y="512" type="line"/>
      <point x="68" y="512" type="line"/>
      <point x="68" y="322" type="line" smooth="yes"/>
      <point x="68" y="266"/>
      <point x="73" y="234"/>
      <point x="83" y="209" type="curve" smooth="yes"/>
      <point x="103" y="163"/>
      <point x="140" y="133"/>
      <point x="192" y="104" type="curve" smooth="yes"/>
      <point x="313" y="34" type="line" smooth="yes"/>
      <point x="395" y="-14"/>
      <point x="409" y="-29"/>
      <point x="409" y="-70" type="curve" smooth="yes"/>
      <point x="409" y="-92"/>
      <point x="396" y="-120"/>
      <point x="381" y="-135" type="curve"/>
      <point x="491" y="-198" type="line"/>
      <point x="517" y="-165"/>
      <point x="545" y="-110"/>
      <point x="545" y="-57" type="curve" smooth="yes"/>
      <point x="545" y="8"/>
      <point x="523" y="49"/>
      <point x="442" y="96" type="curve" smooth="yes"/>
      <point x="302" y="177" type="line" smooth="yes"/>
      <point x="212" y="229"/>
      <point x="202" y="248"/>
      <point x="202" y="349" type="curve" smooth="yes"/>
      <point x="202" y="512" type="line"/>
      <point x="406" y="512" type="line"/>
      <point x="406" y="401" type="line" smooth="yes"/>
      <point x="406" y="354"/>
      <point x="401" y="340"/>
      <point x="387" y="326" type="curve" smooth="yes"/>
      <point x="379" y="318"/>
      <point x="362" y="312"/>
      <point x="335" y="308" type="curve"/>
      <point x="358" y="198" type="line"/>
      <point x="428" y="205"/>
      <point x="469" y="220"/>
      <point x="499" y="249" type="curve" smooth="yes"/>
      <point x="529" y="279"/>
      <point x="540" y="315"/>
      <point x="540" y="384" type="curve" smooth="yes"/>
      <point x="540" y="512" type="line"/>
    </contour>
  </outline>
</glyph>
<glyph name="kadeva" format="2">
  <advance width="823"/>
  <unicode hex="0915"/>
  <outline>
    <contour>
      <point x="837" y="512" type="line"/>
      <point x="837" y="622" type="line"/>
      <point x="0" y="622" type="line"/>
      <point x="0" y="512" type="line"/>
      <point x="381" y="512" type="line"/>
      <point x="381" y="202" type="line"/>
      <point x="404" y="290" type="line"/>
      <point x="371" y="246"/>
      <point x="321" y="199"/>
      <point x="250" y="199" type="curve" smooth="yes"/>
      <point x="211" y="199"/>
      <point x="171" y="216"/>
      <point x="171" y="269" type="curve" smooth="yes"/>
      <point x="171" y="313"/>
      <point x="207" y="339"/>
      <point x="270" y="339" type="curve" smooth="yes"/>
      <point x="295" y="339"/>
      <point x="321" y="336"/>
      <point x="341" y="331" type="curve"/>
      <point x="351" y="442" type="line"/>
      <point x="330" y="448"/>
      <point x="287" y="451"/>
      <point x="250" y="451" type="curve" smooth="yes"/>
      <point x="124" y="451"/>
      <point x="37" y="380"/>
      <point x="37" y="269" type="curve" smooth="yes"/>
      <point x="37" y="149"/>
      <point x="127" y="88"/>
      <point x="237" y="88" type="curve" smooth="yes"/>
      <point x="312" y="88"/>
      <point x="358" y="110"/>
      <point x="417" y="149" type="curve"/>
      <point x="381" y="187" type="line"/>
      <point x="381" y="0" type="line"/>
      <point x="515" y="0" type="line"/>
      <point x="515" y="260" type="line"/>
      <point x="509" y="241" type="line"/>
      <point x="530" y="264"/>
      <point x="563" y="291"/>
      <point x="597" y="291" type="curve" smooth="yes"/>
      <point x="630" y="291"/>
      <point x="653" y="273"/>
      <point x="653" y="224" type="curve" smooth="yes"/>
      <point x="653" y="177"/>
      <point x="630" y="133"/>
      <point x="600" y="92" type="curve"/>
      <point x="717" y="27" type="line"/>
      <point x="766" y="101"/>
      <point x="787" y="176"/>
      <point x="787" y="235" type="curve" smooth="yes"/>
      <point x="787" y="339"/>
      <point x="720" y="401"/>
      <point x="625" y="401" type="curve" smooth="yes"/>
      <point x="579" y="401"/>
      <point x="542" y="390"/>
      <point x="509" y="369" type="curve"/>
      <point x="515" y="337" type="line"/>
      <point x="515" y="512" type="line"/>
    </contour>
  </outline>
</glyph>
<glyph name="khadeva" format="2">
  <advance width="896"/>
  <unicode hex="0916"/>
  <outline>
    <contour>
      <point x="305" y="512" type="line"/>
      <point x="483" y="512" type="line"/>
      <point x="483" y="622" type="line"/>
      <point x="0" y="622" type="line"/>
      <point x="0" y="512" type="line"/>
      <point x="258" y="512" type="line"/>
      <point x="184" y="553" type="line"/>
      <point x="197" y="536"/>
      <point x="209" y="497"/>
      <point x="209" y="458" type="curve" smooth="yes"/>
      <point x="209" y="414"/>
      <point x="197" y="371"/>
      <point x="164" y="338" type="curve"/>
      <point x="234" y="311" type="line"/>
      <point x="200" y="373"/>
      <point x="164" y="402"/>
      <point x="110" y="402" type="curve" smooth="yes"/>
      <point x="51" y="402"/>
      <point x="31" y="361"/>
      <point x="31" y="327" type="curve" smooth="yes"/>
      <point x="31" y="304"/>
      <point x="38" y="275"/>
      <point x="69" y="233" type="curve" smooth="yes"/>
      <point x="138" y="143"/>
      <point x="280" y="2"/>
      <point x="492" y="2" type="curve" smooth="yes"/>
      <point x="577" y="2"/>
      <point x="655" y="21"/>
      <point x="715" y="59" type="curve"/>
      <point x="686" y="158" type="line"/>
      <point x="641" y="135"/>
      <point x="585" y="113"/>
      <point x="492" y="113" type="curve" smooth="yes"/>
      <point x="360" y="113"/>
      <point x="275" y="178"/>
      <point x="212" y="248" type="curve"/>
      <point x="201" y="239" type="line"/>
      <point x="280" y="275"/>
      <point x="343" y="331"/>
      <point x="343" y="437" type="curve" smooth="yes"/>
      <point x="343" y="495"/>
      <point x="331" y="525"/>
      <point x="317" y="551" type="curve"/>
    </contour>
    <contour>
      <point x="816" y="512" type="line"/>
      <point x="910" y="512" type="line"/>
      <point x="910" y="622" type="line"/>
      <point x="451" y="622" type="line"/>
      <point x="451" y="512" type="line"/>
      <point x="682" y="512" type="line"/>
      <point x="682" y="0" type="line"/>
      <point x="816" y="0" type="line"/>
    </contour>
    <contour>
      <point x="707" y="217" type="curve"/>
      <point x="708" y="335" type="line"/>
      <point x="669" y="296"/>
      <point x="630" y="269"/>
      <point x="571" y="269" type="curve" smooth="yes"/>
      <point x="534" y="269"/>
      <point x="505" y="285"/>
      <point x="505" y="323" type="curve" smooth="yes"/>
      <point x="505" y="357"/>
      <point x="530" y="377"/>
      <point x="579" y="377" type="curve" smooth="yes"/>
      <point x="604" y="377"/>
      <point x="625" y="374"/>
      <point x="641" y="370" type="curve"/>
      <point x="651" y="467" type="line"/>
      <point x="625" y="473"/>
      <point x="584" y="475"/>
      <point x="561" y="475" type="curve" smooth="yes"/>
      <point x="447" y="475"/>
      <point x="378" y="415"/>
      <point x="378" y="320" type="curve" smooth="yes"/>
      <point x="378" y="224"/>
      <point x="448" y="170"/>
      <point x="550" y="170" type="curve" smooth="yes"/>
      <point x="624" y="170"/>
      <point x="669" y="189"/>
    </contour>
  </outline>
</glyph>
<glyph name="ngadeva" format="2">
  <advance width="695"/>
  <unicode hex="0919"/>
  <outline>
    <contour>
      <point x="374" y="200" type="curve" smooth="yes"/>
      <point x="428" y="200"/>
      <point x="446" y="184"/>
      <point x="446" y="160" type="curve" smooth="yes"/>
      <point x="446" y="133"/>
      <point x="421" y="112"/>
      <point x="357" y="112" type="curve" smooth="yes"/>
      <point x="254" y="112"/>
      <point x="183" y="159"/>
      <point x="112" y="232" type="curve"/>
      <point x="14" y="155" type="line"/>
      <point x="90" y="72"/>
      <point x="203" y="0"/>
      <point x="361" y="0" type="curve" smooth="yes"/>
      <point x="511" y="0"/>
      <point x="581" y="67"/>
      <point x="581" y="154" type="curve" smooth="yes"/>
      <point x="581" y="246"/>
      <point x="514" y="304"/>
      <point x="394" y="304" type="curve" smooth="yes"/>
      <point x="351" y="304"/>
      <point x="319" y="300"/>
      <point x="291" y="292" type="curve"/>
      <point x="280" y="303"/>
      <point x="272" y="314"/>
      <point x="272" y="329" type="curve" smooth="yes"/>
      <point x="272" y="340"/>
      <point x="276" y="346"/>
      <point x="284" y="351" type="curve"/>
      <point x="291" y="355"/>
      <point x="299" y="357"/>
      <point x="321" y="357" type="curve" smooth="yes"/>
      <point x="509" y="357" type="line"/>
      <point x="509" y="512" type="line"/>
      <point x="709" y="512" type="line"/>
      <point x="709" y="622" type="line"/>
      <point x="0" y="622" type="line"/>
      <point x="0" y="512" type="line"/>
      <point x="375" y="512" type="line"/>
      <point x="375" y="456" type="line"/>
      <point x="331" y="456" type="line" smooth="yes"/>
      <point x="247" y="456"/>
      <point x="211" y="446"/>
      <point x="179" y="421" type="curve" smooth="yes"/>
      <point x="156" y="402"/>
      <point x="141" y="374"/>
      <point x="141" y="333" type="curve" smooth="yes"/>
      <point x="141" y="266"/>
      <point x="202" y="203"/>
      <point x="261" y="177" type="curve"/>
      <point x="298" y="193"/>
      <point x="339" y="200"/>
    </contour>
    <contour>
      <point x="541" y="340" type="curve" smooth="yes"/>
      <point x="541" y="300"/>
      <point x="570" y="271"/>
      <point x="609" y="271" type="curve" smooth="yes"/>
      <point x="648" y="271"/>
      <point x="677" y="300"/>
      <point x="677" y="340" type="curve" smooth="yes"/>
      <point x="677" y="379"/>
      <point x="648" y="409"/>
      <point x="609" y="409" type="curve" smooth="yes"/>
      <point x="570" y="409"/>
      <point x="541" y="379"/>
    </contour>
  </outline>
</glyph>
<glyph name="cadeva" format="2">
  <advance width="690"/>
  <unicode hex="091A"/>
  <outline>
    <contour>
      <point x="705" y="512" type="line"/>
      <point x="705" y="622" type="line"/>
      <point x="0" y="622" type="line"/>
      <point x="0" y="512" type="line"/>
      <point x="476" y="512" type="line"/>
      <point x="476" y="248" type="line"/>
      <point x="488" y="281" type="line"/>
      <point x="448" y="230"/>
      <point x="409" y="201"/>
      <point x="341" y="201" type="curve" smooth="yes"/>
      <point x="296" y="201"/>
      <point x="270" y="226"/>
      <point x="270" y="262" type="curve" smooth="yes"/>
      <point x="270" y="304"/>
      <point x="296" y="331"/>
      <point x="372" y="331" type="curve" smooth="yes"/>
      <point x="394" y="331" type="line"/>
      <point x="404" y="439" type="line"/>
      <point x="398" y="440"/>
      <point x="371" y="441"/>
      <point x="346" y="441" type="curve" smooth="yes"/>
      <point x="37" y="441" type="line"/>
      <point x="37" y="330" type="line"/>
      <point x="171" y="333" type="line"/>
      <point x="147" y="311"/>
      <point x="135" y="279"/>
      <point x="135" y="241" type="curve" smooth="yes"/>
      <point x="135" y="152"/>
      <point x="212" y="91"/>
      <point x="333" y="91" type="curve" smooth="yes"/>
      <point x="397" y="91"/>
      <point x="441" y="106"/>
      <point x="490" y="135" type="curve"/>
      <point x="476" y="180" type="line"/>
      <point x="476" y="0" type="line"/>
      <point x="610" y="0" type="line"/>
      <point x="610" y="512" type="line"/>
    </contour>
  </outline>
</glyph>
<glyph name="chadeva" format="2">
  <advance width="760"/>
  <unicode hex="091B"/>
  <outline>
    <contour>
      <point x="604" y="512" type="line"/>
      <point x="774" y="512" type="line"/>
      <point x="774" y="622" type="line"/>
      <point x="0" y="622" type="line"/>
      <point x="0" y="512" type="line"/>
      <point x="470" y="512" type="line"/>
      <point x="470" y="416" type="line"/>
      <point x="604" y="416" type="line"/>
    </contour>
    <contour>
      <point x="335" y="111" type="curve" smooth="yes"/>
      <point x="261" y="111"/>
      <point x="221" y="126"/>
      <point x="221" y="160" type="curve" smooth="yes"/>
      <point x="221" y="186"/>
      <point x="240" y="199"/>
      <point x="285" y="199" type="curve" smooth="yes"/>
      <point x="298" y="199"/>
      <point x="308" y="198"/>
      <point x="315" y="197" type="curve"/>
      <point x="326" y="298" type="line"/>
      <point x="316" y="300"/>
      <point x="295" y="302"/>
      <point x="278" y="302" type="curve" smooth="yes"/>
      <point x="234" y="302"/>
      <point x="192" y="293"/>
      <point x="160" y="272" type="curve" smooth="yes"/>
      <point x="156" y="270"/>
      <point x="154" y="263"/>
      <point x="150" y="259" type="curve"/>
      <point x="109" y="232"/>
      <point x="92" y="190"/>
      <point x="92" y="152" type="curve" smooth="yes"/>
      <point x="92" y="63"/>
      <point x="167" y="0"/>
      <point x="331" y="0" type="curve" smooth="yes"/>
      <point x="595" y="0"/>
      <point x="723" y="147"/>
      <point x="723" y="284" type="curve" smooth="yes"/>
      <point x="723" y="410"/>
      <point x="640" y="469"/>
      <point x="521" y="469" type="curve" smooth="yes"/>
      <point x="416" y="469"/>
      <point x="361" y="417"/>
      <point x="361" y="340" type="curve" smooth="yes"/>
      <point x="361" y="272"/>
      <point x="409" y="219"/>
      <point x="513" y="186" type="curve"/>
      <point x="563" y="275" type="line"/>
      <point x="507" y="291"/>
      <point x="485" y="312"/>
      <point x="485" y="341" type="curve" smooth="yes"/>
      <point x="485" y="360"/>
      <point x="500" y="375"/>
      <point x="526" y="375" type="curve" smooth="yes"/>
      <point x="573" y="375"/>
      <point x="589" y="336"/>
      <point x="589" y="292" type="curve" smooth="yes"/>
      <point x="589" y="188"/>
      <point x="483" y="111"/>
    </contour>
    <contour>
      <point x="214" y="189" type="curve"/>
      <point x="238" y="291" type="line"/>
      <point x="198" y="296"/>
      <point x="168" y="311"/>
      <point x="168" y="335" type="curve" smooth="yes"/>
      <point x="168" y="359"/>
      <point x="188" y="371"/>
      <point x="228" y="371" type="curve" smooth="yes"/>
      <point x="256" y="371"/>
      <point x="280" y="367"/>
      <point x="299" y="361" type="curve"/>
      <point x="309" y="465" type="line"/>
      <point x="285" y="471"/>
      <point x="240" y="474"/>
      <point x="214" y="474" type="curve" smooth="yes"/>
      <point x="100" y="474"/>
      <point x="34" y="425"/>
      <point x="34" y="345" type="curve" smooth="yes"/>
      <point x="34" y="264"/>
      <point x="104" y="211"/>
    </contour>
  </outline>
</glyph>
<glyph name="nyadeva" format="2">
  <advance width="829"/>
  <unicode hex="091E"/>
  <outline>
    <contour>
      <point x="749" y="512" type="line"/>
      <point x="843" y="512" type="line"/>
      <point x="843" y="622" type="line"/>
      <point x="0" y="622" type="line"/>
      <point x="0" y="512" type="line"/>
      <point x="615" y="512" type="line"/>
      <point x="615" y="0" type="line"/>
      <point x="749" y="0" type="line"/>
    </contour>
    <contour>
      <point x="709" y="271" type="curve"/>
      <point x="709" y="399" type="line"/>
      <point x="673" y="361"/>
      <point x="631" y="324"/>
      <point x="555" y="324" type="curve" smooth="yes"/>
      <point x="531" y="324"/>
      <point x="513" y="328"/>
      <point x="499" y="334" type="curve"/>
      <point x="511" y="229" type="line"/>
      <point x="525" y="227"/>
      <point x="530" y="226"/>
      <point x="547" y="226" type="curve" smooth="yes"/>
      <point x="617" y="226"/>
      <point x="667" y="243"/>
    </contour>
    <contour>
      <point x="211" y="420" type="curve"/>
      <point x="251" y="316" type="line"/>
      <point x="282" y="330"/>
      <point x="304" y="336"/>
      <point x="336" y="336" type="curve" smooth="yes"/>
      <point x="380" y="336"/>
      <point x="412" y="316"/>
      <point x="412" y="271" type="curve" smooth="yes"/>
      <point x="412" y="229"/>
      <point x="384" y="202"/>
      <point x="321" y="202" type="curve" smooth="yes"/>
      <point x="247" y="202"/>
      <point x="183" y="258"/>
      <point x="133" y="367" type="curve"/>
      <point x="20" y="319" type="line"/>
      <point x="99" y="151"/>
      <point x="208" y="89"/>
      <point x="330" y="89" type="curve" smooth="yes"/>
      <point x="421" y="89"/>
      <point x="542" y="126"/>
      <point x="542" y="272" type="curve" smooth="yes"/>
      <point x="542" y="383"/>
      <point x="461" y="449"/>
      <point x="343" y="449" type="curve" smooth="yes"/>
      <point x="302" y="449"/>
      <point x="259" y="442"/>
    </contour>
  </outline>
</glyph>
<glyph name="ttadeva" format="2">
  <advance width="541"/>
  <unicode hex="091F"/>
  <outline>
    <contour>
      <point x="555" y="512" type="line"/>
      <point x="555" y="622" type="line"/>
      <point x="0" y="622" type="line"/>
      <point x="0" y="512" type="line"/>
      <point x="280" y="512" type="line"/>
      <point x="280" y="430" type="line"/>
      <point x="304" y="435" type="line"/>
      <point x="297" y="435" type="line"/>
      <point x="150" y="435"/>
      <point x="36" y="362"/>
      <point x="36" y="227" type="curve" smooth="yes"/>
      <point x="36" y="83"/>
      <point x="148" y="0"/>
      <point x="305" y="0" type="curve" smooth="yes"/>
      <point x="399" y="0"/>
      <point x="460" y="20"/>
      <point x="523" y="49" type="curve"/>
      <point x="481" y="161" type="line"/>
      <point x="427" y="130"/>
      <point x="374" y="114"/>
      <point x="308" y="114" type="curve" smooth="yes"/>
      <point x="229" y="114"/>
      <point x="170" y="145"/>
      <point x="170" y="221" type="curve" smooth="yes"/>
      <point x="170" y="257"/>
      <point x="184" y="284"/>
      <point x="217" y="303" type="curve" smooth="yes"/>
      <point x="243" y="318"/>
      <point x="275" y="327"/>
      <point x="346" y="327" type="curve" smooth="yes"/>
      <point x="414" y="327" type="line"/>
      <point x="414" y="512" type="line"/>
    </contour>
  </outline>
</glyph>
<glyph name="tthadeva" format="2">
  <advance width="618"/>
  <unicode hex="0920"/>
  <outline>
    <contour>
      <point x="632" y="512" type="line"/>
      <point x="632" y="622" type="line"/>
      <point x="0" y="622" type="line"/>
      <point x="0" y="512" type="line"/>
      <point x="280" y="512" type="line"/>
      <point x="280" y="414" type="line"/>
      <point x="315" y="435" type="line"/>
      <point x="301" y="435" type="line"/>
      <point x="149" y="435"/>
      <point x="36" y="363"/>
      <point x="36" y="226" type="curve" smooth="yes"/>
      <point x="36" y="75"/>
      <point x="150" y="0"/>
      <point x="315" y="0" type="curve" smooth="yes"/>
      <point x="459" y="0"/>
      <point x="582" y="57"/>
      <point x="582" y="201" type="curve" smooth="yes"/>
      <point x="582" y="296"/>
      <point x="524" y="384"/>
      <point x="414" y="425" type="curve"/>
      <point x="414" y="512" type="line"/>
    </contour>
    <contour>
      <point x="310" y="112" type="curve" smooth="yes"/>
      <point x="229" y="112"/>
      <point x="170" y="146"/>
      <point x="170" y="220" type="curve" smooth="yes"/>
      <point x="170" y="257"/>
      <point x="184" y="284"/>
      <point x="217" y="303" type="curve" smooth="yes"/>
      <point x="243" y="318"/>
      <point x="275" y="327"/>
      <point x="346" y="327" type="curve" smooth="yes"/>
      <point x="351" y="327" type="line"/>
      <point x="416" y="302"/>
      <point x="448" y="260"/>
      <point x="448" y="210" type="curve" smooth="yes"/>
      <point x="448" y="141"/>
      <point x="391" y="112"/>
    </contour>
  </outline>
</glyph>
<glyph name="ddadeva" format="2">
  <advance width="618"/>
  <unicode hex="0921"/>
  <outline>
    <contour>
      <point x="374" y="200" type="curve" smooth="yes"/>
      <point x="428" y="200"/>
      <point x="446" y="184"/>
      <point x="446" y="160" type="curve" smooth="yes"/>
      <point x="446" y="133"/>
      <point x="421" y="112"/>
      <point x="357" y="112" type="curve" smooth="yes"/>
      <point x="254" y="112"/>
      <point x="183" y="159"/>
      <point x="112" y="232" type="curve"/>
      <point x="14" y="155" type="line"/>
      <point x="90" y="72"/>
      <point x="203" y="0"/>
      <point x="361" y="0" type="curve" smooth="yes"/>
      <point x="511" y="0"/>
      <point x="581" y="67"/>
      <point x="581" y="154" type="curve" smooth="yes"/>
      <point x="581" y="246"/>
      <point x="514" y="304"/>
      <point x="394" y="304" type="curve" smooth="yes"/>
      <point x="351" y="304"/>
      <point x="319" y="300"/>
      <point x="291" y="292" type="curve"/>
      <point x="280" y="303"/>
      <point x="272" y="314"/>
      <point x="272" y="329" type="curve" smooth="yes"/>
      <point x="272" y="340"/>
      <point x="276" y="346"/>
      <point x="284" y="351" type="curve"/>
      <point x="291" y="355"/>
      <point x="299" y="357"/>
      <point x="321" y="357" type="curve" smooth="yes"/>
      <point x="529" y="357" type="line"/>
      <point x="529" y="512" type="line"/>
      <point x="632" y="512" type="line"/>
      <point x="632" y="622" type="line"/>
      <point x="0" y="622" type="line"/>
      <point x="0" y="512" type="line"/>
      <point x="395" y="512" type="line"/>
      <point x="395" y="456" type="line"/>
      <point x="331" y="456" type="line" smooth="yes"/>
      <point x="247" y="456"/>
      <point x="211" y="446"/>
      <point x="179" y="421" type="curve" smooth="yes"/>
      <point x="156" y="402"/>
      <point x="141" y="374"/>
      <point x="141" y="333" type="curve" smooth="yes"/>
      <point x="141" y="266"/>
      <point x="202" y="203"/>
      <point x="261" y="177" type="curve"/>
      <point x="298" y="193"/>
      <point x="339" y="200"/>
    </contour>
  </outline>
</glyph>
<glyph name="ddhadeva" format="2">
  <advance width="602"/>
  <unicode hex="0922"/>
  <outline>
    <contour>
      <point x="329" y="0" type="curve" smooth="yes"/>
      <point x="486" y="0"/>
      <point x="577" y="66"/>
      <point x="577" y="162" type="curve" smooth="yes"/>
      <point x="577" y="233"/>
      <point x="527" y="298"/>
      <point x="415" y="298" type="curve" smooth="yes"/>
      <point x="297" y="298"/>
      <point x="243" y="239"/>
      <point x="243" y="162" type="curve" smooth="yes"/>
      <point x="243" y="105"/>
      <point x="264" y="64"/>
      <point x="293" y="22" type="curve"/>
      <point x="400" y="40" type="line"/>
      <point x="375" y="72"/>
      <point x="357" y="107"/>
      <point x="357" y="147" type="curve" smooth="yes"/>
      <point x="357" y="176"/>
      <point x="374" y="203"/>
      <point x="412" y="203" type="curve" smooth="yes"/>
      <point x="438" y="203"/>
      <point x="455" y="188"/>
      <point x="455" y="161" type="curve" smooth="yes"/>
      <point x="455" y="124"/>
      <point x="422" y="106"/>
      <point x="344" y="106" type="curve" smooth="yes"/>
      <point x="334" y="106"/>
      <point x="312" y="105"/>
      <point x="303" y="106" type="curve"/>
      <point x="216" y="112"/>
      <point x="170" y="158"/>
      <point x="170" y="225" type="curve" smooth="yes"/>
      <point x="170" y="267"/>
      <point x="186" y="292"/>
      <point x="216" y="312" type="curve" smooth="yes"/>
      <point x="240" y="328"/>
      <point x="280" y="341"/>
      <point x="358" y="341" type="curve" smooth="yes"/>
      <point x="439" y="341" type="line"/>
      <point x="439" y="512" type="line"/>
      <point x="616" y="512" type="line"/>
      <point x="616" y="622" type="line"/>
      <point x="0" y="622" type="line"/>
      <point x="0" y="512" type="line"/>
      <point x="305" y="512" type="line"/>
      <point x="305" y="420" type="line"/>
      <point x="332" y="451" type="line"/>
      <point x="322" y="451" type="line"/>
      <point x="155" y="449"/>
      <point x="37" y="375"/>
      <point x="37" y="233" type="curve" smooth="yes"/>
      <point x="37" y="86"/>
      <point x="154" y="0"/>
    </contour>
  </outline>
</glyph>
<glyph name="nnadeva" format="2">
  <advance width="798"/>
  <unicode hex="0923"/>
  <outline>
    <contour>
      <point x="718" y="512" type="line"/>
      <point x="812" y="512" type="line"/>
      <point x="812" y="622" type="line"/>
      <point x="0" y="622" type="line"/>
      <point x="0" y="512" type="line"/>
      <point x="68" y="512" type="line"/>
      <point x="68" y="346" type="line" smooth="yes"/>
      <point x="68" y="257"/>
      <point x="83" y="214"/>
      <point x="109" y="180" type="curve" smooth="yes"/>
      <point x="143" y="138"/>
      <point x="197" y="117"/>
      <point x="271" y="117" type="curve" smooth="yes"/>
      <point x="345" y="117"/>
      <point x="398" y="137"/>
      <point x="431" y="173" type="curve" smooth="yes"/>
      <point x="459" y="205"/>
      <point x="473" y="241"/>
      <point x="473" y="315" type="curve" smooth="yes"/>
      <point x="473" y="512" type="line"/>
      <point x="584" y="512" type="line"/>
      <point x="584" y="0" type="line"/>
      <point x="718" y="0" type="line"/>
    </contour>
    <contour>
      <point x="270" y="227" type="curve" smooth="yes"/>
      <point x="243" y="227"/>
      <point x="226" y="236"/>
      <point x="215" y="254" type="curve" smooth="yes"/>
      <point x="206" y="271"/>
      <point x="202" y="286"/>
      <point x="202" y="333" type="curve" smooth="yes"/>
      <point x="202" y="512" type="line"/>
      <point x="339" y="512" type="line"/>
      <point x="339" y="333" type="line" smooth="yes"/>
      <point x="339" y="284"/>
      <point x="336" y="269"/>
      <point x="325" y="251" type="curve" smooth="yes"/>
      <point x="314" y="234"/>
      <point x="296" y="227"/>
    </contour>
  </outline>
</glyph>
<glyph name="thadeva" format="2">
  <advance width="718"/>
  <unicode hex="0925"/>
  <outline>
    <contour>
      <point x="504" y="203" type="line"/>
      <point x="504" y="0" type="line"/>
      <point x="638" y="0" type="line"/>
      <point x="638" y="512" type="line"/>
      <point x="732" y="512" type="line"/>
      <point x="732" y="622" type="line"/>
      <point x="441" y="622" type="line"/>
      <point x="441" y="512" type="line"/>
      <point x="504" y="512" type="line"/>
      <point x="504" y="242" type="line"/>
      <point x="505" y="289" type="line"/>
      <point x="461" y="240"/>
      <point x="413" y="216"/>
      <point x="348" y="216" type="curve" smooth="yes"/>
      <point x="293" y="216"/>
      <point x="256" y="244"/>
      <point x="232" y="297" type="curve"/>
      <point x="222" y="251" type="line"/>
      <point x="355" y="294"/>
      <point x="393" y="371"/>
      <point x="393" y="455" type="curve" smooth="yes"/>
      <point x="393" y="571"/>
      <point x="310" y="632"/>
      <point x="197" y="632" type="curve" smooth="yes"/>
      <point x="112" y="632"/>
      <point x="42" y="595"/>
      <point x="42" y="512" type="curve" smooth="yes"/>
      <point x="42" y="437"/>
      <point x="94" y="386"/>
      <point x="184" y="374" type="curve"/>
      <point x="212" y="461" type="line"/>
      <point x="161" y="469"/>
      <point x="148" y="482"/>
      <point x="148" y="506" type="curve" smooth="yes"/>
      <point x="148" y="526"/>
      <point x="163" y="541"/>
      <point x="190" y="541" type="curve" smooth="yes"/>
      <point x="237" y="541"/>
      <point x="259" y="508"/>
      <point x="259" y="462" type="curve" smooth="yes"/>
      <point x="259" y="395"/>
      <point x="217" y="349"/>
      <point x="93" y="322" type="curve"/>
      <point x="129" y="181"/>
      <point x="210" y="106"/>
      <point x="338" y="106" type="curve" smooth="yes"/>
      <point x="399" y="106"/>
      <point x="464" y="117"/>
      <point x="509" y="150" type="curve"/>
    </contour>
  </outline>
</glyph>
<glyph name="dhadeva" format="2">
  <advance width="687"/>
  <unicode hex="0927"/>
  <outline>
    <contour>
      <point x="701" y="512" type="line"/>
      <point x="701" y="622" type="line"/>
      <point x="417" y="622" type="line"/>
      <point x="417" y="512" type="line"/>
      <point x="473" y="512" type="line"/>
      <point x="473" y="208" type="line"/>
      <point x="477" y="274" type="line"/>
      <point x="445" y="235"/>
      <point x="397" y="196"/>
      <point x="327" y="196" type="curve" smooth="yes"/>
      <point x="285" y="196"/>
      <point x="252" y="211"/>
      <point x="252" y="247" type="curve" smooth="yes"/>
      <point x="252" y="280"/>
      <point x="280" y="299"/>
      <point x="333" y="299" type="curve" smooth="yes"/>
      <point x="343" y="299"/>
      <point x="353" y="298"/>
      <point x="360" y="297" type="curve"/>
      <point x="366" y="400" type="line"/>
      <point x="356" y="402"/>
      <point x="334" y="404"/>
      <point x="316" y="404" type="curve" smooth="yes"/>
      <point x="269" y="404"/>
      <point x="225" y="395"/>
      <point x="191" y="374" type="curve" smooth="yes"/>
      <point x="186" y="371"/>
      <point x="184" y="363"/>
      <point x="179" y="360" type="curve" smooth="yes"/>
      <point x="136" y="331"/>
      <point x="118" y="287"/>
      <point x="118" y="242" type="curve" smooth="yes"/>
      <point x="118" y="147"/>
      <point x="192" y="85"/>
      <point x="317" y="85" type="curve" smooth="yes"/>
      <point x="390" y="85"/>
      <point x="430" y="101"/>
      <point x="483" y="132" type="curve"/>
      <point x="473" y="162" type="line"/>
      <point x="473" y="0" type="line"/>
      <point x="607" y="0" type="line"/>
      <point x="607" y="512" type="line"/>
    </contour>
    <contour>
      <point x="250" y="297" type="curve"/>
      <point x="263" y="396" type="line"/>
      <point x="214" y="399"/>
      <point x="158" y="427"/>
      <point x="158" y="483" type="curve" smooth="yes"/>
      <point x="158" y="518"/>
      <point x="182" y="536"/>
      <point x="213" y="536" type="curve" smooth="yes"/>
      <point x="234" y="536"/>
      <point x="251" y="526"/>
      <point x="251" y="502" type="curve" smooth="yes"/>
      <point x="251" y="491"/>
      <point x="246" y="480"/>
      <point x="237" y="472" type="curve"/>
      <point x="313" y="424" type="line"/>
      <point x="343" y="450"/>
      <point x="356" y="485"/>
      <point x="356" y="521" type="curve" smooth="yes"/>
      <point x="356" y="583"/>
      <point x="301" y="632"/>
      <point x="208" y="632" type="curve" smooth="yes"/>
      <point x="113" y="632"/>
      <point x="42" y="572"/>
      <point x="42" y="486" type="curve" smooth="yes"/>
      <point x="42" y="372"/>
      <point x="144" y="306"/>
    </contour>
  </outline>
</glyph>
<glyph name="nadeva" format="2">
  <advance width="618"/>
  <unicode hex="0928"/>
  <outline>
    <contour>
      <point x="0" y="622" type="line"/>
      <point x="0" y="512" type="line"/>
      <point x="404" y="512" type="line"/>
      <point x="404" y="375" type="line"/>
      <point x="102" y="375" type="line" smooth="yes"/>
      <point x="43" y="375"/>
      <point x="31" y="343"/>
      <point x="31" y="309" type="curve" smooth="yes"/>
      <point x="31" y="247"/>
      <point x="118" y="164"/>
      <point x="180" y="164" type="curve" smooth="yes"/>
      <point x="222" y="164"/>
      <point x="246" y="186"/>
      <point x="246" y="239" type="curve" smooth="yes"/>
      <point x="246" y="265" type="line"/>
      <point x="404" y="265" type="line"/>
      <point x="404" y="0" type="line"/>
      <point x="538" y="0" type="line"/>
      <point x="538" y="512" type="line"/>
      <point x="632" y="512" type="line"/>
      <point x="632" y="622" type="line"/>
    </contour>
  </outline>
</glyph>
<glyph name="padeva" format="2">
  <advance width="613"/>
  <unicode hex="092A"/>
  <outline>
    <contour>
      <point x="533" y="512" type="line"/>
      <point x="627" y="512" type="line"/>
      <point x="627" y="622" type="line"/>
      <point x="0" y="622" type="line"/>
      <point x="0" y="512" type="line"/>
      <point x="68" y="512" type="line"/>
      <point x="68" y="345" type="line" smooth="yes"/>
      <point x="68" y="256"/>
      <point x="83" y="214"/>
      <point x="117" y="177" type="curve" smooth="yes"/>
      <point x="145" y="147"/>
      <point x="190" y="127"/>
      <point x="252" y="127" type="curve" smooth="yes"/>
      <point x="329" y="127"/>
      <point x="371" y="140"/>
      <point x="438" y="183" type="curve"/>
      <point x="399" y="220" type="line"/>
      <point x="399" y="0" type="line"/>
      <point x="533" y="0" type="line"/>
    </contour>
    <contour>
      <point x="399" y="512" type="line"/>
      <point x="399" y="232" type="line"/>
      <point x="414" y="311" type="line"/>
      <point x="401" y="289"/>
      <point x="345" y="237"/>
      <point x="280" y="237" type="curve" smooth="yes"/>
      <point x="255" y="237"/>
      <point x="237" y="242"/>
      <point x="225" y="254" type="curve" smooth="yes"/>
      <point x="208" y="272"/>
      <point x="202" y="291"/>
      <point x="202" y="353" type="curve" smooth="yes"/>
      <point x="202" y="512" type="line"/>
    </contour>
  </outline>
</glyph>
<glyph name="phadeva" format="2">
  <advance width="821"/>
  <unicode hex="092B"/>
  <outline>
    <contour>
      <point x="514" y="512" type="line"/>
      <point x="835" y="512" type="line"/>
      <point x="835" y="622" type="line"/>
      <point x="0" y="622" type="line"/>
      <point x="0" y="512" type="line"/>
      <point x="68" y="512" type="line"/>
      <point x="68" y="345" type="line" smooth="yes"/>
      <point x="68" y="256"/>
      <point x="83" y="214"/>
      <point x="117" y="177" type="curve" smooth="yes"/>
      <point x="145" y="147"/>
      <point x="190" y="127"/>
      <point x="252" y="127" type="curve" smooth="yes"/>
      <point x="318" y="127"/>
      <point x="366" y="141"/>
      <point x="413" y="181" type="curve"/>
      <point x="380" y="217" type="line"/>
      <point x="380" y="0" type="line"/>
      <point x="514" y="0" type="line"/>
      <point x="514" y="308" type="line"/>
      <point x="493" y="223" type="line"/>
      <point x="509" y="246"/>
      <point x="552" y="291"/>
      <point x="595" y="291" type="curve" smooth="yes"/>
      <point x="628" y="291"/>
      <point x="651" y="273"/>
      <point x="651" y="224" type="curve" smooth="yes"/>
      <point x="651" y="177"/>
      <point x="628" y="133"/>
      <point x="598" y="92" type="curve"/>
      <point x="715" y="27" type="line"/>
      <point x="764" y="101"/>
      <point x="785" y="176"/>
      <point x="785" y="235" type="curve" smooth="yes"/>
      <point x="785" y="339"/>
      <point x="718" y="401"/>
      <point x="623" y="401" type="curve" smooth="yes"/>
      <point x="565" y="401"/>
      <point x="521" y="383"/>
      <point x="482" y="351" type="curve"/>
      <point x="514" y="313" type="line"/>
    </contour>
    <contour>
      <point x="202" y="512" type="line"/>
      <point x="380" y="512" type="line"/>
      <point x="380" y="220" type="line"/>
      <point x="404" y="305" type="line"/>
      <point x="378" y="274"/>
      <point x="337" y="237"/>
      <point x="280" y="237" type="curve" smooth="yes"/>
      <point x="255" y="237"/>
      <point x="237" y="242"/>
      <point x="225" y="254" type="curve" smooth="yes"/>
      <point x="208" y="272"/>
      <point x="202" y="291"/>
      <point x="202" y="353" type="curve" smooth="yes"/>
    </contour>
  </outline>
</glyph>
<glyph name="badeva" format="2">
  <advance width="620"/>
  <unicode hex="092C"/>
  <outline>
    <contour>
      <point x="634" y="512" type="line"/>
      <point x="634" y="622" type="line"/>
      <point x="0" y="622" type="line"/>
      <point x="0" y="512" type="line"/>
      <point x="406" y="512" type="line"/>
      <point x="406" y="203" type="line"/>
      <point x="434" y="294" type="line"/>
      <point x="386" y="239"/>
      <point x="337" y="194"/>
      <point x="259" y="194" type="curve" smooth="yes"/>
      <point x="206" y="194"/>
      <point x="167" y="212"/>
      <point x="167" y="269" type="curve" smooth="yes"/>
      <point x="167" y="316"/>
      <point x="200" y="344"/>
      <point x="283" y="344" type="curve" smooth="yes"/>
      <point x="313" y="344"/>
      <point x="342" y="341"/>
      <point x="365" y="336" type="curve"/>
      <point x="375" y="443" type="line"/>
      <point x="353" y="448"/>
      <point x="307" y="451"/>
      <point x="252" y="451" type="curve" smooth="yes"/>
      <point x="125" y="451"/>
      <point x="37" y="380"/>
      <point x="37" y="269" type="curve" smooth="yes"/>
      <point x="37" y="149"/>
      <point x="130" y="88"/>
      <point x="242" y="88" type="curve" smooth="yes"/>
      <point x="332" y="88"/>
      <point x="378" y="106"/>
      <point x="440" y="145" type="curve"/>
      <point x="406" y="185" type="line"/>
      <point x="406" y="0" type="line"/>
      <point x="540" y="0" type="line"/>
      <point x="540" y="512" type="line"/>
    </contour>
    <contour>
      <point x="221" y="405" type="line"/>
      <point x="149" y="382" type="line"/>
      <point x="337" y="147" type="line"/>
      <point x="393" y="190" type="line"/>
    </contour>
  </outline>
</glyph>
<glyph name="yadeva" format="2">
  <advance width="635"/>
  <unicode hex="092F"/>
  <outline>
    <contour>
      <point x="649" y="622" type="line"/>
      <point x="0" y="622" type="line"/>
      <point x="0" y="512" type="line"/>
      <point x="181" y="512" type="line"/>
      <point x="99" y="540" type="line"/>
      <point x="120" y="518"/>
      <point x="142" y="484"/>
      <point x="142" y="445" type="curve" smooth="yes"/>
      <point x="142" y="390"/>
      <point x="105" y="361"/>
      <point x="29" y="346" type="curve"/>
      <point x="53" y="208"/>
      <point x="131" y="106"/>
      <point x="267" y="106" type="curve" smooth="yes"/>
      <point x="342" y="106"/>
      <point x="401" y="126"/>
      <point x="453" y="171" type="curve"/>
      <point x="421" y="207" type="line"/>
      <point x="421" y="0" type="line"/>
      <point x="555" y="0" type="line"/>
      <point x="555" y="512" type="line"/>
      <point x="649" y="512" type="line"/>
    </contour>
    <contour>
      <point x="190" y="512" type="line"/>
      <point x="421" y="512" type="line"/>
      <point x="421" y="228" type="line"/>
      <point x="446" y="326" type="line"/>
      <point x="408" y="255"/>
      <point x="347" y="216"/>
      <point x="279" y="216" type="curve" smooth="yes"/>
      <point x="227" y="216"/>
      <point x="194" y="243"/>
      <point x="173" y="288" type="curve"/>
      <point x="240" y="314"/>
      <point x="276" y="357"/>
      <point x="276" y="419" type="curve" smooth="yes"/>
      <point x="276" y="471"/>
      <point x="256" y="506"/>
      <point x="227" y="547" type="curve"/>
    </contour>
  </outline>
</glyph>
<glyph name="radeva" format="2">
  <advance width="438"/>
  <unicode hex="0930"/>
  <outline>
    <contour>
      <point x="344" y="512" type="line"/>
      <point x="453" y="512" type="line"/>
      <point x="453" y="622" type="line"/>
      <point x="0" y="622" type="line"/>
      <point x="0" y="512" type="line"/>
      <point x="258" y="512" type="line"/>
      <point x="223" y="553" type="line"/>
      <point x="238" y="531"/>
      <point x="248" y="501"/>
      <point x="248" y="459" type="curve" smooth="yes"/>
      <point x="248" y="408"/>
      <point x="219" y="373"/>
      <point x="162" y="348" type="curve"/>
      <point x="234" y="311" type="line"/>
      <point x="200" y="373"/>
      <point x="164" y="402"/>
      <point x="110" y="402" type="curve" smooth="yes"/>
      <point x="51" y="402"/>
      <point x="31" y="361"/>
      <point x="31" y="327" type="curve" smooth="yes"/>
      <point x="31" y="304"/>
      <point x="37" y="278"/>
      <point x="67" y="238" type="curve" smooth="yes"/>
      <point x="114" y="176"/>
      <point x="213" y="83"/>
      <point x="330" y="-17" type="curve"/>
      <point x="417" y="72" type="line"/>
      <point x="338" y="131"/>
      <point x="260" y="204"/>
      <point x="208" y="257" type="curve"/>
      <point x="207" y="239" type="line"/>
      <point x="318" y="277"/>
      <point x="382" y="341"/>
      <point x="382" y="437" type="curve" smooth="yes"/>
      <point x="382" y="495"/>
      <point x="370" y="525"/>
      <point x="356" y="551" type="curve"/>
    </contour>
  </outline>
</glyph>
<glyph name="ladeva" format="2">
  <advance width="738"/>
  <unicode hex="0932"/>
  <outline>
    <contour>
      <point x="0" y="512" type="line"/>
      <point x="524" y="512" type="line"/>
      <point x="524" y="412" type="line"/>
      <point x="593" y="392" type="line"/>
      <point x="589" y="415" type="line"/>
      <point x="573" y="420"/>
      <point x="548" y="425"/>
      <point x="522" y="425" type="curve" smooth="yes"/>
      <point x="404" y="425"/>
      <point x="319" y="358"/>
      <point x="284" y="225" type="curve"/>
      <point x="409" y="187" type="line"/>
      <point x="438" y="292"/>
      <point x="488" y="317"/>
      <point x="529" y="317" type="curve" smooth="yes"/>
      <point x="544" y="317"/>
      <point x="560" y="315"/>
      <point x="580" y="304" type="curve"/>
      <point x="524" y="338" type="line"/>
      <point x="524" y="0" type="line"/>
      <point x="658" y="0" type="line"/>
      <point x="658" y="512" type="line"/>
      <point x="752" y="512" type="line"/>
      <point x="752" y="622" type="line"/>
      <point x="0" y="622" type="line"/>
    </contour>
    <contour>
      <point x="357" y="236" type="curve"/>
      <point x="392" y="360" type="line"/>
      <point x="333" y="406"/>
      <point x="284" y="426"/>
      <point x="208" y="426" type="curve" smooth="yes"/>
      <point x="130" y="426"/>
      <point x="37" y="385"/>
      <point x="37" y="265" type="curve" smooth="yes"/>
      <point x="37" y="171"/>
      <point x="99" y="95"/>
      <point x="239" y="-17" type="curve"/>
      <point x="326" y="72" type="line"/>
      <point x="211" y="161"/>
      <point x="171" y="202"/>
      <point x="171" y="255" type="curve" smooth="yes"/>
      <point x="171" y="289"/>
      <point x="195" y="313"/>
      <point x="236" y="313" type="curve" smooth="yes"/>
      <point x="288" y="313"/>
      <point x="319" y="274"/>
    </contour>
  </outline>
</glyph>
<glyph name="lladeva" format="2">
  <advance width="805"/>
  <unicode hex="0933"/>
  <outline>
    <contour>
      <point x="0" y="512" type="line"/>
      <point x="504" y="512" type="line"/>
      <point x="504" y="399" type="line"/>
      <point x="638" y="399" type="line"/>
      <point x="638" y="512" type="line"/>
      <point x="819" y="512" type="line"/>
      <point x="819" y="622" type="line"/>
      <point x="0" y="622" type="line"/>
    </contour>
    <contour>
      <point x="403" y="243" type="curve"/>
      <point x="447" y="338" type="line"/>
      <point x="384" y="410"/>
      <point x="315" y="449"/>
      <point x="228" y="449" type="curve" smooth="yes"/>
      <point x="112" y="449"/>
      <point x="37" y="376"/>
      <point x="37" y="244" type="curve" smooth="yes"/>
      <point x="37" y="107"/>
      <point x="122" y="34"/>
      <point x="234" y="34" type="curve" smooth="yes"/>
      <point x="323" y="34"/>
      <point x="399" y="52"/>
      <point x="448" y="184" type="curve" smooth="yes"/>
      <point x="462" y="222" type="line" smooth="yes"/>
      <point x="495" y="311"/>
      <point x="520" y="338"/>
      <point x="567" y="338" type="curve" smooth="yes"/>
      <point x="600" y="338"/>
      <point x="634" y="314"/>
      <point x="634" y="247" type="curve" smooth="yes"/>
      <point x="634" y="173"/>
      <point x="589" y="145"/>
      <point x="549" y="145" type="curve" smooth="yes"/>
      <point x="496" y="145"/>
      <point x="451" y="180"/>
      <point x="401" y="240" type="curve"/>
      <point x="357" y="144" type="line"/>
      <point x="421" y="73"/>
      <point x="489" y="34"/>
      <point x="577" y="34" type="curve" smooth="yes"/>
      <point x="693" y="34"/>
      <point x="768" y="106"/>
      <point x="768" y="239" type="curve" smooth="yes"/>
      <point x="768" y="376"/>
      <point x="683" y="448"/>
      <point x="570" y="448" type="curve" smooth="yes"/>
      <point x="490" y="448"/>
      <point x="408" y="438"/>
      <point x="356" y="299" type="curve" smooth="yes"/>
      <point x="343" y="263" type="line" smooth="yes"/>
      <point x="308" y="167"/>
      <point x="285" y="145"/>
      <point x="236" y="145" type="curve" smooth="yes"/>
      <point x="205" y="145"/>
      <point x="171" y="168"/>
      <point x="171" y="236" type="curve" smooth="yes"/>
      <point x="171" y="310"/>
      <point x="215" y="338"/>
      <point x="255" y="338" type="curve" smooth="yes"/>
      <point x="309" y="338"/>
      <point x="354" y="303"/>
    </contour>
  </outline>
</glyph>
<glyph name="vadeva" format="2">
  <advance width="605"/>
  <unicode hex="0935"/>
  <outline>
    <contour>
      <point x="620" y="512" type="line"/>
      <point x="620" y="622" type="line"/>
      <point x="0" y="622" type="line"/>
      <point x="0" y="512" type="line"/>
      <point x="391" y="512" type="line"/>
      <point x="391" y="201" type="line"/>
      <point x="417" y="292" type="line"/>
      <point x="377" y="239"/>
      <point x="328" y="199"/>
      <point x="254" y="199" type="curve" smooth="yes"/>
      <point x="209" y="199"/>
      <point x="171" y="216"/>
      <point x="171" y="269" type="curve" smooth="yes"/>
      <point x="171" y="313"/>
      <point x="205" y="339"/>
      <point x="275" y="339" type="curve" smooth="yes"/>
      <point x="302" y="339"/>
      <point x="330" y="336"/>
      <point x="351" y="331" type="curve"/>
      <point x="361" y="442" type="line"/>
      <point x="339" y="448"/>
      <point x="294" y="451"/>
      <point x="252" y="451" type="curve" smooth="yes"/>
      <point x="122" y="451"/>
      <point x="37" y="380"/>
      <point x="37" y="269" type="curve" smooth="yes"/>
      <point x="37" y="149"/>
      <point x="126" y="88"/>
      <point x="242" y="88" type="curve" smooth="yes"/>
      <point x="320" y="88"/>
      <point x="366" y="107"/>
      <point x="427" y="147" type="curve"/>
      <point x="391" y="185" type="line"/>
      <point x="391" y="0" type="line"/>
      <point x="525" y="0" type="line"/>
      <point x="525" y="512" type="line"/>
    </contour>
  </outline>
</glyph>
<glyph name="ssadeva" format="2">
  <advance width="625"/>
  <unicode hex="0937"/>
  <outline>
    <contour>
      <point x="640" y="622" type="line"/>
      <point x="0" y="622" type="line"/>
      <point x="0" y="512" type="line"/>
      <point x="68" y="512" type="line"/>
      <point x="68" y="345" type="line" smooth="yes"/>
      <point x="68" y="256"/>
      <point x="83" y="214"/>
      <point x="119" y="177" type="curve" smooth="yes"/>
      <point x="148" y="147"/>
      <point x="194" y="127"/>
      <point x="259" y="127" type="curve" smooth="yes"/>
      <point x="337" y="127"/>
      <point x="381" y="144"/>
      <point x="452" y="185" type="curve"/>
      <point x="411" y="223" type="line"/>
      <point x="411" y="0" type="line"/>
      <point x="545" y="0" type="line"/>
      <point x="545" y="512" type="line"/>
      <point x="640" y="512" type="line"/>
    </contour>
    <contour>
      <point x="411" y="512" type="line"/>
      <point x="411" y="292" type="line"/>
      <point x="385" y="271" type="line"/>
      <point x="358" y="253"/>
      <point x="321" y="237"/>
      <point x="282" y="237" type="curve" smooth="yes"/>
      <point x="256" y="237"/>
      <point x="236" y="242"/>
      <point x="223" y="254" type="curve"/>
      <point x="205" y="272"/>
      <point x="198" y="291"/>
      <point x="198" y="353" type="curve" smooth="yes"/>
      <point x="198" y="512" type="line"/>
    </contour>
    <contour>
      <point x="169" y="500" type="line"/>
      <point x="370" y="238" type="line"/>
      <point x="429" y="278" type="line"/>
      <point x="225" y="543" type="line"/>
    </contour>
  </outline>
</glyph>
<glyph name="hadeva" format="2">
  <advance width="570"/>
  <unicode hex="0939"/>
  <outline>
    <contour>
      <point x="122" y="194" type="curve"/>
      <point x="235" y="242" type="line"/>
      <point x="203" y="264"/>
      <point x="188" y="284"/>
      <point x="188" y="305" type="curve" smooth="yes"/>
      <point x="188" y="318"/>
      <point x="191" y="327"/>
      <point x="201" y="335" type="curve" smooth="yes"/>
      <point x="211" y="343"/>
      <point x="221" y="346"/>
      <point x="258" y="346" type="curve" smooth="yes"/>
      <point x="490" y="346" type="line"/>
      <point x="490" y="512" type="line"/>
      <point x="584" y="512" type="line"/>
      <point x="584" y="622" type="line"/>
      <point x="0" y="622" type="line"/>
      <point x="0" y="512" type="line"/>
      <point x="356" y="512" type="line"/>
      <point x="356" y="456" type="line"/>
      <point x="254" y="456" type="line" smooth="yes"/>
      <point x="173" y="456"/>
      <point x="132" y="446"/>
      <point x="99" y="419" type="curve"/>
      <point x="74" y="400"/>
      <point x="57" y="370"/>
      <point x="57" y="328" type="curve" smooth="yes"/>
      <point x="57" y="267"/>
      <point x="87" y="227"/>
    </contour>
    <contour>
      <point x="336" y="72" type="curve"/>
      <point x="372" y="-34" type="line"/>
      <point x="478" y="-9"/>
      <point x="530" y="42"/>
      <point x="530" y="126" type="curve" smooth="yes"/>
      <point x="530" y="207"/>
      <point x="465" y="283"/>
      <point x="303" y="283" type="curve" smooth="yes"/>
      <point x="170" y="283"/>
      <point x="45" y="224"/>
      <point x="45" y="100" type="curve" smooth="yes"/>
      <point x="45" y="-1"/>
      <point x="118" y="-76"/>
      <point x="232" y="-169" type="curve"/>
      <point x="319" y="-80" type="line"/>
      <point x="206" y="3"/>
      <point x="179" y="42"/>
      <point x="179" y="92" type="curve" smooth="yes"/>
      <point x="179" y="141"/>
      <point x="220" y="172"/>
      <point x="299" y="172" type="curve" smooth="yes"/>
      <point x="369" y="172"/>
      <point x="398" y="154"/>
      <point x="398" y="122" type="curve" smooth="yes"/>
      <point x="398" y="95"/>
      <point x="372" y="81"/>
    </contour>
  </outline>
</glyph>
<glyph name="nuktadeva" format="2">
  <unicode hex="093C"/>
  <outline>
    <contour>
      <point x="-356" y="-134" type="curve" smooth="yes"/>
      <point x="-356" y="-177"/>
      <point x="-324" y="-209"/>
      <point x="-282" y="-209" type="curve" smooth="yes"/>
      <point x="-240" y="-209"/>
      <point x="-209" y="-177"/>
      <point x="-209" y="-134" type="curve" smooth="yes"/>
      <point x="-209" y="-92"/>
      <point x="-240" y="-59"/>
      <point x="-282" y="-59" type="curve" smooth="yes"/>
      <point x="-324" y="-59"/>
      <point x="-356" y="-92"/>
    </contour>
  </outline>
</glyph>
<glyph name="avagrahadeva" format="2">
  <advance width="527"/>
  <unicode hex="093D"/>
  <outline>
    <contour>
      <point x="495" y="183" type="curve" smooth="yes"/>
      <point x="495" y="264"/>
      <point x="458" y="314"/>
      <point x="374" y="381" type="curve" smooth="yes"/>
      <point x="299" y="440"/>
      <point x="281" y="457"/>
      <point x="281" y="479" type="curve" smooth="yes"/>
      <point x="281" y="491"/>
      <point x="286" y="499"/>
      <point x="295" y="503" type="curve" smooth="yes"/>
      <point x="310" y="511"/>
      <point x="324" y="512"/>
      <point x="359" y="512" type="curve" smooth="yes"/>
      <point x="473" y="512" type="line"/>
      <point x="473" y="622" type="line"/>
      <point x="366" y="622" type="line" smooth="yes"/>
      <point x="268" y="622"/>
      <point x="232" y="610"/>
      <point x="201" y="590" type="curve" smooth="yes"/>
      <point x="166" y="566"/>
      <point x="147" y="532"/>
      <point x="147" y="482" type="curve" smooth="yes"/>
      <point x="147" y="424"/>
      <point x="177" y="379"/>
      <point x="273" y="301" type="curve" smooth="yes"/>
      <point x="348" y="240"/>
      <point x="360" y="220"/>
      <point x="360" y="191" type="curve" smooth="yes"/>
      <point x="360" y="159"/>
      <point x="334" y="145"/>
      <point x="303" y="145" type="curve" smooth="yes"/>
      <point x="232" y="145"/>
      <point x="189" y="196"/>
      <point x="131" y="296" type="curve"/>
      <point x="21" y="241" type="line"/>
      <point x="106" y="84"/>
      <point x="193" y="32"/>
      <point x="302" y="32" type="curve" smooth="yes"/>
      <point x="426" y="32"/>
      <point x="495" y="93"/>
    </contour>
  </outline>
</glyph>
<glyph name="aavowelsigndeva" format="2">
  <advance width="294"/>
  <unicode hex="093E"/>
  <outline>
    <contour>
      <point x="214" y="512" type="line"/>
      <point x="309" y="512" type="line"/>
      <point x="309" y="622" type="line"/>
      <point x="0" y="622" type="line"/>
      <point x="0" y="512" type="line"/>
      <point x="80" y="512" type="line"/>
      <point x="80" y="0" type="line"/>
      <point x="214" y="0" type="line"/>
    </contour>
  </outline>
</glyph>
<glyph name="iivowelsigndeva" format="2">
  <advance width="294"/>
  <unicode hex="0940"/>
  <outline>
    <contour>
      <point x="-229" y="615" type="curve"/>
      <point x="-100" y="614" type="line"/>
      <point x="-115" y="643"/>
      <point x="-127" y="675"/>
      <point x="-127" y="715" type="curve" smooth="yes"/>
      <point x="-127" y="757"/>
      <point x="-104" y="786"/>
      <point x="-56" y="786" type="curve" smooth="yes"/>
      <point x="8" y="786"/>
      <point x="51" y="729"/>
      <point x="85" y="622" type="curve"/>
      <point x="0" y="622" type="line"/>
      <point x="0" y="512" type="line"/>
      <point x="80" y="512" type="line"/>
      <point x="80" y="0" type="line"/>
      <point x="214" y="0" type="line"/>
      <point x="214" y="512" type="line"/>
      <point x="309" y="512" type="line"/>
      <point x="309" y="622" type="line"/>
      <point x="204" y="622" type="line"/>
      <point x="164" y="774"/>
      <point x="91" y="896"/>
      <point x="-70" y="896" type="curve" smooth="yes"/>
      <point x="-189" y="896"/>
      <point x="-261" y="832"/>
      <point x="-261" y="734" type="curve" smooth="yes"/>
      <point x="-261" y="698"/>
      <point x="-253" y="661"/>
    </contour>
  </outline>
</glyph>
<glyph name="uvowelsigndeva" format="2">
  <unicode hex="0941"/>
  <outline>
    <contour>
      <point x="-264" y="7" type="curve"/>
      <point x="-229" y="-87" type="line"/>
      <point x="-206" y="-78"/>
      <point x="-181" y="-71"/>
      <point x="-154" y="-71" type="curve" smooth="yes"/>
      <point x="-122" y="-71"/>
      <point x="-95" y="-83"/>
      <point x="-95" y="-117" type="curve" smooth="yes"/>
      <point x="-95" y="-150"/>
      <point x="-122" y="-167"/>
      <point x="-167" y="-167" type="curve" smooth="yes"/>
      <point x="-245" y="-167"/>
      <point x="-309" y="-129"/>
      <point x="-392" y="-36" type="curve"/>
      <point x="-483" y="-102" type="line"/>
      <point x="-395" y="-202"/>
      <point x="-302" y="-268"/>
      <point x="-158" y="-268" type="curve" smooth="yes"/>
      <point x="-42" y="-268"/>
      <point x="23" y="-206"/>
      <point x="23" y="-121" type="curve" smooth="yes"/>
      <point x="23" y="-33"/>
      <point x="-41" y="30"/>
      <point x="-148" y="30" type="curve" smooth="yes"/>
      <point x="-186" y="30"/>
      <point x="-225" y="22"/>
    </contour>
  </outline>
</glyph>
<glyph name="uuvowelsigndeva" format="2">
  <unicode hex="0942"/>
  <outline>
    <contour>
      <point x="-86" y="-245" type="curve"/>
      <point x="-121" y="-150" type="line"/>
      <point x="-144" y="-160"/>
      <point x="-169" y="-167"/>
      <point x="-196" y="-167" type="curve" smooth="yes"/>
      <point x="-229" y="-167"/>
      <point x="-255" y="-155"/>
      <point x="-255" y="-121" type="curve" smooth="yes"/>
      <point x="-255" y="-87"/>
      <point x="-228" y="-71"/>
      <point x="-184" y="-71" type="curve" smooth="yes"/>
      <point x="-98" y="-71"/>
      <point x="-29" y="-132"/>
      <point x="36" y="-237" type="curve"/>
      <point x="133" y="-179" type="line"/>
      <point x="50" y="-64"/>
      <point x="-42" y="30"/>
      <point x="-192" y="30" type="curve" smooth="yes"/>
      <point x="-305" y="30"/>
      <point x="-373" y="-32"/>
      <point x="-373" y="-123" type="curve" smooth="yes"/>
      <point x="-373" y="-201"/>
      <point x="-309" y="-268"/>
      <point x="-202" y="-268" type="curve" smooth="yes"/>
      <point x="-165" y="-268"/>
      <point x="-125" y="-260"/>
    </contour>
  </outline>
</glyph>
<glyph name="rvocalicvowelsigndeva" format="2">
  <unicode hex="0943"/>
  <outline>
    <contour>
      <point x="45" y="-233" type="curve"/>
      <point x="6" y="-136" type="line"/>
      <point x="-40" y="-159"/>
      <point x="-68" y="-167"/>
      <point x="-99" y="-167" type="curve" smooth="yes"/>
      <point x="-139" y="-167"/>
      <point x="-160" y="-151"/>
      <point x="-160" y="-121" type="curve" smooth="yes"/>
      <point x="-160" y="-92"/>
      <point x="-139" y="-67"/>
      <point x="-71" y="-63" type="curve"/>
      <point x="-83" y="40" type="line"/>
      <point x="-208" y="32"/>
      <point x="-278" y="-27"/>
      <point x="-278" y="-123" type="curve" smooth="yes"/>
      <point x="-278" y="-209"/>
      <point x="-205" y="-268"/>
      <point x="-105" y="-268" type="curve" smooth="yes"/>
      <point x="-37" y="-268"/>
      <point x="10" y="-250"/>
    </contour>
  </outline>
</glyph>
<glyph name="rrvocalicvowelsigndeva" format="2">
  <unicode hex="0944"/>
  <outline>
    <contour>
      <point x="45" y="-204" type="curve"/>
      <point x="9" y="-114" type="line"/>
      <point x="-37" y="-137"/>
      <point x="-65" y="-145"/>
      <point x="-99" y="-145" type="curve" smooth="yes"/>
      <point x="-143" y="-145"/>
      <point x="-160" y="-131"/>
      <point x="-160" y="-105" type="curve" smooth="yes"/>
      <point x="-160" y="-80"/>
      <point x="-139" y="-59"/>
      <point x="-72" y="-56" type="curve"/>
      <point x="-83" y="40" type="line"/>
      <point x="-208" y="33"/>
      <point x="-278" y="-21"/>
      <point x="-278" y="-107" type="curve" smooth="yes"/>
      <point x="-278" y="-185"/>
      <point x="-205" y="-238"/>
      <point x="-105" y="-238" type="curve" smooth="yes"/>
      <point x="-37" y="-238"/>
      <point x="10" y="-221"/>
    </contour>
    <contour>
      <point x="88" y="-359" type="curve"/>
      <point x="52" y="-269" type="line"/>
      <point x="6" y="-292"/>
      <point x="-22" y="-300"/>
      <point x="-56" y="-300" type="curve" smooth="yes"/>
      <point x="-100" y="-300"/>
      <point x="-117" y="-286"/>
      <point x="-117" y="-261" type="curve" smooth="yes"/>
      <point x="-117" y="-249"/>
      <point x="-112" y="-237"/>
      <point x="-99" y="-229" type="curve"/>
      <point x="-199" y="-172" type="line"/>
      <point x="-223" y="-195"/>
      <point x="-235" y="-226"/>
      <point x="-235" y="-262" type="curve" smooth="yes"/>
      <point x="-235" y="-340"/>
      <point x="-162" y="-394"/>
      <point x="-62" y="-394" type="curve" smooth="yes"/>
      <point x="6" y="-394"/>
      <point x="53" y="-376"/>
    </contour>
  </outline>
</glyph>
<glyph name="ecandravowelsigndeva" format="2">
  <unicode hex="0945"/>
  <outline>
    <contour>
      <point x="68" y="860" type="curve"/>
      <point x="-42" y="896" type="line"/>
      <point x="-63" y="808"/>
      <point x="-95" y="757"/>
      <point x="-169" y="757" type="curve" smooth="yes"/>
      <point x="-238" y="757"/>
      <point x="-281" y="801"/>
      <point x="-315" y="896" type="curve"/>
      <point x="-418" y="858" type="line"/>
      <point x="-366" y="716"/>
      <point x="-279" y="656"/>
      <point x="-172" y="656" type="curve" smooth="yes"/>
      <point x="-54" y="656"/>
      <point x="32" y="711"/>
    </contour>
  </outline>
</glyph>
<glyph name="eshortvowelsigndeva" format="2">
  <unicode hex="0946"/>
  <outline>
    <contour>
      <point x="-207" y="615" type="curve"/>
      <point x="-88" y="615" type="line"/>
      <point x="-135" y="792"/>
      <point x="-179" y="826"/>
      <point x="-254" y="826" type="curve" smooth="yes"/>
      <point x="-277" y="826"/>
      <point x="-293" y="823"/>
      <point x="-320" y="823" type="curve" smooth="yes"/>
      <point x="-366" y="823"/>
      <point x="-381" y="846"/>
      <point x="-402" y="896" type="curve"/>
      <point x="-506" y="858" type="line"/>
      <point x="-465" y="748"/>
      <point x="-415" y="717"/>
      <point x="-353" y="717" type="curve" smooth="yes"/>
      <point x="-333" y="717"/>
      <point x="-320" y="720"/>
      <point x="-302" y="720" type="curve" smooth="yes"/>
      <point x="-261" y="720"/>
      <point x="-231" y="702"/>
    </contour>
  </outline>
</glyph>
<glyph name="evowelsigndeva" format="2">
  <unicode hex="0947"/>
  <outline>
    <contour>
      <point x="-207" y="615" type="curve"/>
      <point x="-88" y="615" type="line"/>
      <point x="-154" y="857"/>
      <point x="-226" y="896"/>
      <point x="-333" y="896" type="curve" smooth="yes"/>
      <point x="-373" y="896"/>
      <point x="-406" y="889"/>
      <point x="-438" y="876" type="curve"/>
      <point x="-402" y="771" type="line"/>
      <point x="-384" y="778"/>
      <point x="-360" y="784"/>
      <point x="-334" y="784" type="curve" smooth="yes"/>
      <point x="-267" y="784"/>
      <point x="-242" y="733"/>
    </contour>
  </outline>
</glyph>
<glyph name="aivowelsigndeva" format="2">
  <unicode hex="0948"/>
  <outline>
    <contour>
      <point x="-214" y="615" type="curve"/>
      <point x="-89" y="615" type="line"/>
      <point x="-162" y="875"/>
      <point x="-236" y="896"/>
      <point x="-342" y="896" type="curve" smooth="yes"/>
      <point x="-378" y="896"/>
      <point x="-414" y="888"/>
      <point x="-437" y="881" type="curve"/>
      <point x="-407" y="795" type="line"/>
      <point x="-387" y="804"/>
      <point x="-363" y="809"/>
      <point x="-341" y="809" type="curve" smooth="yes"/>
      <point x="-289" y="809"/>
      <point x="-255" y="789"/>
      <point x="-216" y="706" type="curve"/>
      <point x="-221" y="705" type="line"/>
      <point x="-264" y="752"/>
      <point x="-301" y="769"/>
      <point x="-353" y="769" type="curve" smooth="yes"/>
      <point x="-384" y="769"/>
      <point x="-420" y="760"/>
      <point x="-456" y="745" type="curve"/>
      <point x="-422" y="658" type="line"/>
      <point x="-395" y="671"/>
      <point x="-370" y="681"/>
      <point x="-339" y="681" type="curve" smooth="yes"/>
      <point x="-297" y="681"/>
      <point x="-271" y="676"/>
    </contour>
  </outline>
</glyph>
<glyph name="viramadeva" format="2">
  <unicode hex="094D"/>
  <outline>
    <contour>
      <point x="-225" y="-36" type="curve"/>
      <point x="-204" y="-139" type="line"/>
      <point x="-189" y="-136"/>
      <point x="-172" y="-133"/>
      <point x="-151" y="-133" type="curve" smooth="yes"/>
      <point x="-68" y="-133"/>
      <point x="-23" y="-173"/>
      <point x="50" y="-268" type="curve"/>
      <point x="141" y="-206" type="line"/>
      <point x="63" y="-106"/>
      <point x="-15" y="-27"/>
      <point x="-154" y="-27" type="curve" smooth="yes"/>
      <point x="-177" y="-27"/>
      <point x="-204" y="-30"/>
    </contour>
  </outline>
</glyph>
<glyph name="uni094E" format="2">
  <advance width="309"/>
  <unicode hex="094E"/>
  <outline>
    <contour>
      <point x="229" y="512" type="line"/>
      <point x="323" y="512" type="line"/>
      <point x="323" y="622" type="line"/>
      <point x="95" y="622" type="line"/>
      <point x="95" y="0" type="line"/>
      <point x="229" y="0" type="line"/>
    </contour>
  </outline>
</glyph>
<glyph name="omdeva" format="2">
  <advance width="1014"/>
  <unicode hex="0950"/>
  <outline>
    <contour>
      <point x="422" y="400" type="curve"/>
      <point x="367" y="338" type="line"/>
      <point x="397" y="273"/>
      <point x="459" y="232"/>
      <point x="515" y="232" type="curve" smooth="yes"/>
      <point x="594" y="232"/>
      <point x="632" y="270"/>
      <point x="681" y="343" type="curve" smooth="yes"/>
      <point x="702" y="374" type="line" smooth="yes"/>
      <point x="728" y="412"/>
      <point x="750" y="437"/>
      <point x="783" y="437" type="curve" smooth="yes"/>
      <point x="816" y="437"/>
      <point x="841" y="408"/>
      <point x="841" y="356" type="curve" smooth="yes"/>
      <point x="841" y="294"/>
      <point x="806" y="271"/>
      <point x="765" y="271" type="curve" smooth="yes"/>
      <point x="737" y="271"/>
      <point x="715" y="280"/>
      <point x="690" y="299" type="curve"/>
      <point x="616" y="214" type="line"/>
      <point x="656" y="181"/>
      <point x="711" y="160"/>
      <point x="772" y="160" type="curve" smooth="yes"/>
      <point x="913" y="160"/>
      <point x="975" y="241"/>
      <point x="975" y="359" type="curve" smooth="yes"/>
      <point x="975" y="483"/>
      <point x="892" y="547"/>
      <point x="787" y="547" type="curve" smooth="yes"/>
      <point x="688" y="547"/>
      <point x="640" y="506"/>
      <point x="589" y="433" type="curve" smooth="yes"/>
      <point x="563" y="394" type="line" smooth="yes"/>
      <point x="532" y="350"/>
      <point x="512" y="336"/>
      <point x="488" y="336" type="curve" smooth="yes"/>
      <point x="460" y="336"/>
      <point x="442" y="362"/>
    </contour>
    <contour>
      <point x="159" y="590" type="curve"/>
      <point x="196" y="490" type="line"/>
      <point x="232" y="508"/>
      <point x="270" y="522"/>
      <point x="311" y="522" type="curve" smooth="yes"/>
      <point x="344" y="522"/>
      <point x="376" y="512"/>
      <point x="376" y="474" type="curve" smooth="yes"/>
      <point x="376" y="435"/>
      <point x="353" y="414"/>
      <point x="275" y="410" type="curve"/>
      <point x="281" y="304" type="line"/>
      <point x="429" y="308"/>
      <point x="509" y="378"/>
      <point x="509" y="477" type="curve" smooth="yes"/>
      <point x="509" y="566"/>
      <point x="447" y="632"/>
      <point x="333" y="632" type="curve" smooth="yes"/>
      <point x="261" y="632"/>
      <point x="198" y="610"/>
    </contour>
    <contour>
      <point x="521" y="211" type="curve" smooth="yes"/>
      <point x="521" y="258"/>
      <point x="497" y="302"/>
      <point x="458" y="341" type="curve"/>
      <point x="428" y="376" type="line"/>
      <point x="297" y="359" type="line"/>
      <point x="359" y="322"/>
      <point x="388" y="284"/>
      <point x="388" y="230" type="curve" smooth="yes"/>
      <point x="388" y="193"/>
      <point x="369" y="173"/>
      <point x="330" y="173" type="curve" smooth="yes"/>
      <point x="250" y="173"/>
      <point x="190" y="249"/>
      <point x="135" y="392" type="curve"/>
      <point x="20" y="348" type="line"/>
      <point x="117" y="120"/>
      <point x="213" y="60"/>
      <point x="340" y="60" type="curve" smooth="yes"/>
      <point x="458" y="60"/>
      <point x="521" y="117"/>
    </contour>
    <contour>
      <point x="542" y="816" type="curve" smooth="yes"/>
      <point x="542" y="784"/>
      <point x="569" y="757"/>
      <point x="601" y="757" type="curve" smooth="yes"/>
      <point x="632" y="757"/>
      <point x="659" y="784"/>
      <point x="659" y="816" type="curve" smooth="yes"/>
      <point x="659" y="849"/>
      <point x="632" y="875"/>
      <point x="601" y="875" type="curve" smooth="yes"/>
      <point x="569" y="875"/>
      <point x="542" y="849"/>
    </contour>
    <contour>
      <point x="841" y="838" type="curve"/>
      <point x="731" y="875" type="line"/>
      <point x="712" y="778"/>
      <point x="678" y="730"/>
      <point x="604" y="730" type="curve" smooth="yes"/>
      <point x="535" y="730"/>
      <point x="490" y="773"/>
      <point x="458" y="875" type="curve"/>
      <point x="355" y="836" type="line"/>
      <point x="407" y="694"/>
      <point x="494" y="634"/>
      <point x="602" y="634" type="curve" smooth="yes"/>
      <point x="720" y="634"/>
      <point x="806" y="689"/>
    </contour>
  </outline>
</glyph>
<glyph name="udattadeva" format="2">
  <unicode hex="0951"/>
  <outline>
    <contour>
      <point x="-97" y="671" type="line"/>
      <point x="-97" y="881" type="line"/>
      <point x="-197" y="881" type="line"/>
      <point x="-197" y="671" type="line"/>
    </contour>
  </outline>
</glyph>
<glyph name="anudattadeva" format="2">
  <unicode hex="0952"/>
  <outline>
    <contour>
      <point x="-447" y="-67" type="line"/>
      <point x="-447" y="-158" type="line"/>
      <point x="-75" y="-158" type="line"/>
      <point x="-75" y="-67" type="line"/>
    </contour>
  </outline>
</glyph>
<glyph name="uni0953" format="2">
  <unicode hex="0953"/>
  <outline>
    <contour>
      <point x="-191" y="683" type="line"/>
      <point x="-82" y="683" type="line"/>
      <point x="-155" y="883" type="line"/>
      <point x="-308" y="883" type="line"/>
    </contour>
  </outline>
</glyph>
<glyph name="candralongevowelsigndeva" format="2">
  <unicode hex="0955"/>
  <outline>
    <contour>
      <point x="-358" y="729" type="line"/>
      <point x="-358" y="652" type="line"/>
      <point x="13" y="652" type="line"/>
      <point x="13" y="729" type="line"/>
    </contour>
    <contour>
      <point x="27" y="866" type="curve"/>
      <point x="-70" y="896" type="line"/>
      <point x="-86" y="834"/>
      <point x="-114" y="802"/>
      <point x="-169" y="802" type="curve" smooth="yes"/>
      <point x="-220" y="802"/>
      <point x="-255" y="829"/>
      <point x="-283" y="896" type="curve"/>
      <point x="-374" y="864" type="line"/>
      <point x="-331" y="766"/>
      <point x="-267" y="725"/>
      <point x="-170" y="725" type="curve" smooth="yes"/>
      <point x="-67" y="725"/>
      <point x="-4" y="758"/>
    </contour>
  </outline>
</glyph>
<glyph name="uevowelsigndeva" format="2">
  <unicode hex="0956"/>
  <outline>
    <contour>
      <point x="-305" y="-203" type="curve" smooth="yes"/>
      <point x="-208" y="-203"/>
      <point x="-137" y="-171"/>
      <point x="-89" y="-138" type="curve"/>
      <point x="-127" y="-39" type="line"/>
      <point x="-182" y="-74"/>
      <point x="-235" y="-92"/>
      <point x="-305" y="-92" type="curve" smooth="yes"/>
      <point x="-375" y="-92"/>
      <point x="-430" y="-73"/>
      <point x="-482" y="-39" type="curve"/>
      <point x="-521" y="-138" type="line"/>
      <point x="-472" y="-172"/>
      <point x="-401" y="-203"/>
    </contour>
  </outline>
</glyph>
<glyph name="uuevowelsigndeva" format="2">
  <unicode hex="0957"/>
  <outline>
    <contour>
      <point x="-305" y="-146" type="curve" smooth="yes"/>
      <point x="-223" y="-146"/>
      <point x="-158" y="-124"/>
      <point x="-96" y="-91" type="curve"/>
      <point x="-126" y="-9" type="line"/>
      <point x="-175" y="-37"/>
      <point x="-228" y="-58"/>
      <point x="-305" y="-58" type="curve" smooth="yes"/>
      <point x="-378" y="-58"/>
      <point x="-436" y="-37"/>
      <point x="-483" y="-9" type="curve"/>
      <point x="-514" y="-91" type="line"/>
      <point x="-455" y="-123"/>
      <point x="-387" y="-146"/>
    </contour>
    <contour>
      <point x="-305" y="-268" type="curve" smooth="yes"/>
      <point x="-215" y="-268"/>
      <point x="-145" y="-239"/>
      <point x="-96" y="-212" type="curve"/>
      <point x="-125" y="-138" type="line"/>
      <point x="-182" y="-165"/>
      <point x="-236" y="-179"/>
      <point x="-305" y="-179" type="curve" smooth="yes"/>
      <point x="-376" y="-179"/>
      <point x="-431" y="-164"/>
      <point x="-485" y="-138" type="curve"/>
      <point x="-514" y="-212" type="line"/>
      <point x="-461" y="-240"/>
      <point x="-392" y="-268"/>
    </contour>
  </outline>
</glyph>
<glyph name="rrvocalicdeva" format="2">
  <advance width="918"/>
  <unicode hex="0960"/>
  <outline>
    <contour>
      <point x="521" y="512" type="line"/>
      <point x="932" y="512" type="line"/>
      <point x="932" y="622" type="line"/>
      <point x="0" y="622" type="line"/>
      <point x="0" y="512" type="line"/>
      <point x="387" y="512" type="line"/>
      <point x="387" y="0" type="line"/>
      <point x="521" y="0" type="line"/>
    </contour>
    <contour>
      <point x="26" y="399" type="curve"/>
      <point x="69" y="292" type="line"/>
      <point x="125" y="319"/>
      <point x="158" y="329"/>
      <point x="196" y="329" type="curve" smooth="yes"/>
      <point x="244" y="329"/>
      <point x="272" y="307"/>
      <point x="327" y="246" type="curve"/>
      <point x="382" y="263" type="line"/>
      <point x="411" y="302" type="line"/>
      <point x="324" y="411"/>
      <point x="280" y="443"/>
      <point x="194" y="443" type="curve" smooth="yes"/>
      <point x="135" y="443"/>
      <point x="83" y="426"/>
    </contour>
    <contour>
      <point x="130" y="42" type="line"/>
      <point x="443" y="231" type="line"/>
      <point x="378" y="313" type="line"/>
      <point x="62" y="136" type="line"/>
    </contour>
    <contour>
      <point x="497" y="327" type="curve"/>
      <point x="501" y="224" type="line"/>
      <point x="561" y="227"/>
      <point x="625" y="236"/>
      <point x="669" y="250" type="curve"/>
      <point x="681" y="225"/>
      <point x="704" y="184"/>
      <point x="722" y="155" type="curve"/>
      <point x="808" y="150" type="line"/>
      <point x="832" y="187" type="line"/>
      <point x="805" y="224"/>
      <point x="784" y="250"/>
      <point x="764" y="283" type="curve"/>
      <point x="786" y="295"/>
      <point x="803" y="320"/>
      <point x="803" y="354" type="curve" smooth="yes"/>
      <point x="803" y="399"/>
      <point x="774" y="441"/>
      <point x="709" y="441" type="curve" smooth="yes"/>
      <point x="664" y="441"/>
      <point x="623" y="416"/>
      <point x="623" y="365" type="curve" smooth="yes"/>
      <point x="623" y="349"/>
      <point x="627" y="334"/>
      <point x="633" y="322" type="curve"/>
      <point x="645" y="348" type="line"/>
      <point x="610" y="337"/>
      <point x="544" y="330"/>
    </contour>
    <contour>
      <point x="925" y="2" type="curve"/>
      <point x="889" y="92" type="line"/>
      <point x="843" y="69"/>
      <point x="814" y="61"/>
      <point x="781" y="61" type="curve" smooth="yes"/>
      <point x="737" y="61"/>
      <point x="720" y="75"/>
      <point x="720" y="101" type="curve" smooth="yes"/>
      <point x="720" y="126"/>
      <point x="741" y="147"/>
      <point x="808" y="150" type="curve"/>
      <point x="739" y="238" type="line"/>
      <point x="651" y="219"/>
      <point x="602" y="164"/>
      <point x="602" y="99" type="curve" smooth="yes"/>
      <point x="602" y="21"/>
      <point x="675" y="-32"/>
      <point x="775" y="-32" type="curve" smooth="yes"/>
      <point x="843" y="-32"/>
      <point x="890" y="-15"/>
    </contour>
    <contour>
      <point x="968" y="-153" type="curve"/>
      <point x="932" y="-63" type="line"/>
      <point x="886" y="-86"/>
      <point x="858" y="-94"/>
      <point x="824" y="-94" type="curve" smooth="yes"/>
      <point x="780" y="-94"/>
      <point x="763" y="-80"/>
      <point x="763" y="-55" type="curve" smooth="yes"/>
      <point x="763" y="-42"/>
      <point x="768" y="-31"/>
      <point x="781" y="-22" type="curve"/>
      <point x="681" y="34" type="line"/>
      <point x="657" y="11"/>
      <point x="645" y="-20"/>
      <point x="645" y="-56" type="curve" smooth="yes"/>
      <point x="645" y="-134"/>
      <point x="718" y="-188"/>
      <point x="818" y="-188" type="curve" smooth="yes"/>
      <point x="886" y="-188"/>
      <point x="933" y="-170"/>
    </contour>
  </outline>
</glyph>
<glyph name="llvocalicdeva" format="2">
  <advance width="757"/>
  <unicode hex="0961"/>
  <outline>
    <contour>
      <point x="827" y="-192" type="curve"/>
      <point x="792" y="-102" type="line"/>
      <point x="745" y="-125"/>
      <point x="717" y="-133"/>
      <point x="683" y="-133" type="curve" smooth="yes"/>
      <point x="639" y="-133"/>
      <point x="622" y="-119"/>
      <point x="622" y="-94" type="curve" smooth="yes"/>
      <point x="622" y="-82"/>
      <point x="627" y="-70"/>
      <point x="640" y="-62" type="curve"/>
      <point x="541" y="-5" type="line"/>
      <point x="517" y="-28"/>
      <point x="504" y="-59"/>
      <point x="504" y="-95" type="curve" smooth="yes"/>
      <point x="504" y="-173"/>
      <point x="577" y="-227"/>
      <point x="677" y="-227" type="curve" smooth="yes"/>
      <point x="745" y="-227"/>
      <point x="792" y="-209"/>
    </contour>
    <contour>
      <point x="784" y="-37" type="curve"/>
      <point x="749" y="53" type="line"/>
      <point x="702" y="30"/>
      <point x="674" y="22"/>
      <point x="640" y="22" type="curve" smooth="yes"/>
      <point x="597" y="22"/>
      <point x="579" y="36"/>
      <point x="579" y="62" type="curve" smooth="yes"/>
      <point x="579" y="87"/>
      <point x="598" y="109"/>
      <point x="681" y="112" type="curve"/>
      <point x="656" y="207" type="line"/>
      <point x="532" y="200"/>
      <point x="461" y="146"/>
      <point x="461" y="60" type="curve" smooth="yes"/>
      <point x="461" y="-18"/>
      <point x="534" y="-71"/>
      <point x="634" y="-71" type="curve" smooth="yes"/>
      <point x="702" y="-71"/>
      <point x="749" y="-54"/>
    </contour>
    <contour>
      <point x="716" y="250" type="curve" smooth="yes"/>
      <point x="716" y="362"/>
      <point x="638" y="426"/>
      <point x="531" y="426" type="curve" smooth="yes"/>
      <point x="400" y="426"/>
      <point x="319" y="358"/>
      <point x="284" y="225" type="curve"/>
      <point x="409" y="187" type="line"/>
      <point x="437" y="292"/>
      <point x="490" y="314"/>
      <point x="522" y="314" type="curve" smooth="yes"/>
      <point x="558" y="314"/>
      <point x="582" y="292"/>
      <point x="582" y="242" type="curve" smooth="yes"/>
      <point x="582" y="216"/>
      <point x="574" y="189"/>
      <point x="559" y="161" type="curve"/>
      <point x="681" y="112" type="line"/>
      <point x="705" y="160"/>
      <point x="716" y="191"/>
    </contour>
    <contour>
      <point x="208" y="426" type="curve" smooth="yes"/>
      <point x="130" y="426"/>
      <point x="37" y="385"/>
      <point x="37" y="265" type="curve" smooth="yes"/>
      <point x="37" y="171"/>
      <point x="99" y="95"/>
      <point x="239" y="-17" type="curve"/>
      <point x="326" y="72" type="line"/>
      <point x="211" y="161"/>
      <point x="171" y="202"/>
      <point x="171" y="255" type="curve" smooth="yes"/>
      <point x="171" y="289"/>
      <point x="195" y="313"/>
      <point x="236" y="313" type="curve" smooth="yes"/>
      <point x="288" y="313"/>
      <point x="319" y="274"/>
      <point x="357" y="236" type="curve"/>
      <point x="392" y="360" type="line"/>
      <point x="333" y="406"/>
      <point x="284" y="426"/>
    </contour>
    <contour>
      <point x="476" y="512" type="line"/>
      <point x="476" y="407" type="line"/>
      <point x="609" y="394" type="line"/>
      <point x="609" y="512" type="line"/>
      <point x="771" y="512" type="line"/>
      <point x="771" y="622" type="line"/>
      <point x="0" y="622" type="line"/>
      <point x="0" y="512" type="line"/>
    </contour>
  </outline>
</glyph>
<glyph name="lvocalicvowelsigndeva" format="2">
  <unicode hex="0962"/>
  <outline>
    <contour>
      <point x="-278" y="-113" type="curve"/>
      <point x="-218" y="-41" type="line"/>
      <point x="-268" y="-5"/>
      <point x="-309" y="9"/>
      <point x="-371" y="9" type="curve" smooth="yes"/>
      <point x="-434" y="9"/>
      <point x="-507" y="-22"/>
      <point x="-507" y="-117" type="curve" smooth="yes"/>
      <point x="-507" y="-196"/>
      <point x="-452" y="-259"/>
      <point x="-343" y="-347" type="curve"/>
      <point x="-271" y="-271" type="line"/>
      <point x="-364" y="-201"/>
      <point x="-393" y="-171"/>
      <point x="-393" y="-129" type="curve" smooth="yes"/>
      <point x="-393" y="-104"/>
      <point x="-374" y="-84"/>
      <point x="-342" y="-84" type="curve" smooth="yes"/>
      <point x="-316" y="-84"/>
      <point x="-297" y="-96"/>
    </contour>
    <contour>
      <point x="-100" y="9" type="curve" smooth="yes"/>
      <point x="-208" y="9"/>
      <point x="-275" y="-45"/>
      <point x="-304" y="-153" type="curve"/>
      <point x="-198" y="-182" type="line"/>
      <point x="-175" y="-102"/>
      <point x="-133" y="-84"/>
      <point x="-107" y="-84" type="curve" smooth="yes"/>
      <point x="-79" y="-84"/>
      <point x="-60" y="-101"/>
      <point x="-60" y="-140" type="curve" smooth="yes"/>
      <point x="-60" y="-161"/>
      <point x="-71" y="-188"/>
      <point x="-80" y="-207" type="curve"/>
      <point x="-12" y="-159" type="line"/>
      <point x="-109" y="-169"/>
      <point x="-162" y="-214"/>
      <point x="-162" y="-282" type="curve" smooth="yes"/>
      <point x="-162" y="-348"/>
      <point x="-103" y="-394"/>
      <point x="-21" y="-394" type="curve" smooth="yes"/>
      <point x="35" y="-394"/>
      <point x="73" y="-380"/>
      <point x="102" y="-367" type="curve"/>
      <point x="71" y="-288" type="line"/>
      <point x="34" y="-306"/>
      <point x="12" y="-312"/>
      <point x="-13" y="-312" type="curve" smooth="yes"/>
      <point x="-45" y="-312"/>
      <point x="-62" y="-300"/>
      <point x="-62" y="-276" type="curve" smooth="yes"/>
      <point x="-62" y="-254"/>
      <point x="-34" y="-233"/>
      <point x="30" y="-229" type="curve"/>
      <point x="43" y="-199"/>
      <point x="53" y="-170"/>
      <point x="53" y="-130" type="curve" smooth="yes"/>
      <point x="53" y="-42"/>
      <point x="-11" y="9"/>
    </contour>
  </outline>
</glyph>
<glyph name="llvocalicvowelsigndeva" format="2">
  <unicode hex="0963"/>
  <outline>
    <contour>
      <point x="12" y="-284" type="curve" smooth="yes"/>
      <point x="68" y="-284"/>
      <point x="106" y="-271"/>
      <point x="135" y="-259" type="curve"/>
      <point x="104" y="-188" type="line"/>
      <point x="67" y="-207"/>
      <point x="45" y="-212"/>
      <point x="20" y="-212" type="curve" smooth="yes"/>
      <point x="-14" y="-212"/>
      <point x="-28" y="-202"/>
      <point x="-28" y="-181" type="curve" smooth="yes"/>
      <point x="-28" y="-163"/>
      <point x="-12" y="-146"/>
      <point x="53" y="-142" type="curve"/>
      <point x="53" y="-138"/>
      <point x="53" y="-134"/>
      <point x="53" y="-130" type="curve" smooth="yes"/>
      <point x="53" y="-42"/>
      <point x="-11" y="9"/>
      <point x="-100" y="9" type="curve" smooth="yes"/>
      <point x="-208" y="9"/>
      <point x="-275" y="-45"/>
      <point x="-304" y="-153" type="curve"/>
      <point x="-198" y="-182" type="line"/>
      <point x="-175" y="-102"/>
      <point x="-133" y="-84"/>
      <point x="-107" y="-84" type="curve" smooth="yes"/>
      <point x="-75" y="-84"/>
      <point x="-57" y="-106"/>
      <point x="-60" y="-156" type="curve"/>
      <point x="-20" y="-87" type="line"/>
      <point x="-89" y="-101"/>
      <point x="-128" y="-139"/>
      <point x="-128" y="-188" type="curve" smooth="yes"/>
      <point x="-128" y="-245"/>
      <point x="-69" y="-284"/>
    </contour>
    <contour>
      <point x="-371" y="9" type="curve" smooth="yes"/>
      <point x="-434" y="9"/>
      <point x="-507" y="-22"/>
      <point x="-507" y="-117" type="curve" smooth="yes"/>
      <point x="-507" y="-196"/>
      <point x="-452" y="-259"/>
      <point x="-343" y="-347" type="curve"/>
      <point x="-271" y="-271" type="line"/>
      <point x="-364" y="-201"/>
      <point x="-393" y="-171"/>
      <point x="-393" y="-129" type="curve" smooth="yes"/>
      <point x="-393" y="-104"/>
      <point x="-374" y="-84"/>
      <point x="-342" y="-84" type="curve" smooth="yes"/>
      <point x="-316" y="-84"/>
      <point x="-297" y="-96"/>
      <point x="-278" y="-113" type="curve"/>
      <point x="-218" y="-41" type="line"/>
      <point x="-268" y="-5"/>
      <point x="-309" y="9"/>
    </contour>
    <contour>
      <point x="63" y="-394" type="curve" smooth="yes"/>
      <point x="118" y="-394"/>
      <point x="156" y="-381"/>
      <point x="185" y="-369" type="curve"/>
      <point x="154" y="-298" type="line"/>
      <point x="118" y="-316"/>
      <point x="95" y="-322"/>
      <point x="70" y="-322" type="curve" smooth="yes"/>
      <point x="37" y="-322"/>
      <point x="22" y="-312"/>
      <point x="22" y="-291" type="curve" smooth="yes"/>
      <point x="22" y="-281"/>
      <point x="27" y="-271"/>
      <point x="43" y="-264" type="curve"/>
      <point x="-46" y="-231" type="line"/>
      <point x="-67" y="-249"/>
      <point x="-78" y="-271"/>
      <point x="-78" y="-297" type="curve" smooth="yes"/>
      <point x="-78" y="-354"/>
      <point x="-19" y="-394"/>
    </contour>
  </outline>
</glyph>
<glyph name="zerodeva" format="2">
  <advance width="570"/>
  <unicode hex="0966"/>
  <outline>
    <contour>
      <point x="285" y="96" type="curve" smooth="yes"/>
      <point x="421" y="96"/>
      <point x="517" y="183"/>
      <point x="517" y="319" type="curve" smooth="yes"/>
      <point x="517" y="460"/>
      <point x="423" y="544"/>
      <point x="287" y="544" type="curve" smooth="yes"/>
      <point x="147" y="544"/>
      <point x="53" y="458"/>
      <point x="53" y="321" type="curve" smooth="yes"/>
      <point x="53" y="185"/>
      <point x="149" y="96"/>
    </contour>
    <contour>
      <point x="283" y="206" type="curve" smooth="yes"/>
      <point x="226" y="206"/>
      <point x="189" y="247"/>
      <point x="189" y="318" type="curve" smooth="yes"/>
      <point x="189" y="390"/>
      <point x="229" y="434"/>
      <point x="286" y="434" type="curve" smooth="yes"/>
      <point x="344" y="434"/>
      <point x="381" y="393"/>
      <point x="381" y="322" type="curve" smooth="yes"/>
      <point x="381" y="250"/>
      <point x="341" y="206"/>
    </contour>
  </outline>
</glyph>
<glyph name="onedeva" format="2">
  <advance width="570"/>
  <unicode hex="0967"/>
  <outline>
    <contour>
      <point x="288" y="632" type="curve" smooth="yes"/>
      <point x="164" y="632"/>
      <point x="111" y="568"/>
      <point x="111" y="504" type="curve" smooth="yes"/>
      <point x="111" y="437"/>
      <point x="152" y="403"/>
      <point x="199" y="375" type="curve"/>
      <point x="275" y="439" type="line"/>
      <point x="245" y="453"/>
      <point x="230" y="467"/>
      <point x="230" y="488" type="curve" smooth="yes"/>
      <point x="230" y="508"/>
      <point x="245" y="526"/>
      <point x="279" y="526" type="curve" smooth="yes"/>
      <point x="316" y="526"/>
      <point x="330" y="508"/>
      <point x="330" y="481" type="curve" smooth="yes"/>
      <point x="330" y="427"/>
      <point x="265" y="374"/>
      <point x="116" y="285" type="curve"/>
      <point x="106" y="233" type="line"/>
      <point x="290" y="87" type="line" smooth="yes"/>
      <point x="322" y="62"/>
      <point x="336" y="43"/>
      <point x="336" y="21" type="curve" smooth="yes"/>
      <point x="336" y="1"/>
      <point x="327" y="-11"/>
      <point x="313" y="-28" type="curve"/>
      <point x="415" y="-100" type="line"/>
      <point x="458" y="-55"/>
      <point x="472" y="-10"/>
      <point x="472" y="33" type="curve" smooth="yes"/>
      <point x="472" y="82"/>
      <point x="451" y="117"/>
      <point x="395" y="159" type="curve" smooth="yes"/>
      <point x="239" y="277" type="line"/>
      <point x="223" y="198" type="line"/>
      <point x="431" y="330"/>
      <point x="466" y="397"/>
      <point x="466" y="483" type="curve" smooth="yes"/>
      <point x="466" y="573"/>
      <point x="404" y="632"/>
    </contour>
  </outline>
</glyph>
<glyph name="twodeva" format="2">
  <advance width="570"/>
  <unicode hex="0968"/>
  <outline>
    <contour>
      <point x="214" y="295" type="curve"/>
      <point x="191" y="237" type="line"/>
      <point x="256" y="184"/>
      <point x="331" y="96"/>
      <point x="407" y="-12" type="curve"/>
      <point x="507" y="57" type="line"/>
      <point x="453" y="129"/>
      <point x="384" y="214"/>
      <point x="310" y="271" type="curve"/>
      <point x="301" y="286" type="line"/>
      <point x="246" y="332"/>
      <point x="219" y="342"/>
      <point x="185" y="342" type="curve" smooth="yes"/>
      <point x="133" y="342"/>
      <point x="101" y="312"/>
      <point x="101" y="265" type="curve" smooth="yes"/>
      <point x="101" y="211"/>
      <point x="143" y="180"/>
      <point x="201" y="180" type="curve" smooth="yes"/>
      <point x="366" y="180"/>
      <point x="481" y="284"/>
      <point x="481" y="424" type="curve" smooth="yes"/>
      <point x="481" y="562"/>
      <point x="390" y="632"/>
      <point x="266" y="632" type="curve" smooth="yes"/>
      <point x="190" y="632"/>
      <point x="134" y="617"/>
      <point x="78" y="593" type="curve"/>
      <point x="118" y="489" type="line"/>
      <point x="164" y="512"/>
      <point x="198" y="521"/>
      <point x="242" y="521" type="curve" smooth="yes"/>
      <point x="302" y="521"/>
      <point x="345" y="493"/>
      <point x="345" y="423" type="curve" smooth="yes"/>
      <point x="345" y="341"/>
      <point x="275" y="292"/>
    </contour>
  </outline>
</glyph>
<glyph name="threedeva" format="2">
  <advance width="570"/>
  <unicode hex="0969"/>
  <outline>
    <contour>
      <point x="222" y="180" type="curve"/>
      <point x="194" y="124" type="line"/>
      <point x="243" y="84"/>
      <point x="315" y="6"/>
      <point x="374" y="-75" type="curve"/>
      <point x="471" y="-5" type="line"/>
      <point x="427" y="53"/>
      <point x="361" y="114"/>
      <point x="310" y="158" type="curve"/>
      <point x="304" y="173" type="line"/>
      <point x="249" y="219"/>
      <point x="222" y="229"/>
      <point x="188" y="229" type="curve" smooth="yes"/>
      <point x="136" y="229"/>
      <point x="104" y="199"/>
      <point x="104" y="151" type="curve" smooth="yes"/>
      <point x="104" y="98"/>
      <point x="149" y="66"/>
      <point x="211" y="66" type="curve" smooth="yes"/>
      <point x="390" y="66"/>
      <point x="486" y="149"/>
      <point x="486" y="259" type="curve" smooth="yes"/>
      <point x="486" y="326"/>
      <point x="444" y="379"/>
      <point x="343" y="399" type="curve"/>
      <point x="244" y="319" type="line"/>
      <point x="309" y="319"/>
      <point x="350" y="304"/>
      <point x="350" y="253" type="curve" smooth="yes"/>
      <point x="350" y="209"/>
      <point x="308" y="181"/>
    </contour>
    <contour>
      <point x="90" y="591" type="curve"/>
      <point x="128" y="490" type="line"/>
      <point x="167" y="508"/>
      <point x="208" y="522"/>
      <point x="253" y="522" type="curve" smooth="yes"/>
      <point x="290" y="522"/>
      <point x="322" y="512"/>
      <point x="322" y="474" type="curve" smooth="yes"/>
      <point x="322" y="437"/>
      <point x="293" y="414"/>
      <point x="199" y="410" type="curve"/>
      <point x="204" y="304" type="line"/>
      <point x="275" y="306"/>
      <point x="332" y="320"/>
      <point x="373" y="344" type="curve"/>
      <point x="381" y="352" type="line"/>
      <point x="427" y="380"/>
      <point x="454" y="427"/>
      <point x="454" y="477" type="curve" smooth="yes"/>
      <point x="454" y="566"/>
      <point x="392" y="632"/>
      <point x="272" y="632" type="curve" smooth="yes"/>
      <point x="192" y="632"/>
      <point x="132" y="612"/>
    </contour>
  </outline>
</glyph>
<glyph name="fourdeva" format="2">
  <advance width="570"/>
  <unicode hex="096A"/>
  <outline>
    <contour>
      <point x="215" y="327" type="curve" smooth="yes"/>
      <point x="257" y="290" type="line"/>
      <point x="327" y="223"/>
      <point x="337" y="191"/>
      <point x="337" y="160" type="curve" smooth="yes"/>
      <point x="337" y="131"/>
      <point x="319" y="108"/>
      <point x="285" y="108" type="curve" smooth="yes"/>
      <point x="248" y="108"/>
      <point x="230" y="133"/>
      <point x="230" y="163" type="curve" smooth="yes"/>
      <point x="230" y="191"/>
      <point x="242" y="222"/>
      <point x="308" y="285" type="curve" smooth="yes"/>
      <point x="349" y="325" type="line"/>
      <point x="500" y="453"/>
      <point x="518" y="514"/>
      <point x="518" y="571" type="curve" smooth="yes"/>
      <point x="518" y="597"/>
      <point x="514" y="613"/>
      <point x="506" y="632" type="curve"/>
      <point x="374" y="609" type="line"/>
      <point x="378" y="595"/>
      <point x="380" y="583"/>
      <point x="380" y="572" type="curve" smooth="yes"/>
      <point x="380" y="534"/>
      <point x="356" y="487"/>
      <point x="239" y="375" type="curve"/>
      <point x="214" y="347" type="line"/>
      <point x="103" y="244"/>
      <point x="96" y="193"/>
      <point x="96" y="144" type="curve" smooth="yes"/>
      <point x="96" y="54"/>
      <point x="176" y="-2"/>
      <point x="288" y="-2" type="curve" smooth="yes"/>
      <point x="403" y="-2"/>
      <point x="473" y="56"/>
      <point x="473" y="146" type="curve" smooth="yes"/>
      <point x="473" y="200"/>
      <point x="463" y="254"/>
      <point x="353" y="356" type="curve" smooth="yes"/>
      <point x="327" y="379" type="line" smooth="yes"/>
      <point x="210" y="487"/>
      <point x="194" y="531"/>
      <point x="194" y="574" type="curve" smooth="yes"/>
      <point x="194" y="585"/>
      <point x="196" y="596"/>
      <point x="201" y="609" type="curve"/>
      <point x="68" y="632" type="line"/>
      <point x="61" y="614"/>
      <point x="57" y="596"/>
      <point x="57" y="575" type="curve" smooth="yes"/>
      <point x="57" y="521"/>
      <point x="62" y="460"/>
    </contour>
  </outline>
</glyph>
<glyph name="fivedeva" format="2">
  <advance width="570"/>
  <unicode hex="096B"/>
  <outline>
    <contour>
      <point x="458" y="-67" type="curve"/>
      <point x="569" y="-17" type="line"/>
      <point x="522" y="54"/>
      <point x="457" y="171"/>
      <point x="432" y="233" type="curve"/>
      <point x="359" y="294" type="line"/>
      <point x="346" y="292"/>
      <point x="333" y="292"/>
      <point x="321" y="292" type="curve" smooth="yes"/>
      <point x="238" y="292"/>
      <point x="200" y="333"/>
      <point x="200" y="417" type="curve" smooth="yes"/>
      <point x="200" y="480"/>
      <point x="225" y="533"/>
      <point x="263" y="593" type="curve"/>
      <point x="125" y="632" type="line"/>
      <point x="84" y="563"/>
      <point x="66" y="480"/>
      <point x="66" y="417" type="curve" smooth="yes"/>
      <point x="66" y="235"/>
      <point x="191" y="183"/>
      <point x="318" y="183" type="curve" smooth="yes"/>
      <point x="417" y="183"/>
      <point x="499" y="207"/>
      <point x="499" y="292" type="curve" smooth="yes"/>
      <point x="499" y="350"/>
      <point x="454" y="386"/>
      <point x="390" y="386" type="curve" smooth="yes"/>
      <point x="348" y="386"/>
      <point x="305" y="368"/>
      <point x="305" y="313" type="curve" smooth="yes"/>
      <point x="305" y="277"/>
      <point x="314" y="237"/>
      <point x="324" y="212" type="curve" smooth="yes"/>
      <point x="348" y="142"/>
      <point x="409" y="18"/>
    </contour>
  </outline>
</glyph>
<glyph name="sixdeva" format="2">
  <advance width="570"/>
  <unicode hex="096C"/>
  <outline>
    <contour>
      <point x="455" y="-101" type="curve"/>
      <point x="560" y="-49" type="line"/>
      <point x="517" y="15"/>
      <point x="478" y="85"/>
      <point x="458" y="129" type="curve"/>
      <point x="381" y="191" type="line"/>
      <point x="373" y="189"/>
      <point x="361" y="188"/>
      <point x="352" y="188" type="curve"/>
      <point x="285" y="188"/>
      <point x="245" y="212"/>
      <point x="245" y="260" type="curve" smooth="yes"/>
      <point x="245" y="306"/>
      <point x="282" y="328"/>
      <point x="338" y="328" type="curve" smooth="yes"/>
      <point x="355" y="328"/>
      <point x="371" y="327"/>
      <point x="385" y="325" type="curve"/>
      <point x="396" y="432" type="line"/>
      <point x="383" y="435"/>
      <point x="354" y="438"/>
      <point x="333" y="438" type="curve" smooth="yes"/>
      <point x="280" y="438"/>
      <point x="230" y="429"/>
      <point x="192" y="407" type="curve"/>
      <point x="180" y="393" type="line"/>
      <point x="131" y="363"/>
      <point x="110" y="314"/>
      <point x="110" y="269" type="curve" smooth="yes"/>
      <point x="110" y="166"/>
      <point x="188" y="80"/>
      <point x="336" y="80" type="curve" smooth="yes"/>
      <point x="436" y="80"/>
      <point x="528" y="103"/>
      <point x="528" y="185" type="curve" smooth="yes"/>
      <point x="528" y="242"/>
      <point x="483" y="278"/>
      <point x="421" y="278" type="curve" smooth="yes"/>
      <point x="377" y="278"/>
      <point x="336" y="258"/>
      <point x="336" y="205" type="curve" smooth="yes"/>
      <point x="336" y="196"/>
      <point x="337" y="182"/>
      <point x="342" y="170" type="curve"/>
      <point x="358" y="97" type="line"/>
      <point x="375" y="53"/>
      <point x="415" y="-31"/>
    </contour>
    <contour>
      <point x="254" y="321" type="curve"/>
      <point x="281" y="422" type="line"/>
      <point x="235" y="430"/>
      <point x="216" y="457"/>
      <point x="216" y="479" type="curve" smooth="yes"/>
      <point x="216" y="511"/>
      <point x="241" y="524"/>
      <point x="295" y="524" type="curve" smooth="yes"/>
      <point x="334" y="524"/>
      <point x="370" y="520"/>
      <point x="395" y="514" type="curve"/>
      <point x="405" y="623" type="line"/>
      <point x="376" y="629"/>
      <point x="323" y="632"/>
      <point x="278" y="632" type="curve" smooth="yes"/>
      <point x="161" y="632"/>
      <point x="82" y="582"/>
      <point x="82" y="495" type="curve" smooth="yes"/>
      <point x="82" y="408"/>
      <point x="145" y="343"/>
    </contour>
  </outline>
</glyph>
<glyph name="sevendeva" format="2">
  <advance width="570"/>
  <unicode hex="096D"/>
  <outline>
    <contour>
      <point x="546" y="271" type="curve" smooth="yes"/>
      <point x="546" y="439"/>
      <point x="466" y="554"/>
      <point x="342" y="554" type="curve" smooth="yes"/>
      <point x="247" y="554"/>
      <point x="192" y="503"/>
      <point x="192" y="421" type="curve" smooth="yes"/>
      <point x="192" y="329"/>
      <point x="256" y="275"/>
      <point x="372" y="258" type="curve"/>
      <point x="391" y="357" type="line"/>
      <point x="322" y="363"/>
      <point x="308" y="387"/>
      <point x="308" y="413" type="curve" smooth="yes"/>
      <point x="308" y="433"/>
      <point x="319" y="448"/>
      <point x="342" y="448" type="curve" smooth="yes"/>
      <point x="392" y="448"/>
      <point x="415" y="368"/>
      <point x="415" y="278" type="curve" smooth="yes"/>
      <point x="415" y="197"/>
      <point x="397" y="147"/>
      <point x="330" y="147" type="curve" smooth="yes"/>
      <point x="220" y="147"/>
      <point x="168" y="313"/>
      <point x="150" y="603" type="curve"/>
      <point x="25" y="586" type="line"/>
      <point x="57" y="157"/>
      <point x="162" y="34"/>
      <point x="350" y="34" type="curve" smooth="yes"/>
      <point x="464" y="34"/>
      <point x="546" y="103"/>
    </contour>
  </outline>
</glyph>
<glyph name="eightdeva" format="2">
  <advance width="570"/>
  <unicode hex="096E"/>
  <outline>
    <contour>
      <point x="288" y="0" type="curve" smooth="yes"/>
      <point x="395" y="0"/>
      <point x="469" y="33"/>
      <point x="535" y="69" type="curve"/>
      <point x="481" y="175" type="line"/>
      <point x="418" y="133"/>
      <point x="366" y="113"/>
      <point x="294" y="113" type="curve" smooth="yes"/>
      <point x="237" y="113"/>
      <point x="203" y="135"/>
      <point x="203" y="174" type="curve" smooth="yes"/>
      <point x="203" y="210"/>
      <point x="215" y="233"/>
      <point x="275" y="306" type="curve" smooth="yes"/>
      <point x="474" y="544" type="line"/>
      <point x="365" y="632" type="line"/>
      <point x="177" y="403" type="line" smooth="yes"/>
      <point x="82" y="287"/>
      <point x="67" y="238"/>
      <point x="67" y="182" type="curve" smooth="yes"/>
      <point x="67" y="52"/>
      <point x="173" y="0"/>
    </contour>
  </outline>
</glyph>
<glyph name="ninedeva" format="2">
  <advance width="570"/>
  <unicode hex="096F"/>
  <outline>
    <contour>
      <point x="54" y="448" type="curve" smooth="yes"/>
      <point x="54" y="367"/>
      <point x="80" y="310"/>
      <point x="187" y="224" type="curve" smooth="yes"/>
      <point x="357" y="87" type="line" smooth="yes"/>
      <point x="385" y="65"/>
      <point x="403" y="43"/>
      <point x="403" y="21" type="curve" smooth="yes"/>
      <point x="403" y="1"/>
      <point x="395" y="-12"/>
      <point x="380" y="-28" type="curve"/>
      <point x="482" y="-100" type="line"/>
      <point x="525" y="-55"/>
      <point x="540" y="-10"/>
      <point x="540" y="33" type="curve" smooth="yes"/>
      <point x="540" y="82"/>
      <point x="521" y="115"/>
      <point x="462" y="159" type="curve" smooth="yes"/>
      <point x="335" y="254" type="line" smooth="yes"/>
      <point x="317" y="267"/>
      <point x="298" y="281"/>
      <point x="273" y="294" type="curve"/>
      <point x="232" y="287" type="line"/>
      <point x="245" y="281"/>
      <point x="258" y="277"/>
      <point x="271" y="277" type="curve"/>
      <point x="394" y="296"/>
      <point x="443" y="362"/>
      <point x="443" y="456" type="curve" smooth="yes"/>
      <point x="443" y="557"/>
      <point x="371" y="632"/>
      <point x="248" y="632" type="curve" smooth="yes"/>
      <point x="133" y="632"/>
      <point x="54" y="546"/>
    </contour>
    <contour>
      <point x="181" y="452" type="curve" smooth="yes"/>
      <point x="181" y="495"/>
      <point x="208" y="521"/>
      <point x="246" y="521" type="curve" smooth="yes"/>
      <point x="284" y="521"/>
      <point x="309" y="497"/>
      <point x="309" y="454" type="curve" smooth="yes"/>
      <point x="309" y="412"/>
      <point x="281" y="385"/>
      <point x="243" y="385" type="curve" smooth="yes"/>
      <point x="206" y="385"/>
      <point x="181" y="410"/>
    </contour>
  </outline>
</glyph>
<glyph name="abbreviationsigndeva" format="2">
  <advance width="445"/>
  <unicode hex="0970"/>
  <outline>
    <contour>
      <point x="228" y="265" type="curve" smooth="yes"/>
      <point x="321" y="265"/>
      <point x="391" y="328"/>
      <point x="391" y="419" type="curve" smooth="yes"/>
      <point x="391" y="511"/>
      <point x="321" y="572"/>
      <point x="228" y="572" type="curve" smooth="yes"/>
      <point x="130" y="572"/>
      <point x="64" y="507"/>
      <point x="64" y="419" type="curve" smooth="yes"/>
      <point x="64" y="323"/>
      <point x="138" y="265"/>
    </contour>
    <contour>
      <point x="228" y="355" type="curve" smooth="yes"/>
      <point x="190" y="355"/>
      <point x="161" y="379"/>
      <point x="161" y="419" type="curve" smooth="yes"/>
      <point x="161" y="454"/>
      <point x="186" y="482"/>
      <point x="228" y="482" type="curve" smooth="yes"/>
      <point x="267" y="482"/>
      <point x="294" y="456"/>
      <point x="294" y="419" type="curve" smooth="yes"/>
      <point x="294" y="381"/>
      <point x="267" y="355"/>
    </contour>
  </outline>
</glyph>
<glyph name="uni0971" format="2">
  <advance width="328"/>
  <unicode hex="0971"/>
  <outline>
    <contour>
      <point x="98" y="580" type="curve" smooth="yes"/>
      <point x="98" y="538"/>
      <point x="129" y="505"/>
      <point x="171" y="505" type="curve" smooth="yes"/>
      <point x="213" y="505"/>
      <point x="245" y="538"/>
      <point x="245" y="580" type="curve" smooth="yes"/>
      <point x="245" y="623"/>
      <point x="213" y="655"/>
      <point x="171" y="655" type="curve" smooth="yes"/>
      <point x="129" y="655"/>
      <point x="98" y="623"/>
    </contour>
  </outline>
</glyph>
<glyph name="marwariddadeva" format="2">
  <advance width="602"/>
  <unicode hex="0978"/>
  <outline>
    <contour>
      <point x="246" y="512" type="line"/>
      <point x="617" y="512" type="line"/>
      <point x="617" y="622" type="line"/>
      <point x="0" y="622" type="line"/>
      <point x="0" y="512" type="line"/>
      <point x="112" y="512" type="line"/>
      <point x="112" y="365" type="line"/>
      <point x="174" y="281" type="line"/>
      <point x="217" y="300"/>
      <point x="274" y="312"/>
      <point x="317" y="312" type="curve" smooth="yes"/>
      <point x="392" y="312"/>
      <point x="432" y="280"/>
      <point x="432" y="216" type="curve" smooth="yes"/>
      <point x="432" y="168"/>
      <point x="409" y="123"/>
      <point x="379" y="80" type="curve"/>
      <point x="496" y="15" type="line"/>
      <point x="545" y="90"/>
      <point x="566" y="167"/>
      <point x="566" y="225" type="curve" smooth="yes"/>
      <point x="566" y="332"/>
      <point x="507" y="422"/>
      <point x="320" y="422" type="curve" smooth="yes"/>
      <point x="291" y="422"/>
      <point x="244" y="419"/>
      <point x="202" y="410" type="curve"/>
      <point x="171" y="407" type="line"/>
      <point x="85" y="391"/>
      <point x="31" y="371"/>
      <point x="31" y="319" type="curve" smooth="yes"/>
      <point x="31" y="263"/>
      <point x="118" y="180"/>
      <point x="179" y="180" type="curve" smooth="yes"/>
      <point x="222" y="180"/>
      <point x="246" y="202"/>
      <point x="246" y="255" type="curve" smooth="yes"/>
    </contour>
  </outline>
</glyph>
<glyph name="heavyyadeva" format="2">
  <advance width="635"/>
  <unicode hex="097A"/>
  <outline>
    <contour>
      <point x="555" y="512" type="line"/>
      <point x="649" y="512" type="line"/>
      <point x="649" y="622" type="line"/>
      <point x="0" y="622" type="line"/>
      <point x="0" y="512" type="line"/>
      <point x="159" y="512" type="line"/>
      <point x="92" y="545" type="line"/>
      <point x="118" y="521"/>
      <point x="142" y="487"/>
      <point x="142" y="445" type="curve" smooth="yes"/>
      <point x="142" y="390"/>
      <point x="105" y="361"/>
      <point x="29" y="346" type="curve"/>
      <point x="53" y="208"/>
      <point x="131" y="106"/>
      <point x="273" y="106" type="curve" smooth="yes"/>
      <point x="336" y="106"/>
      <point x="386" y="120"/>
      <point x="431" y="150" type="curve"/>
      <point x="421" y="181" type="line"/>
      <point x="421" y="0" type="line"/>
      <point x="555" y="0" type="line"/>
    </contour>
    <contour>
      <point x="217" y="512" type="line"/>
      <point x="421" y="512" type="line"/>
      <point x="421" y="251" type="line"/>
      <point x="422" y="282" type="line"/>
      <point x="381" y="234"/>
      <point x="344" y="216"/>
      <point x="285" y="216" type="curve" smooth="yes"/>
      <point x="226" y="216"/>
      <point x="192" y="244"/>
      <point x="171" y="292" type="curve"/>
      <point x="161" y="284" type="line"/>
      <point x="227" y="306"/>
      <point x="260" y="343"/>
      <point x="267" y="396" type="curve"/>
      <point x="269" y="419" type="line"/>
      <point x="269" y="467"/>
      <point x="252" y="499"/>
      <point x="227" y="537" type="curve"/>
    </contour>
    <contour>
      <point x="445" y="254" type="line"/>
      <point x="241" y="519" type="line"/>
      <point x="191" y="479" type="line"/>
      <point x="222" y="429"/>
      <point x="262" y="374"/>
      <point x="304" y="319" type="curve" smooth="yes"/>
      <point x="386" y="213" type="line"/>
    </contour>
  </outline>
</glyph>
<glyph name="gabardeva" format="2">
  <advance width="610"/>
  <unicode hex="097B"/>
  <outline>
    <contour>
      <point x="246" y="512" type="line"/>
      <point x="396" y="512" type="line"/>
      <point x="396" y="-20" type="line"/>
      <point x="530" y="-20" type="line"/>
      <point x="530" y="512" type="line"/>
      <point x="624" y="512" type="line"/>
      <point x="624" y="622" type="line"/>
      <point x="0" y="622" type="line"/>
      <point x="0" y="512" type="line"/>
      <point x="112" y="512" type="line"/>
      <point x="112" y="383" type="line"/>
      <point x="102" y="383" type="line" smooth="yes"/>
      <point x="43" y="383"/>
      <point x="31" y="351"/>
      <point x="31" y="317" type="curve" smooth="yes"/>
      <point x="31" y="254"/>
      <point x="118" y="171"/>
      <point x="179" y="171" type="curve" smooth="yes"/>
      <point x="222" y="171"/>
      <point x="246" y="193"/>
      <point x="246" y="247" type="curve" smooth="yes"/>
    </contour>
    <contour>
      <point x="82" y="71" type="line"/>
      <point x="82" y="-20" type="line"/>
      <point x="437" y="-20" type="line"/>
      <point x="437" y="71" type="line"/>
    </contour>
  </outline>
</glyph>
<glyph name="jabardeva" format="2">
  <advance width="807"/>
  <unicode hex="097C"/>
  <outline>
    <contour>
      <point x="727" y="512" type="line"/>
      <point x="821" y="512" type="line"/>
      <point x="821" y="622" type="line"/>
      <point x="0" y="622" type="line"/>
      <point x="0" y="512" type="line"/>
      <point x="592" y="512" type="line"/>
      <point x="592" y="451" type="line"/>
      <point x="324" y="451" type="line"/>
      <point x="281" y="357" type="line"/>
      <point x="341" y="327"/>
      <point x="377" y="290"/>
      <point x="377" y="248" type="curve" smooth="yes"/>
      <point x="377" y="220"/>
      <point x="357" y="205"/>
      <point x="327" y="205" type="curve" smooth="yes"/>
      <point x="251" y="205"/>
      <point x="191" y="284"/>
      <point x="134" y="436" type="curve"/>
      <point x="20" y="394" type="line"/>
      <point x="107" y="154"/>
      <point x="218" y="92"/>
      <point x="339" y="92" type="curve" smooth="yes"/>
      <point x="435" y="92"/>
      <point x="510" y="140"/>
      <point x="510" y="230" type="curve" smooth="yes"/>
      <point x="510" y="298"/>
      <point x="459" y="357"/>
      <point x="381" y="400" type="curve"/>
      <point x="438" y="345" type="line"/>
      <point x="454" y="341"/>
      <point x="478" y="341"/>
      <point x="516" y="341" type="curve" smooth="yes"/>
      <point x="592" y="341" type="line"/>
      <point x="592" y="-20" type="line"/>
      <point x="727" y="-20" type="line"/>
    </contour>
    <contour>
      <point x="82" y="71" type="line"/>
      <point x="82" y="-20" type="line"/>
      <point x="609" y="-20" type="line"/>
      <point x="609" y="71" type="line"/>
    </contour>
  </outline>
</glyph>
<glyph name="uni097D" format="2">
  <advance width="501"/>
  <unicode hex="097D"/>
  <outline>
    <contour>
      <point x="240" y="632" type="curve" smooth="yes"/>
      <point x="166" y="632"/>
      <point x="105" y="616"/>
      <point x="52" y="594" type="curve"/>
      <point x="92" y="490" type="line"/>
      <point x="135" y="510"/>
      <point x="170" y="521"/>
      <point x="219" y="521" type="curve" smooth="yes"/>
      <point x="285" y="521"/>
      <point x="323" y="493"/>
      <point x="323" y="438" type="curve" smooth="yes"/>
      <point x="323" y="377"/>
      <point x="280" y="332"/>
      <point x="158" y="330" type="curve"/>
      <point x="158" y="0" type="line"/>
      <point x="292" y="0" type="line"/>
      <point x="292" y="234" type="line"/>
      <point x="396" y="260"/>
      <point x="458" y="323"/>
      <point x="458" y="432" type="curve" smooth="yes"/>
      <point x="458" y="551"/>
      <point x="380" y="632"/>
    </contour>
  </outline>
</glyph>
<glyph name="ddabardeva" format="2">
  <advance width="618"/>
  <unicode hex="097E"/>
  <outline>
    <contour>
      <point x="374" y="249" type="curve" smooth="yes"/>
      <point x="431" y="249"/>
      <point x="446" y="236"/>
      <point x="446" y="217" type="curve" smooth="yes"/>
      <point x="446" y="197"/>
      <point x="425" y="180"/>
      <point x="357" y="180" type="curve" smooth="yes"/>
      <point x="254" y="180"/>
      <point x="178" y="221"/>
      <point x="107" y="287" type="curve"/>
      <point x="17" y="209" type="line"/>
      <point x="115" y="129"/>
      <point x="210" y="82"/>
      <point x="361" y="82" type="curve" smooth="yes"/>
      <point x="516" y="82"/>
      <point x="581" y="139"/>
      <point x="581" y="211" type="curve" smooth="yes"/>
      <point x="581" y="289"/>
      <point x="516" y="340"/>
      <point x="398" y="340" type="curve" smooth="yes"/>
      <point x="357" y="340"/>
      <point x="320" y="337"/>
      <point x="293" y="330" type="curve"/>
      <point x="281" y="338"/>
      <point x="272" y="350"/>
      <point x="272" y="361" type="curve" smooth="yes"/>
      <point x="272" y="378"/>
      <point x="291" y="382"/>
      <point x="310" y="382" type="curve" smooth="yes"/>
      <point x="529" y="382" type="line"/>
      <point x="529" y="512" type="line"/>
      <point x="632" y="512" type="line"/>
      <point x="632" y="622" type="line"/>
      <point x="0" y="622" type="line"/>
      <point x="0" y="512" type="line"/>
      <point x="395" y="512" type="line"/>
      <point x="395" y="472" type="line"/>
      <point x="326" y="472" type="line" smooth="yes"/>
      <point x="244" y="472"/>
      <point x="210" y="464"/>
      <point x="179" y="443" type="curve"/>
      <point x="156" y="425"/>
      <point x="141" y="401"/>
      <point x="141" y="366" type="curve" smooth="yes"/>
      <point x="141" y="307"/>
      <point x="201" y="253"/>
      <point x="258" y="231" type="curve"/>
      <point x="295" y="243"/>
      <point x="339" y="249"/>
    </contour>
    <contour>
      <point x="44" y="71" type="line"/>
      <point x="44" y="-20" type="line"/>
      <point x="564" y="-20" type="line"/>
      <point x="564" y="71" type="line"/>
    </contour>
  </outline>
</glyph>
<glyph name="babardeva" format="2">
  <advance width="620"/>
  <unicode hex="097F"/>
  <outline>
    <contour>
      <point x="634" y="512" type="line"/>
      <point x="634" y="622" type="line"/>
      <point x="0" y="622" type="line"/>
      <point x="0" y="512" type="line"/>
      <point x="406" y="512" type="line"/>
      <point x="406" y="222" type="line"/>
      <point x="434" y="311" type="line"/>
      <point x="386" y="259"/>
      <point x="337" y="213"/>
      <point x="259" y="213" type="curve" smooth="yes"/>
      <point x="206" y="213"/>
      <point x="167" y="231"/>
      <point x="167" y="288" type="curve" smooth="yes"/>
      <point x="167" y="335"/>
      <point x="200" y="363"/>
      <point x="283" y="363" type="curve" smooth="yes"/>
      <point x="313" y="363"/>
      <point x="342" y="361"/>
      <point x="365" y="355" type="curve"/>
      <point x="375" y="458" type="line"/>
      <point x="353" y="462"/>
      <point x="307" y="465"/>
      <point x="252" y="465" type="curve" smooth="yes"/>
      <point x="125" y="465"/>
      <point x="37" y="397"/>
      <point x="37" y="289" type="curve" smooth="yes"/>
      <point x="37" y="172"/>
      <point x="130" y="113"/>
      <point x="242" y="113" type="curve" smooth="yes"/>
      <point x="332" y="113"/>
      <point x="378" y="131"/>
      <point x="440" y="170" type="curve"/>
      <point x="406" y="210" type="line"/>
      <point x="406" y="-20" type="line"/>
      <point x="540" y="-20" type="line"/>
      <point x="540" y="512" type="line"/>
    </contour>
    <contour>
      <point x="221" y="424" type="line"/>
      <point x="149" y="401" type="line"/>
      <point x="337" y="167" type="line"/>
      <point x="393" y="209" type="line"/>
    </contour>
    <contour>
      <point x="82" y="71" type="line"/>
      <point x="82" y="-20" type="line"/>
      <point x="437" y="-20" type="line"/>
      <point x="437" y="71" type="line"/>
    </contour>
  </outline>
</glyph>
<glyph name="uni1CD0" format="2">
  <unicode hex="1CD0"/>
  <outline>
    <contour>
      <point x="-388" y="986" type="line"/>
      <point x="-290" y="947" type="line"/>
      <point x="-198" y="1125" type="line"/>
      <point x="-92" y="947" type="line"/>
      <point x="-6" y="986" type="line"/>
      <point x="-151" y="1222" type="line"/>
      <point x="-257" y="1222" type="line"/>
    </contour>
  </outline>
</glyph>
<glyph name="uni1CD1" format="2">
  <unicode hex="1CD1"/>
  <outline>
    <contour>
      <point x="-389" y="1013" type="line"/>
      <point x="-295" y="975" type="line"/>
      <point x="-198" y="1161" type="line"/>
      <point x="-89" y="975" type="line"/>
      <point x="-6" y="1014" type="line"/>
      <point x="-151" y="1239" type="line"/>
      <point x="-257" y="1239" type="line"/>
    </contour>
    <contour>
      <point x="-242" y="1065" type="line"/>
      <point x="-242" y="901" type="line"/>
      <point x="-147" y="901" type="line"/>
      <point x="-147" y="1065" type="line"/>
    </contour>
  </outline>
</glyph>
<glyph name="uni1CD2" format="2">
  <unicode hex="1CD2"/>
  <outline>
    <contour>
      <point x="-374" y="1070" type="line"/>
      <point x="-374" y="979" type="line"/>
      <point x="-2" y="979" type="line"/>
      <point x="-2" y="1070" type="line"/>
    </contour>
  </outline>
</glyph>
<glyph name="uni1CD3" format="2">
  <advance width="306"/>
  <unicode hex="1CD3"/>
  <outline>
    <contour>
      <point x="199" y="896" type="line"/>
      <point x="169" y="659" type="line"/>
      <point x="247" y="659" type="line"/>
      <point x="276" y="896" type="line"/>
    </contour>
    <contour>
      <point x="76" y="896" type="line"/>
      <point x="47" y="659" type="line"/>
      <point x="125" y="659" type="line"/>
      <point x="154" y="896" type="line"/>
    </contour>
  </outline>
</glyph>
<glyph name="uni1CD4" format="2">
  <unicode hex="1CD4"/>
  <outline>
    <contour>
      <point x="-316" y="333" type="line"/>
      <point x="-316" y="243" type="line"/>
      <point x="8" y="243" type="line"/>
      <point x="8" y="333" type="line"/>
    </contour>
  </outline>
</glyph>
<glyph name="uni1CD5" format="2">
  <unicode hex="1CD5"/>
  <outline>
    <contour>
      <point x="-215" y="-63" type="curve"/>
      <point x="-298" y="-63" type="line"/>
      <point x="-300" y="-123"/>
      <point x="-314" y="-148"/>
      <point x="-347" y="-148" type="curve" smooth="yes"/>
      <point x="-376" y="-148"/>
      <point x="-394" y="-135"/>
      <point x="-397" y="-61" type="curve"/>
      <point x="-492" y="-64" type="line"/>
      <point x="-486" y="-199"/>
      <point x="-435" y="-243"/>
      <point x="-357" y="-243" type="curve" smooth="yes"/>
      <point x="-267" y="-243"/>
      <point x="-240" y="-187"/>
    </contour>
    <contour>
      <point x="-212" y="-63" type="curve"/>
      <point x="-295" y="-63" type="line"/>
      <point x="-271" y="-187"/>
      <point x="-244" y="-243"/>
      <point x="-153" y="-243" type="curve" smooth="yes"/>
      <point x="-76" y="-243"/>
      <point x="-24" y="-199"/>
      <point x="-19" y="-64" type="curve"/>
      <point x="-113" y="-61" type="line"/>
      <point x="-117" y="-135"/>
      <point x="-134" y="-148"/>
      <point x="-163" y="-148" type="curve" smooth="yes"/>
      <point x="-196" y="-148"/>
      <point x="-210" y="-123"/>
    </contour>
  </outline>
</glyph>
<glyph name="uni1CD6" format="2">
  <unicode hex="1CD6"/>
  <outline>
    <contour>
      <point x="-466" y="-48" type="line"/>
      <point x="-466" y="-237" type="line"/>
      <point x="-75" y="-237" type="line"/>
      <point x="-75" y="-146" type="line"/>
      <point x="-363" y="-146" type="line"/>
      <point x="-363" y="-48" type="line"/>
    </contour>
  </outline>
</glyph>
<glyph name="uni1CD7" format="2">
  <unicode hex="1CD7"/>
  <outline>
    <contour>
      <point x="-467" y="-143" type="curve" smooth="yes"/>
      <point x="-467" y="-181"/>
      <point x="-455" y="-214"/>
      <point x="-428" y="-236" type="curve" smooth="yes"/>
      <point x="-404" y="-256"/>
      <point x="-378" y="-268"/>
      <point x="-311" y="-268" type="curve" smooth="yes"/>
      <point x="-75" y="-268" type="line"/>
      <point x="-75" y="-177" type="line"/>
      <point x="-299" y="-177" type="line" smooth="yes"/>
      <point x="-333" y="-177"/>
      <point x="-345" y="-173"/>
      <point x="-352" y="-168" type="curve" smooth="yes"/>
      <point x="-361" y="-162"/>
      <point x="-363" y="-154"/>
      <point x="-363" y="-146" type="curve" smooth="yes"/>
      <point x="-363" y="-123"/>
      <point x="-344" y="-115"/>
      <point x="-314" y="-115" type="curve" smooth="yes"/>
      <point x="-299" y="-115" type="line"/>
      <point x="-307" y="-22" type="line"/>
      <point x="-398" y="-22"/>
      <point x="-467" y="-65"/>
    </contour>
  </outline>
</glyph>
<glyph name="uni1CD9" format="2">
  <unicode hex="1CD9"/>
  <outline>
    <contour>
      <point x="-147" y="-127" type="line"/>
      <point x="31" y="-253" type="line"/>
      <point x="96" y="-166" type="line"/>
      <point x="-123" y="-24" type="line"/>
      <point x="-194" y="-24" type="line"/>
      <point x="-341" y="-187" type="line"/>
      <point x="-249" y="-253" type="line"/>
    </contour>
  </outline>
</glyph>
<glyph name="uni1CDA" format="2">
  <unicode hex="1CDA"/>
  <outline>
    <contour>
      <point x="-125" y="881" type="line"/>
      <point x="-125" y="671" type="line"/>
      <point x="-34" y="671" type="line"/>
      <point x="-34" y="881" type="line"/>
    </contour>
    <contour>
      <point x="-260" y="881" type="line"/>
      <point x="-260" y="671" type="line"/>
      <point x="-170" y="671" type="line"/>
      <point x="-170" y="881" type="line"/>
    </contour>
  </outline>
</glyph>
<glyph name="uni1CDB" format="2">
  <unicode hex="1CDB"/>
  <outline>
    <contour>
      <point x="-311" y="881" type="line"/>
      <point x="-311" y="671" type="line"/>
      <point x="-231" y="671" type="line"/>
      <point x="-231" y="881" type="line"/>
    </contour>
    <contour>
      <point x="-187" y="881" type="line"/>
      <point x="-187" y="671" type="line"/>
      <point x="-107" y="671" type="line"/>
      <point x="-107" y="881" type="line"/>
    </contour>
    <contour>
      <point x="-63" y="881" type="line"/>
      <point x="-63" y="671" type="line"/>
      <point x="17" y="671" type="line"/>
      <point x="17" y="881" type="line"/>
    </contour>
  </outline>
</glyph>
<glyph name="uni1CDD" format="2">
  <unicode hex="1CDD"/>
  <outline>
    <contour>
      <point x="-48" y="-157" type="line"/>
      <point x="-151" y="-51" type="line"/>
      <point x="-255" y="-157" type="line"/>
      <point x="-151" y="-263" type="line"/>
    </contour>
  </outline>
</glyph>
<glyph name="uni1CDE" format="2">
  <unicode hex="1CDE"/>
  <outline>
    <contour>
      <point x="-213" y="-123" type="curve" smooth="yes"/>
      <point x="-213" y="-161"/>
      <point x="-185" y="-190"/>
      <point x="-146" y="-190" type="curve" smooth="yes"/>
      <point x="-108" y="-190"/>
      <point x="-81" y="-161"/>
      <point x="-81" y="-123" type="curve" smooth="yes"/>
      <point x="-81" y="-84"/>
      <point x="-108" y="-55"/>
      <point x="-146" y="-55" type="curve" smooth="yes"/>
      <point x="-185" y="-55"/>
      <point x="-213" y="-84"/>
    </contour>
    <contour>
      <point x="-375" y="-123" type="curve" smooth="yes"/>
      <point x="-375" y="-161"/>
      <point x="-347" y="-190"/>
      <point x="-309" y="-190" type="curve" smooth="yes"/>
      <point x="-271" y="-190"/>
      <point x="-243" y="-161"/>
      <point x="-243" y="-123" type="curve" smooth="yes"/>
      <point x="-243" y="-84"/>
      <point x="-271" y="-55"/>
      <point x="-309" y="-55" type="curve" smooth="yes"/>
      <point x="-347" y="-55"/>
      <point x="-375" y="-84"/>
    </contour>
  </outline>
</glyph>
<glyph name="uni1CDF" format="2">
  <unicode hex="1CDF"/>
  <outline>
    <contour>
      <point x="-213" y="-123" type="curve" smooth="yes"/>
      <point x="-213" y="-161"/>
      <point x="-185" y="-190"/>
      <point x="-146" y="-190" type="curve" smooth="yes"/>
      <point x="-108" y="-190"/>
      <point x="-81" y="-161"/>
      <point x="-81" y="-123" type="curve" smooth="yes"/>
      <point x="-81" y="-84"/>
      <point x="-108" y="-55"/>
      <point x="-146" y="-55" type="curve" smooth="yes"/>
      <point x="-185" y="-55"/>
      <point x="-213" y="-84"/>
    </contour>
    <contour>
      <point x="-375" y="-123" type="curve" smooth="yes"/>
      <point x="-375" y="-161"/>
      <point x="-347" y="-190"/>
      <point x="-309" y="-190" type="curve" smooth="yes"/>
      <point x="-271" y="-190"/>
      <point x="-243" y="-161"/>
      <point x="-243" y="-123" type="curve" smooth="yes"/>
      <point x="-243" y="-84"/>
      <point x="-271" y="-55"/>
      <point x="-309" y="-55" type="curve" smooth="yes"/>
      <point x="-347" y="-55"/>
      <point x="-375" y="-84"/>
    </contour>
    <contour>
      <point x="-537" y="-123" type="curve" smooth="yes"/>
      <point x="-537" y="-161"/>
      <point x="-509" y="-190"/>
      <point x="-471" y="-190" type="curve" smooth="yes"/>
      <point x="-433" y="-190"/>
      <point x="-405" y="-161"/>
      <point x="-405" y="-123" type="curve" smooth="yes"/>
      <point x="-405" y="-84"/>
      <point x="-433" y="-55"/>
      <point x="-471" y="-55" type="curve" smooth="yes"/>
      <point x="-509" y="-55"/>
      <point x="-537" y="-84"/>
    </contour>
  </outline>
</glyph>
<glyph name="uni1CE0" format="2">
  <unicode hex="1CE0"/>
  <outline>
    <contour>
      <point x="36" y="660" type="curve" smooth="yes"/>
      <point x="36" y="570"/>
      <point x="109" y="520"/>
      <point x="206" y="520" type="curve"/>
      <point x="216" y="520" type="line"/>
      <point x="221" y="622" type="line"/>
      <point x="199" y="622" type="line" smooth="yes"/>
      <point x="169" y="622"/>
      <point x="149" y="631"/>
      <point x="149" y="659" type="curve" smooth="yes"/>
      <point x="149" y="668"/>
      <point x="152" y="677"/>
      <point x="160" y="684" type="curve" smooth="yes"/>
      <point x="168" y="690"/>
      <point x="179" y="694"/>
      <point x="214" y="694" type="curve" smooth="yes"/>
      <point x="439" y="694" type="line"/>
      <point x="439" y="804" type="line"/>
      <point x="224" y="804" type="line" smooth="yes"/>
      <point x="145" y="804"/>
      <point x="109" y="790"/>
      <point x="81" y="768" type="curve" smooth="yes"/>
      <point x="49" y="742"/>
      <point x="36" y="704"/>
    </contour>
  </outline>
</glyph>
<glyph name="uni1CE1" format="2">
  <advance width="445"/>
  <unicode hex="1CE1"/>
  <outline>
    <contour>
      <point x="398" y="720" type="curve"/>
      <point x="491" y="796" type="line"/>
      <point x="443" y="849"/>
      <point x="394" y="873"/>
      <point x="322" y="873" type="curve" smooth="yes"/>
      <point x="220" y="873"/>
      <point x="139" y="813"/>
      <point x="139" y="670" type="curve" smooth="yes"/>
      <point x="139" y="520"/>
      <point x="182" y="315"/>
      <point x="182" y="96" type="curve" smooth="yes"/>
      <point x="182" y="-9"/>
      <point x="151" y="-80"/>
      <point x="15" y="-80" type="curve" smooth="yes"/>
      <point x="-4" y="-80"/>
      <point x="-23" y="-79"/>
      <point x="-37" y="-77" type="curve"/>
      <point x="-39" y="-188" type="line"/>
      <point x="-24" y="-190"/>
      <point x="6" y="-191"/>
      <point x="28" y="-191" type="curve" smooth="yes"/>
      <point x="264" y="-191"/>
      <point x="316" y="-78"/>
      <point x="316" y="70" type="curve" smooth="yes"/>
      <point x="316" y="311"/>
      <point x="274" y="496"/>
      <point x="274" y="683" type="curve" smooth="yes"/>
      <point x="274" y="738"/>
      <point x="294" y="762"/>
      <point x="326" y="762" type="curve" smooth="yes"/>
      <point x="353" y="762"/>
      <point x="376" y="745"/>
    </contour>
  </outline>
</glyph>
<glyph name="uni1CE2" format="2">
  <unicode hex="1CE2"/>
  <outline>
    <contour>
      <point x="-287" y="322" type="line"/>
      <point x="-287" y="231" type="line"/>
      <point x="9" y="231" type="line"/>
      <point x="9" y="322" type="line"/>
    </contour>
  </outline>
</glyph>
<glyph name="uni1CE3" format="2">
  <unicode hex="1CE3"/>
  <outline>
    <contour>
      <point x="42" y="585" type="curve"/>
      <point x="-27" y="499" type="line"/>
      <point x="-10" y="487"/>
      <point x="12" y="470"/>
      <point x="26" y="458" type="curve" smooth="yes"/>
      <point x="85" y="405"/>
      <point x="98" y="388"/>
      <point x="98" y="361" type="curve" smooth="yes"/>
      <point x="98" y="349"/>
      <point x="93" y="339"/>
      <point x="83" y="334" type="curve" smooth="yes"/>
      <point x="67" y="326"/>
      <point x="52" y="325"/>
      <point x="6" y="325" type="curve" smooth="yes"/>
      <point x="-108" y="325" type="line"/>
      <point x="-108" y="229" type="line"/>
      <point x="20" y="229" type="line" smooth="yes"/>
      <point x="110" y="229"/>
      <point x="143" y="240"/>
      <point x="172" y="259" type="curve" smooth="yes"/>
      <point x="204" y="281"/>
      <point x="222" y="313"/>
      <point x="222" y="359" type="curve" smooth="yes"/>
      <point x="222" y="415"/>
      <point x="198" y="459"/>
      <point x="115" y="528" type="curve" smooth="yes"/>
      <point x="86" y="552"/>
      <point x="60" y="572"/>
    </contour>
  </outline>
</glyph>
<glyph name="uni1CE4" format="2">
  <unicode hex="1CE4"/>
  <outline>
    <contour>
      <point x="280" y="499" type="curve"/>
      <point x="211" y="585" type="line"/>
      <point x="193" y="572"/>
      <point x="167" y="552"/>
      <point x="139" y="528" type="curve" smooth="yes"/>
      <point x="56" y="459"/>
      <point x="32" y="415"/>
      <point x="32" y="359" type="curve" smooth="yes"/>
      <point x="32" y="313"/>
      <point x="49" y="281"/>
      <point x="82" y="259" type="curve" smooth="yes"/>
      <point x="110" y="240"/>
      <point x="144" y="229"/>
      <point x="233" y="229" type="curve" smooth="yes"/>
      <point x="362" y="229" type="line"/>
      <point x="362" y="325" type="line"/>
      <point x="248" y="325" type="line" smooth="yes"/>
      <point x="201" y="325"/>
      <point x="186" y="326"/>
      <point x="171" y="334" type="curve" smooth="yes"/>
      <point x="161" y="339"/>
      <point x="156" y="349"/>
      <point x="156" y="361" type="curve" smooth="yes"/>
      <point x="156" y="388"/>
      <point x="168" y="405"/>
      <point x="227" y="458" type="curve" smooth="yes"/>
      <point x="241" y="470"/>
      <point x="263" y="487"/>
    </contour>
  </outline>
</glyph>
<glyph name="uni1CE5" format="2">
  <unicode hex="1CE5"/>
  <outline>
    <contour>
      <point x="211" y="-31" type="curve"/>
      <point x="280" y="56" type="line"/>
      <point x="263" y="68"/>
      <point x="241" y="84"/>
      <point x="227" y="97" type="curve" smooth="yes"/>
      <point x="168" y="149"/>
      <point x="156" y="167"/>
      <point x="156" y="194" type="curve" smooth="yes"/>
      <point x="156" y="206"/>
      <point x="161" y="215"/>
      <point x="171" y="221" type="curve" smooth="yes"/>
      <point x="186" y="229"/>
      <point x="201" y="229"/>
      <point x="248" y="229" type="curve" smooth="yes"/>
      <point x="362" y="229" type="line"/>
      <point x="362" y="325" type="line"/>
      <point x="233" y="325" type="line" smooth="yes"/>
      <point x="144" y="325"/>
      <point x="110" y="314"/>
      <point x="82" y="295" type="curve" smooth="yes"/>
      <point x="49" y="274"/>
      <point x="32" y="242"/>
      <point x="32" y="196" type="curve" smooth="yes"/>
      <point x="32" y="140"/>
      <point x="56" y="95"/>
      <point x="139" y="26" type="curve" smooth="yes"/>
      <point x="167" y="3"/>
      <point x="193" y="-18"/>
    </contour>
  </outline>
</glyph>
<glyph name="uni1CE6" format="2">
  <unicode hex="1CE6"/>
  <outline>
    <contour>
      <point x="-27" y="56" type="curve"/>
      <point x="42" y="-31" type="line"/>
      <point x="60" y="-18"/>
      <point x="86" y="3"/>
      <point x="115" y="26" type="curve" smooth="yes"/>
      <point x="198" y="95"/>
      <point x="222" y="140"/>
      <point x="222" y="196" type="curve" smooth="yes"/>
      <point x="222" y="242"/>
      <point x="204" y="274"/>
      <point x="172" y="295" type="curve" smooth="yes"/>
      <point x="143" y="314"/>
      <point x="110" y="325"/>
      <point x="20" y="325" type="curve" smooth="yes"/>
      <point x="-108" y="325" type="line"/>
      <point x="-108" y="229" type="line"/>
      <point x="6" y="229" type="line" smooth="yes"/>
      <point x="52" y="229"/>
      <point x="67" y="229"/>
      <point x="83" y="221" type="curve" smooth="yes"/>
      <point x="93" y="215"/>
      <point x="98" y="206"/>
      <point x="98" y="194" type="curve" smooth="yes"/>
      <point x="98" y="167"/>
      <point x="85" y="149"/>
      <point x="26" y="97" type="curve" smooth="yes"/>
      <point x="12" y="84"/>
      <point x="-10" y="68"/>
    </contour>
  </outline>
</glyph>
<glyph name="uni1CE7" format="2">
  <unicode hex="1CE7"/>
  <outline>
    <contour>
      <point x="-108" y="325" type="line"/>
      <point x="-108" y="229" type="line"/>
      <point x="20" y="229" type="line" smooth="yes"/>
      <point x="110" y="229"/>
      <point x="143" y="240"/>
      <point x="172" y="259" type="curve" smooth="yes"/>
      <point x="204" y="281"/>
      <point x="222" y="313"/>
      <point x="222" y="359" type="curve" smooth="yes"/>
      <point x="222" y="412"/>
      <point x="193" y="453"/>
      <point x="105" y="526" type="curve" smooth="yes"/>
      <point x="48" y="572"/>
      <point x="34" y="593"/>
      <point x="34" y="624" type="curve" smooth="yes"/>
      <point x="34" y="654"/>
      <point x="53" y="670"/>
      <point x="83" y="670" type="curve" smooth="yes"/>
      <point x="134" y="670"/>
      <point x="174" y="629"/>
      <point x="208" y="577" type="curve"/>
      <point x="309" y="628" type="line"/>
      <point x="246" y="727"/>
      <point x="177" y="774"/>
      <point x="77" y="774" type="curve" smooth="yes"/>
      <point x="-21" y="774"/>
      <point x="-90" y="717"/>
      <point x="-90" y="630" type="curve" smooth="yes"/>
      <point x="-90" y="560"/>
      <point x="-61" y="511"/>
      <point x="14" y="453" type="curve" smooth="yes"/>
      <point x="83" y="398"/>
      <point x="98" y="382"/>
      <point x="98" y="361" type="curve" smooth="yes"/>
      <point x="98" y="349"/>
      <point x="93" y="339"/>
      <point x="83" y="334" type="curve" smooth="yes"/>
      <point x="68" y="326"/>
      <point x="52" y="325"/>
      <point x="6" y="325" type="curve" smooth="yes"/>
    </contour>
  </outline>
</glyph>
<glyph name="uni1CE8" format="2">
  <unicode hex="1CE8"/>
  <outline>
    <contour>
      <point x="384" y="229" type="line"/>
      <point x="384" y="325" type="line"/>
      <point x="255" y="325" type="line" smooth="yes"/>
      <point x="166" y="325"/>
      <point x="132" y="314"/>
      <point x="104" y="295" type="curve" smooth="yes"/>
      <point x="71" y="274"/>
      <point x="54" y="242"/>
      <point x="54" y="196" type="curve" smooth="yes"/>
      <point x="54" y="143"/>
      <point x="82" y="102"/>
      <point x="170" y="29" type="curve" smooth="yes"/>
      <point x="227" y="-18"/>
      <point x="241" y="-39"/>
      <point x="241" y="-69" type="curve" smooth="yes"/>
      <point x="241" y="-99"/>
      <point x="222" y="-115"/>
      <point x="192" y="-115" type="curve" smooth="yes"/>
      <point x="141" y="-115"/>
      <point x="102" y="-75"/>
      <point x="68" y="-22" type="curve"/>
      <point x="-34" y="-74" type="line"/>
      <point x="30" y="-172"/>
      <point x="99" y="-220"/>
      <point x="199" y="-220" type="curve" smooth="yes"/>
      <point x="297" y="-220"/>
      <point x="365" y="-163"/>
      <point x="365" y="-76" type="curve" smooth="yes"/>
      <point x="365" y="-5"/>
      <point x="336" y="43"/>
      <point x="261" y="102" type="curve" smooth="yes"/>
      <point x="192" y="156"/>
      <point x="178" y="173"/>
      <point x="178" y="194" type="curve" smooth="yes"/>
      <point x="178" y="206"/>
      <point x="183" y="216"/>
      <point x="193" y="221" type="curve"/>
      <point x="208" y="229"/>
      <point x="223" y="229"/>
      <point x="270" y="229" type="curve" smooth="yes"/>
    </contour>
  </outline>
</glyph>
<glyph name="uni1CE9" format="2">
  <advance width="880"/>
  <unicode hex="1CE9"/>
  <outline>
    <contour>
      <point x="440" y="0" type="curve" smooth="yes"/>
      <point x="715" y="0"/>
      <point x="839" y="150"/>
      <point x="839" y="349" type="curve" smooth="yes"/>
      <point x="839" y="533"/>
      <point x="745" y="632"/>
      <point x="623" y="632" type="curve" smooth="yes"/>
      <point x="500" y="632"/>
      <point x="457" y="565"/>
      <point x="457" y="495" type="curve" smooth="yes"/>
      <point x="457" y="372"/>
      <point x="555" y="343"/>
      <point x="631" y="343" type="curve" smooth="yes"/>
      <point x="648" y="343"/>
      <point x="671" y="345"/>
      <point x="688" y="348" type="curve"/>
      <point x="677" y="444" type="line"/>
      <point x="667" y="442"/>
      <point x="657" y="440"/>
      <point x="646" y="440" type="curve" smooth="yes"/>
      <point x="593" y="440"/>
      <point x="570" y="458"/>
      <point x="570" y="493" type="curve" smooth="yes"/>
      <point x="570" y="521"/>
      <point x="590" y="539"/>
      <point x="619" y="539" type="curve" smooth="yes"/>
      <point x="677" y="539"/>
      <point x="707" y="466"/>
      <point x="707" y="357" type="curve" smooth="yes"/>
      <point x="707" y="344" type="line" smooth="yes"/>
      <point x="707" y="242"/>
      <point x="648" y="114"/>
      <point x="427" y="114" type="curve" smooth="yes"/>
      <point x="244" y="114"/>
      <point x="181" y="235"/>
      <point x="181" y="348" type="curve" smooth="yes"/>
      <point x="181" y="361" type="line" smooth="yes"/>
      <point x="181" y="467"/>
      <point x="213" y="539"/>
      <point x="271" y="539" type="curve" smooth="yes"/>
      <point x="298" y="539"/>
      <point x="317" y="523"/>
      <point x="317" y="495" type="curve" smooth="yes"/>
      <point x="317" y="461"/>
      <point x="295" y="440"/>
      <point x="242" y="440" type="curve" smooth="yes"/>
      <point x="231" y="440"/>
      <point x="221" y="441"/>
      <point x="211" y="444" type="curve"/>
      <point x="200" y="349" type="line"/>
      <point x="217" y="345"/>
      <point x="236" y="343"/>
      <point x="257" y="343" type="curve" smooth="yes"/>
      <point x="373" y="343"/>
      <point x="431" y="398"/>
      <point x="431" y="490" type="curve" smooth="yes"/>
      <point x="431" y="568"/>
      <point x="380" y="632"/>
      <point x="279" y="632" type="curve" smooth="yes"/>
      <point x="146" y="632"/>
      <point x="49" y="528"/>
      <point x="49" y="365" type="curve" smooth="yes"/>
      <point x="49" y="143"/>
      <point x="181" y="0"/>
    </contour>
  </outline>
</glyph>
<glyph name="uni1CEA" format="2">
  <advance width="803"/>
  <unicode hex="1CEA"/>
  <outline>
    <contour>
      <point x="401" y="0" type="curve" smooth="yes"/>
      <point x="620" y="0"/>
      <point x="702" y="86"/>
      <point x="702" y="199" type="curve" smooth="yes"/>
      <point x="702" y="277"/>
      <point x="666" y="320"/>
      <point x="614" y="376" type="curve" smooth="yes"/>
      <point x="571" y="423"/>
      <point x="555" y="444"/>
      <point x="555" y="476" type="curve" smooth="yes"/>
      <point x="555" y="509"/>
      <point x="574" y="540"/>
      <point x="617" y="540" type="curve" smooth="yes"/>
      <point x="635" y="540"/>
      <point x="660" y="532"/>
      <point x="660" y="502" type="curve" smooth="yes"/>
      <point x="660" y="479"/>
      <point x="640" y="466"/>
      <point x="595" y="458" type="curve"/>
      <point x="643" y="366" type="line"/>
      <point x="728" y="389"/>
      <point x="772" y="427"/>
      <point x="772" y="501" type="curve" smooth="yes"/>
      <point x="772" y="583"/>
      <point x="711" y="632"/>
      <point x="607" y="632" type="curve" smooth="yes"/>
      <point x="460" y="632"/>
      <point x="423" y="548"/>
      <point x="423" y="480" type="curve" smooth="yes"/>
      <point x="423" y="420"/>
      <point x="442" y="385"/>
      <point x="498" y="326" type="curve" smooth="yes"/>
      <point x="546" y="275"/>
      <point x="568" y="248"/>
      <point x="568" y="209" type="curve" smooth="yes"/>
      <point x="568" y="152"/>
      <point x="529" y="114"/>
      <point x="400" y="114" type="curve" smooth="yes"/>
      <point x="277" y="114"/>
      <point x="236" y="152"/>
      <point x="236" y="205" type="curve" smooth="yes"/>
      <point x="236" y="244"/>
      <point x="253" y="266"/>
      <point x="307" y="319" type="curve" smooth="yes"/>
      <point x="367" y="378"/>
      <point x="388" y="417"/>
      <point x="388" y="480" type="curve" smooth="yes"/>
      <point x="388" y="548"/>
      <point x="342" y="632"/>
      <point x="199" y="632" type="curve" smooth="yes"/>
      <point x="97" y="632"/>
      <point x="38" y="580"/>
      <point x="38" y="500" type="curve" smooth="yes"/>
      <point x="38" y="437"/>
      <point x="74" y="392"/>
      <point x="166" y="368" type="curve"/>
      <point x="216" y="458" type="line"/>
      <point x="173" y="465"/>
      <point x="151" y="479"/>
      <point x="151" y="502" type="curve" smooth="yes"/>
      <point x="151" y="532"/>
      <point x="175" y="540"/>
      <point x="198" y="540" type="curve" smooth="yes"/>
      <point x="237" y="540"/>
      <point x="256" y="512"/>
      <point x="256" y="479" type="curve" smooth="yes"/>
      <point x="256" y="447"/>
      <point x="234" y="419"/>
      <point x="195" y="378" type="curve" smooth="yes"/>
      <point x="138" y="319"/>
      <point x="102" y="277"/>
      <point x="102" y="204" type="curve" smooth="yes"/>
      <point x="102" y="86"/>
      <point x="196" y="0"/>
    </contour>
  </outline>
</glyph>
<glyph name="uni1CEB" format="2">
  <advance width="822"/>
  <unicode hex="1CEB"/>
  <outline>
    <contour>
      <point x="393" y="0" type="curve" smooth="yes"/>
      <point x="649" y="0"/>
      <point x="790" y="144"/>
      <point x="790" y="337" type="curve" smooth="yes"/>
      <point x="790" y="491"/>
      <point x="696" y="583"/>
      <point x="569" y="583" type="curve" smooth="yes"/>
      <point x="454" y="583"/>
      <point x="408" y="516"/>
      <point x="408" y="446" type="curve" smooth="yes"/>
      <point x="408" y="323"/>
      <point x="506" y="294"/>
      <point x="582" y="294" type="curve" smooth="yes"/>
      <point x="599" y="294"/>
      <point x="622" y="296"/>
      <point x="639" y="299" type="curve"/>
      <point x="628" y="395" type="line"/>
      <point x="619" y="393"/>
      <point x="608" y="392"/>
      <point x="597" y="392" type="curve" smooth="yes"/>
      <point x="544" y="392"/>
      <point x="521" y="410"/>
      <point x="521" y="444" type="curve" smooth="yes"/>
      <point x="521" y="472"/>
      <point x="541" y="490"/>
      <point x="570" y="490" type="curve" smooth="yes"/>
      <point x="628" y="490"/>
      <point x="658" y="426"/>
      <point x="658" y="338" type="curve" smooth="yes"/>
      <point x="658" y="227"/>
      <point x="582" y="114"/>
      <point x="385" y="114" type="curve" smooth="yes"/>
      <point x="277" y="114"/>
      <point x="236" y="152"/>
      <point x="236" y="205" type="curve" smooth="yes"/>
      <point x="236" y="244"/>
      <point x="253" y="266"/>
      <point x="307" y="319" type="curve" smooth="yes"/>
      <point x="367" y="378"/>
      <point x="388" y="417"/>
      <point x="388" y="480" type="curve" smooth="yes"/>
      <point x="388" y="548"/>
      <point x="342" y="632"/>
      <point x="199" y="632" type="curve" smooth="yes"/>
      <point x="97" y="632"/>
      <point x="38" y="580"/>
      <point x="38" y="500" type="curve" smooth="yes"/>
      <point x="38" y="437"/>
      <point x="74" y="392"/>
      <point x="166" y="368" type="curve"/>
      <point x="216" y="458" type="line"/>
      <point x="173" y="465"/>
      <point x="151" y="479"/>
      <point x="151" y="502" type="curve" smooth="yes"/>
      <point x="151" y="532"/>
      <point x="175" y="540"/>
      <point x="198" y="540" type="curve" smooth="yes"/>
      <point x="237" y="540"/>
      <point x="256" y="512"/>
      <point x="256" y="479" type="curve" smooth="yes"/>
      <point x="256" y="447"/>
      <point x="234" y="419"/>
      <point x="195" y="378" type="curve" smooth="yes"/>
      <point x="138" y="319"/>
      <point x="102" y="277"/>
      <point x="102" y="204" type="curve" smooth="yes"/>
      <point x="102" y="86"/>
      <point x="196" y="0"/>
    </contour>
  </outline>
</glyph>
<glyph name="uni1CEC" format="2">
  <advance width="922"/>
  <unicode hex="1CEC"/>
  <outline>
    <contour>
      <point x="623" y="358" type="curve" smooth="yes"/>
      <point x="623" y="203"/>
      <point x="526" y="114"/>
      <point x="377" y="114" type="curve" smooth="yes"/>
      <point x="274" y="114"/>
      <point x="236" y="152"/>
      <point x="236" y="205" type="curve" smooth="yes"/>
      <point x="236" y="244"/>
      <point x="253" y="266"/>
      <point x="307" y="319" type="curve" smooth="yes"/>
      <point x="367" y="378"/>
      <point x="388" y="417"/>
      <point x="388" y="480" type="curve" smooth="yes"/>
      <point x="388" y="548"/>
      <point x="342" y="632"/>
      <point x="199" y="632" type="curve" smooth="yes"/>
      <point x="97" y="632"/>
      <point x="38" y="580"/>
      <point x="38" y="500" type="curve" smooth="yes"/>
      <point x="38" y="437"/>
      <point x="74" y="392"/>
      <point x="166" y="368" type="curve"/>
      <point x="216" y="458" type="line"/>
      <point x="173" y="465"/>
      <point x="151" y="479"/>
      <point x="151" y="502" type="curve" smooth="yes"/>
      <point x="151" y="532"/>
      <point x="175" y="540"/>
      <point x="198" y="540" type="curve" smooth="yes"/>
      <point x="237" y="540"/>
      <point x="256" y="512"/>
      <point x="256" y="479" type="curve" smooth="yes"/>
      <point x="256" y="447"/>
      <point x="234" y="419"/>
      <point x="195" y="378" type="curve" smooth="yes"/>
      <point x="138" y="319"/>
      <point x="102" y="277"/>
      <point x="102" y="204" type="curve" smooth="yes"/>
      <point x="102" y="86"/>
      <point x="191" y="0"/>
      <point x="379" y="0" type="curve" smooth="yes"/>
      <point x="596" y="0"/>
      <point x="750" y="126"/>
      <point x="750" y="348" type="curve" smooth="yes"/>
      <point x="750" y="513"/>
      <point x="671" y="583"/>
      <point x="563" y="583" type="curve" smooth="yes"/>
      <point x="456" y="583"/>
      <point x="410" y="516"/>
      <point x="410" y="446" type="curve" smooth="yes"/>
      <point x="410" y="333"/>
      <point x="503" y="282"/>
      <point x="668" y="260" type="curve" smooth="yes"/>
      <point x="754" y="248"/>
      <point x="777" y="217"/>
      <point x="777" y="167" type="curve" smooth="yes"/>
      <point x="777" y="126"/>
      <point x="759" y="97"/>
      <point x="738" y="69" type="curve"/>
      <point x="850" y="9" type="line"/>
      <point x="878" y="52"/>
      <point x="904" y="103"/>
      <point x="904" y="164" type="curve" smooth="yes"/>
      <point x="904" y="277"/>
      <point x="821" y="331"/>
      <point x="704" y="351" type="curve"/>
      <point x="548" y="372"/>
      <point x="522" y="406"/>
      <point x="522" y="450" type="curve" smooth="yes"/>
      <point x="522" y="472"/>
      <point x="538" y="490"/>
      <point x="560" y="490" type="curve" smooth="yes"/>
      <point x="605" y="490"/>
      <point x="623" y="437"/>
    </contour>
  </outline>
</glyph>
<glyph name="uni1CED" format="2">
  <unicode hex="1CED"/>
  <outline>
    <contour>
      <point x="-214" y="-116" type="line"/>
      <point x="18" y="-268" type="line"/>
      <point x="82" y="-181" type="line"/>
      <point x="-150" y="-29" type="line"/>
    </contour>
  </outline>
</glyph>
<glyph name="uni1CEE" format="2">
  <advance width="573"/>
  <unicode hex="1CEE"/>
  <outline>
    <contour>
      <point x="335" y="0" type="curve" smooth="yes"/>
      <point x="461" y="0"/>
      <point x="528" y="47"/>
      <point x="528" y="120" type="curve" smooth="yes"/>
      <point x="528" y="159"/>
      <point x="502" y="196"/>
      <point x="451" y="196" type="curve" smooth="yes"/>
      <point x="408" y="196"/>
      <point x="374" y="173"/>
      <point x="374" y="124" type="curve" smooth="yes"/>
      <point x="374" y="101"/>
      <point x="380" y="86"/>
      <point x="391" y="64" type="curve"/>
      <point x="418" y="124" type="line"/>
      <point x="400" y="119"/>
      <point x="372" y="107"/>
      <point x="331" y="107" type="curve" smooth="yes"/>
      <point x="264" y="107"/>
      <point x="224" y="141"/>
      <point x="224" y="189" type="curve" smooth="yes"/>
      <point x="224" y="246"/>
      <point x="266" y="274"/>
      <point x="329" y="274" type="curve" smooth="yes"/>
      <point x="337" y="274"/>
      <point x="353" y="273"/>
      <point x="360" y="272" type="curve"/>
      <point x="375" y="381" type="line"/>
      <point x="367" y="382"/>
      <point x="351" y="384"/>
      <point x="333" y="384" type="curve" smooth="yes"/>
      <point x="181" y="384"/>
      <point x="90" y="304"/>
      <point x="90" y="188" type="curve" smooth="yes"/>
      <point x="90" y="86"/>
      <point x="165" y="0"/>
    </contour>
    <contour>
      <point x="168" y="303" type="curve"/>
      <point x="271" y="372" type="line"/>
      <point x="214" y="397"/>
      <point x="188" y="430"/>
      <point x="188" y="465" type="curve" smooth="yes"/>
      <point x="188" y="502"/>
      <point x="213" y="522"/>
      <point x="274" y="522" type="curve" smooth="yes"/>
      <point x="298" y="522"/>
      <point x="330" y="519"/>
      <point x="354" y="514" type="curve"/>
      <point x="376" y="619" type="line"/>
      <point x="352" y="625"/>
      <point x="301" y="632"/>
      <point x="252" y="632" type="curve" smooth="yes"/>
      <point x="121" y="632"/>
      <point x="54" y="571"/>
      <point x="54" y="476" type="curve" smooth="yes"/>
      <point x="54" y="407"/>
      <point x="96" y="352"/>
    </contour>
    <contour>
      <point x="478" y="259" type="curve" smooth="yes"/>
      <point x="520" y="259"/>
      <point x="551" y="291"/>
      <point x="551" y="333" type="curve" smooth="yes"/>
      <point x="551" y="376"/>
      <point x="520" y="408"/>
      <point x="478" y="408" type="curve" smooth="yes"/>
      <point x="436" y="408"/>
      <point x="404" y="376"/>
      <point x="404" y="333" type="curve" smooth="yes"/>
      <point x="404" y="291"/>
      <point x="436" y="259"/>
    </contour>
  </outline>
</glyph>
<glyph name="uni1CEF" format="2">
  <advance width="483"/>
  <unicode hex="1CEF"/>
  <outline>
    <contour>
      <point x="444" y="265" type="curve"/>
      <point x="422" y="368" type="line"/>
      <point x="386" y="355"/>
      <point x="355" y="348"/>
      <point x="302" y="348" type="curve" smooth="yes"/>
      <point x="232" y="348"/>
      <point x="188" y="374"/>
      <point x="188" y="434" type="curve" smooth="yes"/>
      <point x="188" y="491"/>
      <point x="234" y="521"/>
      <point x="317" y="521" type="curve" smooth="yes"/>
      <point x="357" y="521"/>
      <point x="390" y="517"/>
      <point x="413" y="512" type="curve"/>
      <point x="423" y="621" type="line"/>
      <point x="397" y="627"/>
      <point x="352" y="632"/>
      <point x="301" y="632" type="curve" smooth="yes"/>
      <point x="150" y="632"/>
      <point x="53" y="562"/>
      <point x="53" y="433" type="curve" smooth="yes"/>
      <point x="53" y="332"/>
      <point x="119" y="271"/>
      <point x="236" y="256" type="curve" smooth="yes"/>
      <point x="252" y="254"/>
      <point x="271" y="244"/>
      <point x="280" y="244" type="curve" smooth="yes"/>
      <point x="336" y="244"/>
      <point x="391" y="250"/>
    </contour>
    <contour>
      <point x="381" y="287" type="line"/>
      <point x="271" y="303" type="line"/>
      <point x="138" y="279"/>
      <point x="79" y="224"/>
      <point x="79" y="132" type="curve" smooth="yes"/>
      <point x="79" y="31"/>
      <point x="161" y="-12"/>
      <point x="256" y="-12" type="curve" smooth="yes"/>
      <point x="372" y="-12"/>
      <point x="415" y="33"/>
      <point x="415" y="103" type="curve" smooth="yes"/>
      <point x="415" y="166"/>
      <point x="379" y="215"/>
      <point x="282" y="225" type="curve"/>
      <point x="259" y="140" type="line"/>
      <point x="296" y="137"/>
      <point x="308" y="123"/>
      <point x="308" y="107" type="curve" smooth="yes"/>
      <point x="308" y="89"/>
      <point x="295" y="80"/>
      <point x="267" y="80" type="curve" smooth="yes"/>
      <point x="240" y="80"/>
      <point x="211" y="94"/>
      <point x="211" y="139" type="curve" smooth="yes"/>
      <point x="211" y="194"/>
      <point x="247" y="237"/>
      <point x="350" y="249" type="curve"/>
    </contour>
    <contour>
      <point x="258" y="434" type="curve" smooth="yes"/>
      <point x="258" y="399"/>
      <point x="283" y="374"/>
      <point x="316" y="374" type="curve" smooth="yes"/>
      <point x="350" y="374"/>
      <point x="375" y="399"/>
      <point x="375" y="434" type="curve" smooth="yes"/>
      <point x="375" y="468"/>
      <point x="350" y="493"/>
      <point x="316" y="493" type="curve" smooth="yes"/>
      <point x="283" y="493"/>
      <point x="258" y="468"/>
    </contour>
  </outline>
</glyph>
<glyph name="uni1CF0" format="2">
  <advance width="592"/>
  <unicode hex="1CF0"/>
  <outline>
    <contour>
      <point x="313" y="234" type="curve" smooth="yes"/>
      <point x="370" y="234" type="line"/>
      <point x="375" y="261"/>
      <point x="383" y="288"/>
      <point x="383" y="325" type="curve" smooth="yes"/>
      <point x="383" y="364"/>
      <point x="375" y="402"/>
      <point x="309" y="458" type="curve" smooth="yes"/>
      <point x="276" y="485"/>
      <point x="264" y="498"/>
      <point x="264" y="518" type="curve" smooth="yes"/>
      <point x="264" y="536"/>
      <point x="278" y="543"/>
      <point x="292" y="543" type="curve" smooth="yes"/>
      <point x="318" y="543"/>
      <point x="340" y="529"/>
      <point x="377" y="479" type="curve"/>
      <point x="469" y="527" type="line"/>
      <point x="427" y="582"/>
      <point x="380" y="632"/>
      <point x="285" y="632" type="curve" smooth="yes"/>
      <point x="190" y="632"/>
      <point x="144" y="582"/>
      <point x="144" y="524" type="curve" smooth="yes"/>
      <point x="144" y="468"/>
      <point x="171" y="438"/>
      <point x="210" y="399" type="curve" smooth="yes"/>
      <point x="241" y="368"/>
      <point x="254" y="354"/>
      <point x="254" y="339" type="curve" smooth="yes"/>
      <point x="254" y="336"/>
      <point x="253" y="333"/>
      <point x="252" y="331" type="curve"/>
      <point x="267" y="337" type="line"/>
      <point x="145" y="337"/>
      <point x="33" y="279"/>
      <point x="33" y="174" type="curve" smooth="yes"/>
      <point x="33" y="57"/>
      <point x="151" y="0"/>
      <point x="301" y="0" type="curve" smooth="yes"/>
      <point x="435" y="0"/>
      <point x="560" y="44"/>
      <point x="560" y="162" type="curve" smooth="yes"/>
      <point x="560" y="234"/>
      <point x="495" y="315"/>
      <point x="321" y="342" type="curve"/>
      <point x="313" y="277" type="line"/>
      <point x="320" y="234" type="line"/>
      <point x="387" y="227"/>
      <point x="426" y="196"/>
      <point x="426" y="166" type="curve" smooth="yes"/>
      <point x="426" y="124"/>
      <point x="382" y="106"/>
      <point x="297" y="106" type="curve" smooth="yes"/>
      <point x="222" y="106"/>
      <point x="167" y="124"/>
      <point x="167" y="169" type="curve" smooth="yes"/>
      <point x="167" y="213"/>
      <point x="215" y="234"/>
    </contour>
    <contour>
      <point x="412" y="407" type="curve" smooth="yes"/>
      <point x="412" y="364"/>
      <point x="443" y="332"/>
      <point x="485" y="332" type="curve" smooth="yes"/>
      <point x="527" y="332"/>
      <point x="558" y="364"/>
      <point x="558" y="407" type="curve" smooth="yes"/>
      <point x="558" y="449"/>
      <point x="527" y="481"/>
      <point x="485" y="481" type="curve" smooth="yes"/>
      <point x="443" y="481"/>
      <point x="412" y="449"/>
    </contour>
  </outline>
</glyph>
<glyph name="uni1CF1" format="2">
  <advance width="546"/>
  <unicode hex="1CF1"/>
  <outline>
    <contour>
      <point x="266" y="56" type="curve"/>
      <point x="335" y="-31" type="line"/>
      <point x="353" y="-18"/>
      <point x="379" y="3"/>
      <point x="408" y="26" type="curve" smooth="yes"/>
      <point x="491" y="95"/>
      <point x="515" y="140"/>
      <point x="515" y="196" type="curve" smooth="yes"/>
      <point x="515" y="242"/>
      <point x="497" y="274"/>
      <point x="465" y="295" type="curve" smooth="yes"/>
      <point x="436" y="314"/>
      <point x="403" y="325"/>
      <point x="313" y="325" type="curve" smooth="yes"/>
      <point x="185" y="325" type="line"/>
      <point x="185" y="229" type="line"/>
      <point x="299" y="229" type="line" smooth="yes"/>
      <point x="345" y="229"/>
      <point x="360" y="229"/>
      <point x="375" y="221" type="curve" smooth="yes"/>
      <point x="386" y="215"/>
      <point x="391" y="206"/>
      <point x="391" y="194" type="curve" smooth="yes"/>
      <point x="391" y="167"/>
      <point x="378" y="149"/>
      <point x="319" y="97" type="curve" smooth="yes"/>
      <point x="305" y="84"/>
      <point x="283" y="68"/>
    </contour>
    <contour>
      <point x="104" y="118" type="curve" smooth="yes"/>
      <point x="104" y="76"/>
      <point x="135" y="43"/>
      <point x="177" y="43" type="curve" smooth="yes"/>
      <point x="219" y="43"/>
      <point x="250" y="76"/>
      <point x="250" y="118" type="curve" smooth="yes"/>
      <point x="250" y="161"/>
      <point x="219" y="193"/>
      <point x="177" y="193" type="curve" smooth="yes"/>
      <point x="135" y="193"/>
      <point x="104" y="161"/>
    </contour>
    <contour>
      <point x="280" y="499" type="curve"/>
      <point x="211" y="585" type="line"/>
      <point x="193" y="572"/>
      <point x="167" y="552"/>
      <point x="139" y="528" type="curve" smooth="yes"/>
      <point x="56" y="459"/>
      <point x="32" y="415"/>
      <point x="32" y="359" type="curve" smooth="yes"/>
      <point x="32" y="313"/>
      <point x="49" y="281"/>
      <point x="82" y="259" type="curve" smooth="yes"/>
      <point x="110" y="240"/>
      <point x="144" y="229"/>
      <point x="233" y="229" type="curve" smooth="yes"/>
      <point x="333" y="229" type="line"/>
      <point x="333" y="325" type="line"/>
      <point x="248" y="325" type="line" smooth="yes"/>
      <point x="201" y="325"/>
      <point x="186" y="326"/>
      <point x="171" y="334" type="curve" smooth="yes"/>
      <point x="161" y="339"/>
      <point x="156" y="349"/>
      <point x="156" y="361" type="curve" smooth="yes"/>
      <point x="156" y="388"/>
      <point x="168" y="405"/>
      <point x="227" y="458" type="curve" smooth="yes"/>
      <point x="241" y="470"/>
      <point x="263" y="487"/>
    </contour>
    <contour>
      <point x="296" y="436" type="curve" smooth="yes"/>
      <point x="296" y="394"/>
      <point x="327" y="361"/>
      <point x="369" y="361" type="curve" smooth="yes"/>
      <point x="411" y="361"/>
      <point x="442" y="394"/>
      <point x="442" y="436" type="curve" smooth="yes"/>
      <point x="442" y="479"/>
      <point x="411" y="511"/>
      <point x="369" y="511" type="curve" smooth="yes"/>
      <point x="327" y="511"/>
      <point x="296" y="479"/>
    </contour>
  </outline>
</glyph>
<glyph name="uni1CF2" format="2">
  <advance width="591"/>
  <unicode hex="1CF2"/>
  <outline>
    <contour>
      <point x="301" y="289" type="curve" smooth="yes"/>
      <point x="425" y="289"/>
      <point x="515" y="347"/>
      <point x="553" y="503" type="curve"/>
      <point x="438" y="541" type="line"/>
      <point x="416" y="449"/>
      <point x="382" y="395"/>
      <point x="304" y="395" type="curve" smooth="yes"/>
      <point x="232" y="395"/>
      <point x="187" y="441"/>
      <point x="151" y="541" type="curve"/>
      <point x="43" y="501" type="line"/>
      <point x="97" y="352"/>
      <point x="189" y="289"/>
    </contour>
    <contour>
      <point x="295" y="265" type="curve" smooth="yes"/>
      <point x="171" y="265"/>
      <point x="81" y="207"/>
      <point x="43" y="51" type="curve"/>
      <point x="158" y="13" type="line"/>
      <point x="180" y="105"/>
      <point x="214" y="159"/>
      <point x="292" y="159" type="curve" smooth="yes"/>
      <point x="364" y="159"/>
      <point x="409" y="113"/>
      <point x="445" y="13" type="curve"/>
      <point x="553" y="53" type="line"/>
      <point x="499" y="202"/>
      <point x="407" y="265"/>
    </contour>
  </outline>
</glyph>
<glyph name="uni1CF3" format="2">
  <advance width="616"/>
  <unicode hex="1CF3"/>
  <outline>
    <contour>
      <point x="43" y="129" type="curve"/>
      <point x="82" y="21" type="line"/>
      <point x="237" y="62"/>
      <point x="296" y="153"/>
      <point x="296" y="273" type="curve" smooth="yes"/>
      <point x="296" y="383"/>
      <point x="227" y="479"/>
      <point x="83" y="532" type="curve"/>
      <point x="43" y="432" type="line"/>
      <point x="138" y="393"/>
      <point x="182" y="347"/>
      <point x="182" y="270" type="curve" smooth="yes"/>
      <point x="182" y="190"/>
      <point x="126" y="151"/>
    </contour>
    <contour>
      <point x="578" y="424" type="curve"/>
      <point x="539" y="532" type="line"/>
      <point x="383" y="491"/>
      <point x="325" y="400"/>
      <point x="325" y="280" type="curve" smooth="yes"/>
      <point x="325" y="170"/>
      <point x="394" y="74"/>
      <point x="537" y="21" type="curve"/>
      <point x="578" y="122" type="line"/>
      <point x="483" y="160"/>
      <point x="439" y="207"/>
      <point x="439" y="283" type="curve" smooth="yes"/>
      <point x="439" y="363"/>
      <point x="495" y="402"/>
    </contour>
  </outline>
</glyph>
<glyph name="uni1CF4" format="2">
  <unicode hex="1CF4"/>
  <outline>
    <contour>
      <point x="68" y="1142" type="curve"/>
      <point x="-42" y="1178" type="line"/>
      <point x="-63" y="1090"/>
      <point x="-95" y="1039"/>
      <point x="-169" y="1039" type="curve" smooth="yes"/>
      <point x="-238" y="1039"/>
      <point x="-281" y="1083"/>
      <point x="-315" y="1178" type="curve"/>
      <point x="-418" y="1140" type="line"/>
      <point x="-366" y="998"/>
      <point x="-279" y="938"/>
      <point x="-172" y="938" type="curve" smooth="yes"/>
      <point x="-54" y="938"/>
      <point x="32" y="993"/>
    </contour>
  </outline>
</glyph>
<glyph name="uni1CF5" format="2">
  <advance width="547"/>
  <unicode hex="1CF5"/>
  <outline>
    <contour>
      <point x="277" y="184" type="line"/>
      <point x="412" y="17" type="line"/>
      <point x="510" y="89" type="line"/>
      <point x="353" y="275" type="line"/>
      <point x="509" y="463" type="line"/>
      <point x="407" y="536" type="line"/>
      <point x="274" y="370" type="line"/>
      <point x="140" y="536" type="line"/>
      <point x="42" y="464" type="line"/>
      <point x="199" y="279" type="line"/>
      <point x="42" y="91" type="line"/>
      <point x="144" y="19" type="line"/>
    </contour>
  </outline>
</glyph>
